<mxfile host="Electron" modified="2024-04-19T06:55:56.386Z" agent="Mozilla/5.0 (Windows NT 10.0; Win64; x64) AppleWebKit/537.36 (KHTML, like Gecko) draw.io/24.2.5 Chrome/120.0.6099.109 Electron/28.1.0 Safari/537.36" etag="7azWRDxyWt2f9jIhE7Oi" version="24.2.5" type="device">
  <diagram name="ページ1" id="YuJUD3v-lC4tBk_issCE">
    <mxGraphModel dx="1742" dy="683" grid="1" gridSize="10" guides="1" tooltips="1" connect="1" arrows="1" fold="1" page="1" pageScale="1" pageWidth="827" pageHeight="1169" math="0" shadow="0">
      <root>
        <mxCell id="0" />
        <mxCell id="1" parent="0" />
        <mxCell id="UD9n3Zsf1xc9a69C6OiD-54" style="edgeStyle=orthogonalEdgeStyle;rounded=0;orthogonalLoop=1;jettySize=auto;html=1;entryX=0.667;entryY=0.25;entryDx=0;entryDy=0;entryPerimeter=0;endArrow=none;endFill=0;" edge="1" parent="1" source="UD9n3Zsf1xc9a69C6OiD-49" target="edahv0hC9N-l4Pk8auLt-2">
          <mxGeometry relative="1" as="geometry" />
        </mxCell>
        <mxCell id="UD9n3Zsf1xc9a69C6OiD-46" value="" style="rounded=0;whiteSpace=wrap;html=1;fillColor=none;strokeWidth=2;strokeColor=#f70202;" vertex="1" parent="1">
          <mxGeometry x="10" y="380" width="110" height="80" as="geometry" />
        </mxCell>
        <mxCell id="UD9n3Zsf1xc9a69C6OiD-47" style="edgeStyle=orthogonalEdgeStyle;rounded=0;orthogonalLoop=1;jettySize=auto;html=1;entryX=0.456;entryY=0.91;entryDx=0;entryDy=0;entryPerimeter=0;endArrow=none;endFill=0;" edge="1" parent="1" source="UD9n3Zsf1xc9a69C6OiD-46" target="edahv0hC9N-l4Pk8auLt-2">
          <mxGeometry relative="1" as="geometry">
            <Array as="points">
              <mxPoint x="65" y="350" />
              <mxPoint x="40" y="350" />
              <mxPoint x="40" y="313" />
            </Array>
          </mxGeometry>
        </mxCell>
        <mxCell id="edahv0hC9N-l4Pk8auLt-30" value="" style="rounded=0;whiteSpace=wrap;html=1;fillColor=#76608a;strokeColor=#432D57;fontColor=#ffffff;" parent="1" vertex="1">
          <mxGeometry x="130" y="55" width="590" height="455" as="geometry" />
        </mxCell>
        <mxCell id="edahv0hC9N-l4Pk8auLt-29" value="" style="rounded=0;whiteSpace=wrap;html=1;fillColor=none;strokeWidth=2;perimeterSpacing=0;strokeColor=#f10404;" parent="1" vertex="1">
          <mxGeometry x="140" y="60" width="380" height="440" as="geometry" />
        </mxCell>
        <mxCell id="UD9n3Zsf1xc9a69C6OiD-41" value="" style="rounded=0;whiteSpace=wrap;html=1;fillColor=none;strokeWidth=2;strokeColor=#f70202;" vertex="1" parent="1">
          <mxGeometry x="550" y="340" width="100" height="70" as="geometry" />
        </mxCell>
        <mxCell id="UD9n3Zsf1xc9a69C6OiD-5" style="edgeStyle=orthogonalEdgeStyle;rounded=0;orthogonalLoop=1;jettySize=auto;html=1;entryX=0.5;entryY=0;entryDx=0;entryDy=0;endArrow=none;endFill=0;" edge="1" parent="1" source="edahv0hC9N-l4Pk8auLt-3" target="edahv0hC9N-l4Pk8auLt-7">
          <mxGeometry relative="1" as="geometry" />
        </mxCell>
        <mxCell id="UD9n3Zsf1xc9a69C6OiD-29" style="edgeStyle=orthogonalEdgeStyle;rounded=0;orthogonalLoop=1;jettySize=auto;html=1;entryX=0;entryY=0.5;entryDx=0;entryDy=0;endArrow=none;endFill=0;" edge="1" parent="1" source="edahv0hC9N-l4Pk8auLt-3" target="UD9n3Zsf1xc9a69C6OiD-27">
          <mxGeometry relative="1" as="geometry" />
        </mxCell>
        <mxCell id="edahv0hC9N-l4Pk8auLt-3" value="ONU" style="rounded=0;whiteSpace=wrap;html=1;fontSize=10;" parent="1" vertex="1">
          <mxGeometry x="220" y="260" width="40" height="40" as="geometry" />
        </mxCell>
        <mxCell id="edahv0hC9N-l4Pk8auLt-4" style="edgeStyle=orthogonalEdgeStyle;rounded=0;orthogonalLoop=1;jettySize=auto;html=1;entryX=0.875;entryY=0.5;entryDx=0;entryDy=0;entryPerimeter=0;endArrow=none;endFill=0;" parent="1" source="edahv0hC9N-l4Pk8auLt-3" target="edahv0hC9N-l4Pk8auLt-2" edge="1">
          <mxGeometry relative="1" as="geometry" />
        </mxCell>
        <mxCell id="UD9n3Zsf1xc9a69C6OiD-7" style="edgeStyle=orthogonalEdgeStyle;rounded=0;orthogonalLoop=1;jettySize=auto;html=1;entryX=1;entryY=0.5;entryDx=0;entryDy=0;endArrow=none;endFill=0;strokeWidth=3;" edge="1" parent="1" source="edahv0hC9N-l4Pk8auLt-5" target="UD9n3Zsf1xc9a69C6OiD-1">
          <mxGeometry relative="1" as="geometry" />
        </mxCell>
        <mxCell id="UD9n3Zsf1xc9a69C6OiD-12" style="edgeStyle=orthogonalEdgeStyle;rounded=0;orthogonalLoop=1;jettySize=auto;html=1;entryX=0;entryY=0.5;entryDx=0;entryDy=0;endArrow=none;endFill=0;strokeWidth=3;" edge="1" parent="1" source="edahv0hC9N-l4Pk8auLt-5" target="UD9n3Zsf1xc9a69C6OiD-11">
          <mxGeometry relative="1" as="geometry">
            <Array as="points">
              <mxPoint x="340" y="330" />
              <mxPoint x="340" y="320" />
            </Array>
          </mxGeometry>
        </mxCell>
        <mxCell id="UD9n3Zsf1xc9a69C6OiD-13" style="edgeStyle=orthogonalEdgeStyle;rounded=0;orthogonalLoop=1;jettySize=auto;html=1;exitX=1;exitY=0.75;exitDx=0;exitDy=0;entryX=0;entryY=0.5;entryDx=0;entryDy=0;endArrow=none;endFill=0;" edge="1" parent="1" source="edahv0hC9N-l4Pk8auLt-5" target="UD9n3Zsf1xc9a69C6OiD-8">
          <mxGeometry relative="1" as="geometry" />
        </mxCell>
        <mxCell id="edahv0hC9N-l4Pk8auLt-5" value="" style="rounded=0;whiteSpace=wrap;html=1;horizontal=0;" parent="1" vertex="1">
          <mxGeometry x="280" y="320" width="40" height="40" as="geometry" />
        </mxCell>
        <mxCell id="UD9n3Zsf1xc9a69C6OiD-4" style="edgeStyle=orthogonalEdgeStyle;rounded=0;orthogonalLoop=1;jettySize=auto;html=1;entryX=0.5;entryY=1;entryDx=0;entryDy=0;endArrow=none;endFill=0;dashed=1;dashPattern=1 1;" edge="1" parent="1" source="edahv0hC9N-l4Pk8auLt-7" target="edahv0hC9N-l4Pk8auLt-11">
          <mxGeometry relative="1" as="geometry" />
        </mxCell>
        <mxCell id="edahv0hC9N-l4Pk8auLt-7" value="" style="rounded=0;whiteSpace=wrap;html=1;horizontal=0;labelPosition=center;verticalLabelPosition=middle;align=center;verticalAlign=middle;direction=west;flipH=0;flipV=1;" parent="1" vertex="1">
          <mxGeometry x="220" y="160" width="40" height="60" as="geometry" />
        </mxCell>
        <mxCell id="edahv0hC9N-l4Pk8auLt-9" value="光電話" style="text;html=1;align=center;verticalAlign=middle;whiteSpace=wrap;rounded=0;horizontal=1;rotation=90;spacingLeft=0;direction=east;flipH=1;flipV=1;fontSize=10;" parent="1" vertex="1">
          <mxGeometry x="210" y="175" width="60" height="30" as="geometry" />
        </mxCell>
        <mxCell id="edahv0hC9N-l4Pk8auLt-10" value="&lt;font style=&quot;font-size: 8px;&quot;&gt;ルーター&lt;/font&gt;" style="text;html=1;align=center;verticalAlign=middle;whiteSpace=wrap;rounded=0;horizontal=1;rotation=90;spacingLeft=0;direction=east;flipH=1;flipV=1;fontSize=10;" parent="1" vertex="1">
          <mxGeometry x="280" y="330" width="40" height="20" as="geometry" />
        </mxCell>
        <mxCell id="edahv0hC9N-l4Pk8auLt-15" style="edgeStyle=orthogonalEdgeStyle;rounded=0;orthogonalLoop=1;jettySize=auto;html=1;exitX=0;exitY=0.5;exitDx=0;exitDy=0;entryX=1;entryY=0.5;entryDx=0;entryDy=0;endArrow=none;endFill=0;dashed=1;dashPattern=1 1;" parent="1" source="edahv0hC9N-l4Pk8auLt-11" target="edahv0hC9N-l4Pk8auLt-14" edge="1">
          <mxGeometry relative="1" as="geometry" />
        </mxCell>
        <mxCell id="edahv0hC9N-l4Pk8auLt-11" value="FAX&lt;br style=&quot;font-size: 10px;&quot;&gt;複合機" style="rounded=0;whiteSpace=wrap;html=1;fontSize=10;" parent="1" vertex="1">
          <mxGeometry x="220" y="90" width="40" height="40" as="geometry" />
        </mxCell>
        <mxCell id="edahv0hC9N-l4Pk8auLt-14" value="電話機" style="rounded=0;whiteSpace=wrap;html=1;fontSize=10;" parent="1" vertex="1">
          <mxGeometry x="190" y="90" width="20" height="40" as="geometry" />
        </mxCell>
        <mxCell id="edahv0hC9N-l4Pk8auLt-17" value="&lt;font style=&quot;font-size: 8px;&quot;&gt;BTV光（1G）&lt;/font&gt;" style="text;html=1;align=left;verticalAlign=top;whiteSpace=wrap;rounded=0;fontSize=9;" parent="1" vertex="1">
          <mxGeometry x="167.5" y="280" width="60" height="20" as="geometry" />
        </mxCell>
        <mxCell id="edahv0hC9N-l4Pk8auLt-18" value="PC" style="rounded=0;whiteSpace=wrap;html=1;" parent="1" vertex="1">
          <mxGeometry x="440" y="450" width="60" height="40" as="geometry" />
        </mxCell>
        <mxCell id="UD9n3Zsf1xc9a69C6OiD-33" style="edgeStyle=orthogonalEdgeStyle;rounded=0;orthogonalLoop=1;jettySize=auto;html=1;entryX=0.5;entryY=0;entryDx=0;entryDy=0;endArrow=none;endFill=0;" edge="1" parent="1" source="edahv0hC9N-l4Pk8auLt-22" target="edahv0hC9N-l4Pk8auLt-24">
          <mxGeometry relative="1" as="geometry" />
        </mxCell>
        <mxCell id="edahv0hC9N-l4Pk8auLt-22" value="TV" style="rounded=0;whiteSpace=wrap;html=1;" parent="1" vertex="1">
          <mxGeometry x="560" y="175" width="40" height="40" as="geometry" />
        </mxCell>
        <mxCell id="edahv0hC9N-l4Pk8auLt-24" value="STB" style="rounded=0;whiteSpace=wrap;html=1;" parent="1" vertex="1">
          <mxGeometry x="560" y="260" width="40" height="40" as="geometry" />
        </mxCell>
        <mxCell id="edahv0hC9N-l4Pk8auLt-26" value="PC" style="rounded=0;whiteSpace=wrap;html=1;" parent="1" vertex="1">
          <mxGeometry x="620" y="260" width="40" height="40" as="geometry" />
        </mxCell>
        <mxCell id="edahv0hC9N-l4Pk8auLt-28" value="" style="rounded=0;whiteSpace=wrap;html=1;fillColor=none;strokeWidth=2;strokeColor=#ff0000;" parent="1" vertex="1">
          <mxGeometry x="540" y="140" width="170" height="180" as="geometry" />
        </mxCell>
        <mxCell id="UD9n3Zsf1xc9a69C6OiD-2" value="" style="edgeStyle=orthogonalEdgeStyle;rounded=0;orthogonalLoop=1;jettySize=auto;html=1;endArrow=none;endFill=0;entryX=0.952;entryY=0.667;entryDx=0;entryDy=0;strokeWidth=3;entryPerimeter=0;" edge="1" parent="1">
          <mxGeometry relative="1" as="geometry">
            <mxPoint x="245.81" y="339.14" as="sourcePoint" />
            <mxPoint x="80.05000000000001" y="295" as="targetPoint" />
            <Array as="points">
              <mxPoint x="245.81" y="331.64" />
              <mxPoint x="105.81" y="331.64" />
              <mxPoint x="105.81" y="296.64" />
              <mxPoint x="79.81" y="296.64" />
            </Array>
          </mxGeometry>
        </mxCell>
        <mxCell id="UD9n3Zsf1xc9a69C6OiD-1" value="ONU" style="rounded=0;whiteSpace=wrap;html=1;fontSize=10;" vertex="1" parent="1">
          <mxGeometry x="220" y="320" width="40" height="40" as="geometry" />
        </mxCell>
        <mxCell id="UD9n3Zsf1xc9a69C6OiD-6" value="&lt;font style=&quot;font-size: 8px;&quot;&gt;BBIQ光（10G）&lt;/font&gt;" style="text;html=1;align=left;verticalAlign=top;whiteSpace=wrap;rounded=0;fontSize=9;" vertex="1" parent="1">
          <mxGeometry x="160" y="330" width="67.5" height="20" as="geometry" />
        </mxCell>
        <mxCell id="UD9n3Zsf1xc9a69C6OiD-8" value="" style="rounded=0;whiteSpace=wrap;html=1;horizontal=0;" vertex="1" parent="1">
          <mxGeometry x="360" y="370" width="40" height="40" as="geometry" />
        </mxCell>
        <mxCell id="UD9n3Zsf1xc9a69C6OiD-9" value="&lt;p style=&quot;line-height: 80%;&quot;&gt;&lt;span style=&quot;font-size: 8px;&quot;&gt;Wi-Fi&lt;br&gt;ルーター&lt;/span&gt;&lt;/p&gt;" style="text;html=1;align=center;verticalAlign=middle;whiteSpace=wrap;rounded=0;horizontal=1;rotation=90;spacingLeft=0;direction=east;flipH=1;flipV=1;fontSize=10;" vertex="1" parent="1">
          <mxGeometry x="360" y="380" width="40" height="20" as="geometry" />
        </mxCell>
        <mxCell id="UD9n3Zsf1xc9a69C6OiD-20" style="edgeStyle=orthogonalEdgeStyle;rounded=0;orthogonalLoop=1;jettySize=auto;html=1;exitX=1;exitY=0.5;exitDx=0;exitDy=0;entryX=1;entryY=0.5;entryDx=0;entryDy=0;endArrow=none;endFill=0;" edge="1" parent="1" source="UD9n3Zsf1xc9a69C6OiD-11" target="edahv0hC9N-l4Pk8auLt-11">
          <mxGeometry relative="1" as="geometry">
            <Array as="points">
              <mxPoint x="400" y="290" />
              <mxPoint x="410" y="290" />
              <mxPoint x="410" y="110" />
            </Array>
          </mxGeometry>
        </mxCell>
        <mxCell id="UD9n3Zsf1xc9a69C6OiD-21" style="edgeStyle=orthogonalEdgeStyle;rounded=0;orthogonalLoop=1;jettySize=auto;html=1;entryX=0;entryY=0.5;entryDx=0;entryDy=0;endArrow=none;endFill=0;" edge="1" parent="1" source="UD9n3Zsf1xc9a69C6OiD-11" target="edahv0hC9N-l4Pk8auLt-18">
          <mxGeometry relative="1" as="geometry">
            <Array as="points">
              <mxPoint x="410" y="350" />
              <mxPoint x="410" y="460" />
              <mxPoint x="440" y="460" />
            </Array>
          </mxGeometry>
        </mxCell>
        <mxCell id="UD9n3Zsf1xc9a69C6OiD-22" style="edgeStyle=orthogonalEdgeStyle;rounded=0;orthogonalLoop=1;jettySize=auto;html=1;exitX=1;exitY=0.5;exitDx=0;exitDy=0;entryX=0;entryY=0.5;entryDx=0;entryDy=0;endArrow=none;endFill=0;" edge="1" parent="1" source="UD9n3Zsf1xc9a69C6OiD-11" target="UD9n3Zsf1xc9a69C6OiD-16">
          <mxGeometry relative="1" as="geometry">
            <Array as="points">
              <mxPoint x="400" y="340" />
              <mxPoint x="420" y="340" />
              <mxPoint x="420" y="420" />
            </Array>
          </mxGeometry>
        </mxCell>
        <mxCell id="UD9n3Zsf1xc9a69C6OiD-23" style="edgeStyle=orthogonalEdgeStyle;rounded=0;orthogonalLoop=1;jettySize=auto;html=1;entryX=0;entryY=0.5;entryDx=0;entryDy=0;endArrow=none;endFill=0;strokeWidth=3;" edge="1" parent="1" source="UD9n3Zsf1xc9a69C6OiD-11" target="UD9n3Zsf1xc9a69C6OiD-15">
          <mxGeometry relative="1" as="geometry">
            <Array as="points">
              <mxPoint x="430" y="330" />
              <mxPoint x="430" y="370" />
            </Array>
          </mxGeometry>
        </mxCell>
        <mxCell id="UD9n3Zsf1xc9a69C6OiD-24" style="edgeStyle=orthogonalEdgeStyle;rounded=0;orthogonalLoop=1;jettySize=auto;html=1;exitX=1;exitY=0.5;exitDx=0;exitDy=0;endArrow=none;endFill=0;strokeWidth=3;" edge="1" parent="1" source="UD9n3Zsf1xc9a69C6OiD-11" target="UD9n3Zsf1xc9a69C6OiD-17">
          <mxGeometry relative="1" as="geometry">
            <Array as="points">
              <mxPoint x="410" y="320" />
              <mxPoint x="410" y="320" />
            </Array>
          </mxGeometry>
        </mxCell>
        <mxCell id="UD9n3Zsf1xc9a69C6OiD-25" style="edgeStyle=orthogonalEdgeStyle;rounded=0;orthogonalLoop=1;jettySize=auto;html=1;exitX=1;exitY=0.25;exitDx=0;exitDy=0;endArrow=box;endFill=0;" edge="1" parent="1">
          <mxGeometry relative="1" as="geometry">
            <mxPoint x="690" y="240" as="targetPoint" />
            <mxPoint x="398" y="295.0000000000001" as="sourcePoint" />
            <Array as="points">
              <mxPoint x="398" y="300" />
              <mxPoint x="429" y="300" />
              <mxPoint x="429" y="240" />
            </Array>
          </mxGeometry>
        </mxCell>
        <mxCell id="UD9n3Zsf1xc9a69C6OiD-11" value="" style="rounded=0;whiteSpace=wrap;html=1;" vertex="1" parent="1">
          <mxGeometry x="360" y="280" width="40" height="80" as="geometry" />
        </mxCell>
        <mxCell id="UD9n3Zsf1xc9a69C6OiD-14" value="&lt;p style=&quot;line-height: 80%;&quot;&gt;&lt;span style=&quot;font-size: 8px;&quot;&gt;L3&lt;br&gt;スイッチ&lt;/span&gt;&lt;/p&gt;" style="text;html=1;align=center;verticalAlign=middle;whiteSpace=wrap;rounded=0;horizontal=1;rotation=90;spacingLeft=0;direction=east;flipH=1;flipV=1;fontSize=10;" vertex="1" parent="1">
          <mxGeometry x="360" y="310" width="40" height="20" as="geometry" />
        </mxCell>
        <mxCell id="UD9n3Zsf1xc9a69C6OiD-15" value="" style="rounded=0;whiteSpace=wrap;html=1;" vertex="1" parent="1">
          <mxGeometry x="440" y="350" width="60" height="40" as="geometry" />
        </mxCell>
        <mxCell id="UD9n3Zsf1xc9a69C6OiD-16" value="" style="rounded=0;whiteSpace=wrap;html=1;" vertex="1" parent="1">
          <mxGeometry x="440" y="400" width="60" height="40" as="geometry" />
        </mxCell>
        <mxCell id="UD9n3Zsf1xc9a69C6OiD-17" value="" style="rounded=0;whiteSpace=wrap;html=1;" vertex="1" parent="1">
          <mxGeometry x="440" y="300" width="60" height="40" as="geometry" />
        </mxCell>
        <mxCell id="UD9n3Zsf1xc9a69C6OiD-34" style="edgeStyle=orthogonalEdgeStyle;rounded=0;orthogonalLoop=1;jettySize=auto;html=1;entryX=0.5;entryY=0;entryDx=0;entryDy=0;endArrow=none;endFill=0;" edge="1" parent="1" source="UD9n3Zsf1xc9a69C6OiD-18" target="edahv0hC9N-l4Pk8auLt-26">
          <mxGeometry relative="1" as="geometry" />
        </mxCell>
        <mxCell id="UD9n3Zsf1xc9a69C6OiD-18" value="" style="rounded=0;whiteSpace=wrap;html=1;" vertex="1" parent="1">
          <mxGeometry x="620" y="175" width="40" height="40" as="geometry" />
        </mxCell>
        <mxCell id="UD9n3Zsf1xc9a69C6OiD-26" value="" style="rounded=0;whiteSpace=wrap;html=1;" vertex="1" parent="1">
          <mxGeometry x="560" y="360" width="40" height="40" as="geometry" />
        </mxCell>
        <mxCell id="UD9n3Zsf1xc9a69C6OiD-30" style="edgeStyle=orthogonalEdgeStyle;rounded=0;orthogonalLoop=1;jettySize=auto;html=1;entryX=0;entryY=0.25;entryDx=0;entryDy=0;endArrow=none;endFill=0;" edge="1" parent="1" source="UD9n3Zsf1xc9a69C6OiD-27" target="UD9n3Zsf1xc9a69C6OiD-11">
          <mxGeometry relative="1" as="geometry">
            <Array as="points">
              <mxPoint x="360" y="290" />
            </Array>
          </mxGeometry>
        </mxCell>
        <mxCell id="UD9n3Zsf1xc9a69C6OiD-27" value="" style="rounded=0;whiteSpace=wrap;html=1;" vertex="1" parent="1">
          <mxGeometry x="280" y="260" width="40" height="40" as="geometry" />
        </mxCell>
        <mxCell id="UD9n3Zsf1xc9a69C6OiD-28" value="&lt;font style=&quot;font-size: 8px;&quot;&gt;ルーター&lt;/font&gt;" style="text;html=1;align=center;verticalAlign=middle;whiteSpace=wrap;rounded=0;horizontal=1;rotation=90;spacingLeft=0;direction=east;flipH=1;flipV=1;fontSize=10;" vertex="1" parent="1">
          <mxGeometry x="280" y="270" width="40" height="20" as="geometry" />
        </mxCell>
        <mxCell id="UD9n3Zsf1xc9a69C6OiD-31" value="&lt;span style=&quot;font-size: 8px;&quot;&gt;中継機&lt;/span&gt;" style="text;html=1;align=center;verticalAlign=middle;whiteSpace=wrap;rounded=0;horizontal=1;rotation=90;spacingLeft=0;direction=east;flipH=1;flipV=1;fontSize=10;" vertex="1" parent="1">
          <mxGeometry x="560" y="370" width="40" height="20" as="geometry" />
        </mxCell>
        <mxCell id="UD9n3Zsf1xc9a69C6OiD-35" value="&lt;p style=&quot;line-height: 80%;&quot;&gt;&lt;span style=&quot;font-size: 8px;&quot;&gt;RaspberryPi&lt;/span&gt;&lt;/p&gt;" style="text;html=1;align=center;verticalAlign=middle;whiteSpace=wrap;rounded=0;horizontal=0;rotation=90;spacingLeft=0;direction=east;flipH=1;flipV=1;fontSize=10;" vertex="1" parent="1">
          <mxGeometry x="460" y="395" width="20" height="50" as="geometry" />
        </mxCell>
        <mxCell id="UD9n3Zsf1xc9a69C6OiD-36" value="&lt;p style=&quot;line-height: 80%;&quot;&gt;&lt;span style=&quot;font-size: 8px;&quot;&gt;サーバーA&lt;/span&gt;&lt;/p&gt;" style="text;html=1;align=center;verticalAlign=middle;whiteSpace=wrap;rounded=0;horizontal=0;rotation=90;spacingLeft=0;direction=east;flipH=1;flipV=1;fontSize=10;" vertex="1" parent="1">
          <mxGeometry x="460" y="345" width="20" height="50" as="geometry" />
        </mxCell>
        <mxCell id="UD9n3Zsf1xc9a69C6OiD-38" value="&lt;p style=&quot;line-height: 80%;&quot;&gt;&lt;span style=&quot;font-size: 8px;&quot;&gt;サーバーB&lt;/span&gt;&lt;/p&gt;" style="text;html=1;align=center;verticalAlign=middle;whiteSpace=wrap;rounded=0;horizontal=0;rotation=90;spacingLeft=0;direction=east;flipH=1;flipV=1;fontSize=10;" vertex="1" parent="1">
          <mxGeometry x="460" y="295" width="20" height="50" as="geometry" />
        </mxCell>
        <mxCell id="UD9n3Zsf1xc9a69C6OiD-39" value="&lt;p style=&quot;line-height: 80%;&quot;&gt;&lt;span style=&quot;font-size: 8px;&quot;&gt;録画機&lt;/span&gt;&lt;/p&gt;" style="text;html=1;align=center;verticalAlign=middle;whiteSpace=wrap;rounded=0;horizontal=0;rotation=90;spacingLeft=0;direction=east;flipH=1;flipV=1;fontSize=10;" vertex="1" parent="1">
          <mxGeometry x="630" y="170" width="20" height="50" as="geometry" />
        </mxCell>
        <mxCell id="UD9n3Zsf1xc9a69C6OiD-40" value="" style="shape=image;verticalLabelPosition=bottom;verticalAlign=top;imageAspect=0;aspect=fixed;image=data:image/svg+xml,PHN2ZyB4bWxuczp4bGluaz0iaHR0cDovL3d3dy53My5vcmcvMTk5OS94bGluayIgeG1sbnM9Imh0dHA6Ly93d3cudzMub3JnLzIwMDAvc3ZnIiB4bWw6c3BhY2U9InByZXNlcnZlIiBzdHlsZT0iZW5hYmxlLWJhY2tncm91bmQ6bmV3IDAgMCA4MzAgODMwOyIgdmlld0JveD0iMCAwIDgzMCA4MzAiIHk9IjBweCIgeD0iMHB4IiB2ZXJzaW9uPSIxLjEiPiYjeGE7PHN0eWxlIHR5cGU9InRleHQvY3NzIj4mI3hhOwkuc3Qwe2Rpc3BsYXk6bm9uZTt9JiN4YTsJLnN0MXtkaXNwbGF5OmlubGluZTtmaWxsOiMyMzE4MTU7fSYjeGE7CS5zdDJ7ZGlzcGxheTppbmxpbmU7fSYjeGE7CS5zdDN7ZmlsbDojMjMxODE1O30mI3hhOwkuc3Q0e2Rpc3BsYXk6aW5saW5lO2ZpbGw6I0ZGRkZGRjt9JiN4YTsJLnN0NXtmaWxsOiM3NzU4QzE7fSYjeGE7CS5zdDZ7ZmlsbDojRkZGRkZGO30mI3hhOwkuc3Q3e2Rpc3BsYXk6aW5saW5lO2ZpbGw6Izc3NThDMTt9JiN4YTsJLnN0OHtmaWxsOiM2RTZFNkU7fSYjeGE7PC9zdHlsZT4mI3hhOzxnIGNsYXNzPSJzdDAiIGlkPSLog4zmma8iPiYjeGE7CTxyZWN0IGhlaWdodD0iODMwIiB3aWR0aD0iODMwIiBjbGFzcz0ic3QxIiB5PSIwIi8+JiN4YTs8L2c+JiN4YTs8ZyBjbGFzcz0ic3QwIiBpZD0i5p6gX3gyOF/lj4LogINfeDI5XyI+JiN4YTsJPGcgY2xhc3M9InN0MiI+JiN4YTsJCTxwYXRoIGQ9Ik04MTQsMTZ2Nzk4SDE2VjE2SDgxNCBNODE1LDE1SDE1djgwMGg4MDBWMTVMODE1LDE1eiIgY2xhc3M9InN0MyIvPiYjeGE7CTwvZz4mI3hhOzwvZz4mI3hhOzxnIGNsYXNzPSJzdDAiIGlkPSJfeDMzXzdfeDVGX1VUTV94RkYwOF/jg5bjg6rjg4Pjgrjjg6Ljg7zjg4lfeEZGMDlfIj4mI3hhOwk8cGF0aCBkPSJNODE2LjYsNDk3Ljk4Yy0wLjI2LTYuNjUtNS41MS0xMi4wMy0xMi4xNS0xMi40NmMtMC4yOS0wLjAyLTMwLjM3LTIuMTEtNjMuMTItMTMuMjUmIzEwOyYjOTsmIzk7Yy0xLjkyLTAuNjUtMy44MS0xLjM1LTUuNjktMi4wN1YzMTguOTNjMC00LjI1LTIuMDctOC4yMi01LjU1LTEwLjY2TDQwOC4zOSw4My40MmMtMi4yNC0xLjU2LTQuODQtMi4zNC03LjQ1LTIuMzQmIzEwOyYjOTsmIzk7Yy0yLjYxLDAtNS4yMSwwLjc4LTcuNDUsMi4zNEw3MS44MiwzMDguMjVjLTMuNDgsMi40My01LjU1LDYuNDEtNS41NSwxMC42NnYxNzkuNDJjMCw0LjI0LDIuMDcsOC4yMiw1LjU1LDEwLjY1bDMyMiwyMjUuMjMmIzEwOyYjOTsmIzk7YzIuMjQsMS41Niw0Ljg0LDIuMzUsNy40NSwyLjM1YzIuNjEsMCw1LjIxLTAuNzgsNy40NS0yLjM0TDU1MS45NCw2MzQuMWMzLjg4LDE5Ljc3LDExLjcsMzguODQsMjMuMzcsNTYuODImIzEwOyYjOTsmIzk7YzEwLjksMTYuNzksMjUuMTMsMzIuNjQsNDIuMyw0Ny4xMWMyOC45OSwyNC40NCw1Ni4zNiwzNi41Niw1Ny41MSwzNy4wN2MxLjY2LDAuNzMsMy40NCwxLjA5LDUuMjEsMS4wOXMzLjU1LTAuMzYsNS4yMS0xLjA5JiMxMDsmIzk7JiM5O2MxLjE1LTAuNSwyOC41Mi0xMi42Miw1Ny41MS0zNy4wN2MxNy4xNy0xNC40OCwzMS40LTMwLjMzLDQyLjMtNDcuMTFjMTMuODQtMjEuMzIsMjIuMy00NC4xOCwyNS4xNC02Ny45MyYjMTA7JiM5OyYjOTtDODE4LjcxLDU1NC40Niw4MTYuNjksNTAwLjI2LDgxNi42LDQ5Ny45OHoiIGNsYXNzPSJzdDQiLz4mI3hhOwk8ZyBjbGFzcz0ic3QyIj4mI3hhOwkJPHBhdGggZD0iTTYxNi40Niw1NTkuMzd2NjMuNzJjMCw2LjEyLDIuNTEsOS40OCw3LjMsOS40OGM0LjU2LDAsNy4zLTMuMzYsNy4zLTkuNDh2LTYzLjcyaDE1LjczdjY0LjQ0JiMxMDsmIzk7JiM5OyYjOTtjMCwxNC4wNC04LjIxLDIyLjgtMjMuMDMsMjIuOGMtMTQuOTMsMC0yMy4xNC04Ljc2LTIzLjE0LTIyLjh2LTY0LjQ0SDYxNi40NnoiIGNsYXNzPSJzdDUiLz4mI3hhOwkJPHBhdGggZD0iTTY5Ny4xNyw1NzMuNTNoLTE1LjM5djcxLjA0aC0xNS43M3YtNzEuMDRoLTE1LjM5di0xNC4xNmg0Ni41MVY1NzMuNTN6IiBjbGFzcz0ic3Q1Ii8+JiN4YTsJCTxwYXRoIGQ9Ik03MDEuNzMsNTU5LjM3aDIxLjJsNi44NCw0NC4yOGMwLjY4LDQuNTYsMS4yNSw5LjI0LDEuMzcsMTIuNDhoMC40NmMwLTMuMjQsMC42OC03LjkyLDEuMjUtMTIuNDhsNi43My00NC4yOCYjMTA7JiM5OyYjOTsmIzk7aDIxLjMydjg1LjJoLTEzLjY4di00Mi44NGMwLTYuODQsMC0xNi4zMiwwLjM0LTIzLjE2aC0wLjQ2Yy0wLjQ2LDQuMDgtMC44LDcuMi0xLjYsMTIuNmwtOC41NSw1My40aC0xMS40bC04LjY2LTUzLjQmIzEwOyYjOTsmIzk7JiM5O2MtMC42OC01LjQtMS4zNy0xMC4wOC0xLjQ4LTEyLjZoLTAuNTdjMC4zNCw2Ljg0LDAuMzQsMTYuMzIsMC4zNCwyMy4xNnY0Mi44NGgtMTMuNDVWNTU5LjM3eiIgY2xhc3M9InN0NSIvPiYjeGE7CQk8cG9seWdvbiBwb2ludHM9IjI4MC4zOCw2MzkuMTYgMjgwLjM4LDU2MC41OSAxODAuODIsNDkwLjkyIDE4MC44Miw1NjkuNTMiIGNsYXNzPSJzdDUiLz4mI3hhOwkJPHBvbHlnb24gcG9pbnRzPSIyNDEuNTcsNTIxLjIzIDM5My45NCw2MjcuODYgMzkzLjk0LDU0OC43OCAyNDEuNTcsNDQyLjIiIGNsYXNzPSJzdDUiLz4mI3hhOwkJPHBvbHlnb24gcG9pbnRzPSIyMzEuNTcsNTE0LjIzIDIzMS41Nyw0MzUuMjEgNzkuMjEsMzI4LjY0IDc5LjIxLDQwNy42IiBjbGFzcz0ic3Q1Ii8+JiN4YTsJCTxwb2x5Z29uIHBvaW50cz0iMTcwLjgyLDQ4My45MiA3OS4yMSw0MTkuODEgNzkuMjEsNDk4LjQ2IDE3MC44Miw1NjIuNTMiIGNsYXNzPSJzdDUiLz4mI3hhOwkJPHBvbHlnb24gcG9pbnRzPSIyOTAuMzgsNTY3LjU5IDI5MC4zOCw2NDYuMTYgMzkzLjk0LDcxOC42IDM5My45NCw2NDAuMDciIGNsYXNzPSJzdDUiLz4mI3hhOwkJPHBvbHlnb24gcG9pbnRzPSI0OTkuNSw1NjMuODggNDk5LjUsNDg0LjcgNDA3Ljg5LDU0OC43OCA0MDcuODksNjI3Ljk5IiBjbGFzcz0ic3Q1Ii8+JiN4YTsJCTxwYXRoIGQ9Ik03MjIuNjIsNDY0LjUzdi00NC42bC0zNC4zNywyNC4wNUM2ODkuMjYsNDQ0LjczLDcwMy42NSw0NTUuMzgsNzIyLjYyLDQ2NC41M3oiIGNsYXNzPSJzdDUiLz4mI3hhOwkJPHBhdGggZD0iTTU0NC4yOCw1NDQuNzVsLTEzNi4zOSw5NS40NXY3OC40bDE0MS44Ni05OS4yM0M1NDYuNDgsNTkwLjk3LDU0NC45NSw1NjUuMTgsNTQ0LjI4LDU0NC43NXoiIGNsYXNzPSJzdDUiLz4mI3hhOwkJPHBhdGggZD0iTTU0NC4wOSw0OTcuOThjMC4yNi02LjY0LDUuNTEtMTIuMDIsMTIuMTQtMTIuNDZjMC4yNy0wLjAyLDI0LjMzLTEuNyw1Mi44My0xMHYtNjcuNDVsLTk5LjU2LDY5LjY0djc5LjE3JiMxMDsmIzk7JiM5OyYjOTtsMzQuNDYtMjQuMTJDNTQzLjU2LDUxMi4wNCw1NDQuMDQsNDk5LjA3LDU0NC4wOSw0OTcuOTh6IiBjbGFzcz0ic3Q1Ii8+JiN4YTsJCTxwYXRoIGQ9Ik02MTkuMzYsNDcyLjI4YzEyLjAyLTQuMDksMjMuNDItOS44MiwzMi41Ni0xNS4wN2w3MC43LTQ5LjQ4di03OS4wOWwtMTAzLjU3LDcyLjQ0djcxLjMmIzEwOyYjOTsmIzk7JiM5O0M2MTkuMTYsNDcyLjM1LDYxOS4yNiw0NzIuMzEsNjE5LjM2LDQ3Mi4yOHoiIGNsYXNzPSJzdDUiLz4mI3hhOwkJPGc+JiN4YTsJCQk8Zz4mI3hhOwkJCQk8cGF0aCBkPSJNNjgwLjM0LDQ4MC45MmMxMS42Myw3LjQxLDI5Ljc0LDE3LjcsNDkuNzIsMjQuNDljMTkuNzMsNi43MSwzOC4zOSwxMC41LDUxLjc5LDEyLjYmIzEwOyYjOTsmIzk7JiM5OyYjOTsmIzk7Yy0wLjA1LDIxLjIyLTEuMDMsNTguNDgtNi4xLDEwMC44MWMtMi4xOCwxOC4xOS04LjcsMzUuODUtMTkuNCw1Mi40OWMtOC44NywxMy44MS0yMC42NCwyNi45OS0zNC45NiwzOS4yJiMxMDsmIzk7JiM5OyYjOTsmIzk7JiM5O2MtMTUuOTcsMTMuNjEtMzEuNjYsMjMtNDEuMDYsMjguMDdjLTkuNDEtNS4wOC0yNS4wOS0xNC40Ny00MS4wNi0yOC4wN2MtMTQuMzItMTIuMjEtMjYuMDktMjUuMzktMzQuOTYtMzkuMiYjMTA7JiM5OyYjOTsmIzk7JiM5OyYjOTtjLTEwLjY5LTE2LjYzLTE3LjIyLTM0LjI5LTE5LjQtNTIuNDljLTUuMDctNDIuMzQtNi4wNS03OS41OS02LjEtMTAwLjgxYzEzLjQtMi4xLDMyLjA3LTUuODksNTEuOC0xMi42JiMxMDsmIzk7JiM5OyYjOTsmIzk7JiM5O0M2NTAuNjEsNDk4LjYyLDY2OC43MSw0ODguMzMsNjgwLjM0LDQ4MC45MiBNNjgwLjM0LDQ1NC4zYzAsMC0yNi4yMywxOS45LTU2LjgsMzAuMjljLTM0Ljk0LDExLjg4LTY2LjQ3LDEzLjkxLTY2LjQ3LDEzLjkxJiMxMDsmIzk7JiM5OyYjOTsmIzk7JiM5O3MtMi4xNiw1NC42Niw2LjAxLDEyMi45NWMxMS40Miw5NS40LDExNy4yNiwxNDEuNzUsMTE3LjI2LDE0MS43NXMxMDUuODQtNDYuMzUsMTE3LjI2LTE0MS43NSYjMTA7JiM5OyYjOTsmIzk7JiM5OyYjOTtjOC4xNy02OC4yOSw2LjAxLTEyMi45NSw2LjAxLTEyMi45NXMtMzEuNTMtMi4wMy02Ni40Ny0xMy45MUM3MDYuNTcsNDc0LjE5LDY4MC4zNCw0NTQuMyw2ODAuMzQsNDU0LjNMNjgwLjM0LDQ1NC4zeiIgY2xhc3M9InN0NSIvPiYjeGE7CQkJPC9nPiYjeGE7CQk8L2c+JiN4YTsJCTxwYXRoIGQ9Ik00MDAuOTEsOTQuMThMODQuNCwzMTUuNDFsMzE2LjUxLDIyMS4yM2wzMTYuNTEtMjIxLjIzTDQwMC45MSw5NC4xOHogTTIzNC4wNywzNDIuNjRsMTUyLjQtMTA2LjUyJiMxMDsmIzk7JiM5OyYjOTtsLTI4LjI4LTE5Ljc3bDk0Ljc4LTguNTVsLTEyLjIzLDY2LjI1bC0yOC4yOC0xOS43N2wtMTUyLjQsMTA2LjUyTDIzNC4wNywzNDIuNjR6IE0zNDQuNzEsNDIwLjE3bDEyLjIzLTY2LjI1bDI4LjI4LDE5Ljc3JiMxMDsmIzk7JiM5OyYjOTtsMTUyLjQtMTA2LjUybDI1Ljk5LDE4LjE3bC0xNTIuNCwxMDYuNTJsMjguMjgsMTkuNzdMMzQ0LjcxLDQyMC4xN3oiIGNsYXNzPSJzdDUiLz4mI3hhOwk8L2c+JiN4YTs8L2c+JiN4YTs8ZyBjbGFzcz0ic3QwIiBpZD0iX3gzM184X3g1Rl9VVE1feEZGMDhf44Or44O844K/44O844Oi44O844OJX3hGRjA5XyI+JiN4YTsJPHBhdGggZD0iTTgxNi42LDQ5Ny45OGMtMC4yNi02LjY1LTUuNTEtMTIuMDMtMTIuMTUtMTIuNDZjLTAuMjktMC4wMi0zMC4zNy0yLjExLTYzLjEyLTEzLjI1JiMxMDsmIzk7JiM5O2MtMS45Mi0wLjY1LTMuODEtMS4zNS01LjY5LTIuMDdWMzE4LjkzYzAtNC4yNS0yLjA3LTguMjItNS41NS0xMC42Nkw0MDguMzksODMuNDJjLTIuMjQtMS41Ni00Ljg0LTIuMzQtNy40NS0yLjM0JiMxMDsmIzk7JiM5O2MtMi42MSwwLTUuMjEsMC43OC03LjQ1LDIuMzRMNzEuODIsMzA4LjI1Yy0zLjQ4LDIuNDMtNS41NSw2LjQxLTUuNTUsMTAuNjZ2MTc5LjQyYzAsNC4yNCwyLjA3LDguMjIsNS41NSwxMC42NWwzMjIsMjI1LjIzJiMxMDsmIzk7JiM5O2MyLjI0LDEuNTYsNC44NCwyLjM1LDcuNDUsMi4zNWMyLjYxLDAsNS4yMS0wLjc4LDcuNDUtMi4zNEw1NTEuOTQsNjM0LjFjMy44OCwxOS43NywxMS43LDM4Ljg0LDIzLjM3LDU2LjgyJiMxMDsmIzk7JiM5O2MxMC45LDE2Ljc5LDI1LjEzLDMyLjY0LDQyLjMsNDcuMTFjMjguOTksMjQuNDQsNTYuMzYsMzYuNTYsNTcuNTEsMzcuMDdjMS42NiwwLjczLDMuNDQsMS4wOSw1LjIxLDEuMDlzMy41NS0wLjM2LDUuMjEtMS4wOSYjMTA7JiM5OyYjOTtjMS4xNS0wLjUsMjguNTItMTIuNjIsNTcuNTEtMzcuMDdjMTcuMTctMTQuNDgsMzEuNC0zMC4zMyw0Mi4zLTQ3LjExYzEzLjg0LTIxLjMyLDIyLjMtNDQuMTgsMjUuMTQtNjcuOTMmIzEwOyYjOTsmIzk7QzgxOC43MSw1NTQuNDYsODE2LjY5LDUwMC4yNiw4MTYuNiw0OTcuOTh6IiBjbGFzcz0ic3Q0Ii8+JiN4YTsJPGcgY2xhc3M9InN0MiI+JiN4YTsJCTxwYXRoIGQ9Ik02MTYuNDYsNTU5LjM3djYzLjcyYzAsNi4xMiwyLjUxLDkuNDgsNy4zLDkuNDhjNC41NiwwLDcuMy0zLjM2LDcuMy05LjQ4di02My43MmgxNS43M3Y2NC40NCYjMTA7JiM5OyYjOTsmIzk7YzAsMTQuMDQtOC4yMSwyMi44LTIzLjAzLDIyLjhjLTE0LjkzLDAtMjMuMTQtOC43Ni0yMy4xNC0yMi44di02NC40NEg2MTYuNDZ6IiBjbGFzcz0ic3Q1Ii8+JiN4YTsJCTxwYXRoIGQ9Ik02OTcuMTcsNTczLjUzaC0xNS4zOXY3MS4wNGgtMTUuNzN2LTcxLjA0aC0xNS4zOXYtMTQuMTZoNDYuNTFWNTczLjUzeiIgY2xhc3M9InN0NSIvPiYjeGE7CQk8cGF0aCBkPSJNNzAxLjczLDU1OS4zN2gyMS4ybDYuODQsNDQuMjhjMC42OCw0LjU2LDEuMjUsOS4yNCwxLjM3LDEyLjQ4aDAuNDZjMC0zLjI0LDAuNjgtNy45MiwxLjI1LTEyLjQ4bDYuNzMtNDQuMjgmIzEwOyYjOTsmIzk7JiM5O2gyMS4zMnY4NS4yaC0xMy42OHYtNDIuODRjMC02Ljg0LDAtMTYuMzIsMC4zNC0yMy4xNmgtMC40NmMtMC40Niw0LjA4LTAuOCw3LjItMS42LDEyLjZsLTguNTUsNTMuNGgtMTEuNGwtOC42Ni01My40JiMxMDsmIzk7JiM5OyYjOTtjLTAuNjgtNS40LTEuMzctMTAuMDgtMS40OC0xMi42aC0wLjU3YzAuMzQsNi44NCwwLjM0LDE2LjMyLDAuMzQsMjMuMTZ2NDIuODRoLTEzLjQ1VjU1OS4zN3oiIGNsYXNzPSJzdDUiLz4mI3hhOwkJPHBvbHlnb24gcG9pbnRzPSIyODAuMzgsNjM5LjE2IDI4MC4zOCw1NjAuNTkgMTgwLjgyLDQ5MC45MiAxODAuODIsNTY5LjUzIiBjbGFzcz0ic3Q1Ii8+JiN4YTsJCTxwb2x5Z29uIHBvaW50cz0iMjQxLjU3LDUyMS4yMyAzOTMuOTQsNjI3Ljg2IDM5My45NCw1NDguNzggMjQxLjU3LDQ0Mi4yIiBjbGFzcz0ic3Q1Ii8+JiN4YTsJCTxwb2x5Z29uIHBvaW50cz0iMjMxLjU3LDUxNC4yMyAyMzEuNTcsNDM1LjIxIDc5LjIxLDMyOC42NCA3OS4yMSw0MDcuNiIgY2xhc3M9InN0NSIvPiYjeGE7CQk8cG9seWdvbiBwb2ludHM9IjE3MC44Miw0ODMuOTIgNzkuMjEsNDE5LjgxIDc5LjIxLDQ5OC40NiAxNzAuODIsNTYyLjUzIiBjbGFzcz0ic3Q1Ii8+JiN4YTsJCTxwb2x5Z29uIHBvaW50cz0iMjkwLjM4LDU2Ny41OSAyOTAuMzgsNjQ2LjE2IDM5My45NCw3MTguNiAzOTMuOTQsNjQwLjA3IiBjbGFzcz0ic3Q1Ii8+JiN4YTsJCTxwb2x5Z29uIHBvaW50cz0iNDk5LjUsNTYzLjg4IDQ5OS41LDQ4NC43IDQwNy44OSw1NDguNzggNDA3Ljg5LDYyNy45OSIgY2xhc3M9InN0NSIvPiYjeGE7CQk8cGF0aCBkPSJNNzIyLjYyLDQ2NC41M3YtNDQuNmwtMzQuMzcsMjQuMDVDNjg5LjI2LDQ0NC43Myw3MDMuNjUsNDU1LjM4LDcyMi42Miw0NjQuNTN6IiBjbGFzcz0ic3Q1Ii8+JiN4YTsJCTxwYXRoIGQ9Ik01NDQuMjgsNTQ0Ljc1bC0xMzYuMzksOTUuNDV2NzguNGwxNDEuODYtOTkuMjNDNTQ2LjQ4LDU5MC45Nyw1NDQuOTUsNTY1LjE4LDU0NC4yOCw1NDQuNzV6IiBjbGFzcz0ic3Q1Ii8+JiN4YTsJCTxwYXRoIGQ9Ik01NDQuMDksNDk3Ljk4YzAuMjYtNi42NCw1LjUxLTEyLjAyLDEyLjE0LTEyLjQ2YzAuMjctMC4wMiwyNC4zMy0xLjcsNTIuODMtMTB2LTY3LjQ1bC05OS41Niw2OS42NHY3OS4xNyYjMTA7JiM5OyYjOTsmIzk7bDM0LjQ2LTI0LjEyQzU0My41Niw1MTIuMDQsNTQ0LjA0LDQ5OS4wNyw1NDQuMDksNDk3Ljk4eiIgY2xhc3M9InN0NSIvPiYjeGE7CQk8cGF0aCBkPSJNNjE5LjM2LDQ3Mi4yOGMxMi4wMi00LjA5LDIzLjQyLTkuODIsMzIuNTYtMTUuMDdsNzAuNy00OS40OHYtNzkuMDlsLTEwMy41Nyw3Mi40NHY3MS4zJiMxMDsmIzk7JiM5OyYjOTtDNjE5LjE2LDQ3Mi4zNSw2MTkuMjYsNDcyLjMxLDYxOS4zNiw0NzIuMjh6IiBjbGFzcz0ic3Q1Ii8+JiN4YTsJCTxnPiYjeGE7CQkJPGc+JiN4YTsJCQkJPHBhdGggZD0iTTY4MC4zNCw0ODAuOTJjMTEuNjMsNy40MSwyOS43NCwxNy43LDQ5LjcyLDI0LjQ5YzE5LjczLDYuNzEsMzguMzksMTAuNSw1MS43OSwxMi42JiMxMDsmIzk7JiM5OyYjOTsmIzk7JiM5O2MtMC4wNSwyMS4yMi0xLjAzLDU4LjQ4LTYuMSwxMDAuODFjLTIuMTgsMTguMTktOC43LDM1Ljg1LTE5LjQsNTIuNDljLTguODcsMTMuODEtMjAuNjQsMjYuOTktMzQuOTYsMzkuMiYjMTA7JiM5OyYjOTsmIzk7JiM5OyYjOTtjLTE1Ljk3LDEzLjYxLTMxLjY2LDIzLTQxLjA2LDI4LjA3Yy05LjQxLTUuMDgtMjUuMDktMTQuNDctNDEuMDYtMjguMDdjLTE0LjMyLTEyLjIxLTI2LjA5LTI1LjM5LTM0Ljk2LTM5LjImIzEwOyYjOTsmIzk7JiM5OyYjOTsmIzk7Yy0xMC42OS0xNi42My0xNy4yMi0zNC4yOS0xOS40LTUyLjQ5Yy01LjA3LTQyLjM0LTYuMDUtNzkuNTktNi4xLTEwMC44MWMxMy40LTIuMSwzMi4wNy01Ljg5LDUxLjgtMTIuNiYjMTA7JiM5OyYjOTsmIzk7JiM5OyYjOTtDNjUwLjYxLDQ5OC42Miw2NjguNzEsNDg4LjMzLDY4MC4zNCw0ODAuOTIgTTY4MC4zNCw0NTQuM2MwLDAtMjYuMjMsMTkuOS01Ni44LDMwLjI5Yy0zNC45NCwxMS44OC02Ni40NywxMy45MS02Ni40NywxMy45MSYjMTA7JiM5OyYjOTsmIzk7JiM5OyYjOTtzLTIuMTYsNTQuNjYsNi4wMSwxMjIuOTVjMTEuNDIsOTUuNCwxMTcuMjYsMTQxLjc1LDExNy4yNiwxNDEuNzVzMTA1Ljg0LTQ2LjM1LDExNy4yNi0xNDEuNzUmIzEwOyYjOTsmIzk7JiM5OyYjOTsmIzk7YzguMTctNjguMjksNi4wMS0xMjIuOTUsNi4wMS0xMjIuOTVzLTMxLjUzLTIuMDMtNjYuNDctMTMuOTFDNzA2LjU3LDQ3NC4xOSw2ODAuMzQsNDU0LjMsNjgwLjM0LDQ1NC4zTDY4MC4zNCw0NTQuM3oiIGNsYXNzPSJzdDUiLz4mI3hhOwkJCTwvZz4mI3hhOwkJPC9nPiYjeGE7CQk8cGF0aCBkPSJNNDAwLjkxLDk0LjE4TDg0LjQsMzE1LjQxbDMxNi41MSwyMjEuMjNsMzE2LjUxLTIyMS4yM0w0MDAuOTEsOTQuMTh6IE0yMDIuODEsMzIwLjcybDE1Mi40LTEwNi41MiYjMTA7JiM5OyYjOTsmIzk7bC0yOC4yOC0xOS43N2w5NC43OC04LjU1bC0xMi4yMyw2Ni4yNWwtMjguMjgtMTkuNzdMMjI4LjgsMzM4Ljg5TDIwMi44MSwzMjAuNzJ6IE0zMTAuMjEsMzIwLjk5bDI4LjI4LDE5Ljc3bDE1Mi40LTEwNi41MiYjMTA7JiM5OyYjOTsmIzk7bDI1Ljk5LDE4LjE3bC0xNTIuNCwxMDYuNTJsMjguMjgsMTkuNzdsLTk0Ljc4LDguNTVMMzEwLjIxLDMyMC45OXogTTU0NS41NCwzNDcuMjRsLTE1Mi40LDEwNi41MmwtMjUuOTktMTguMTdsMTUyLjQtMTA2LjUyJiMxMDsmIzk7JiM5OyYjOTtsLTI4LjI4LTE5Ljc3bDk0Ljc4LTguNTVsLTEyLjIzLDY2LjI1TDU0NS41NCwzNDcuMjR6IiBjbGFzcz0ic3Q1Ii8+JiN4YTsJPC9nPiYjeGE7PC9nPiYjeGE7PGcgY2xhc3M9InN0MCIgaWQ9Il94MzNfOV94NUZfRmlyZXdhbGxfeEZGMDhf44OW44Oq44OD44K444Oi44O844OJX3hGRjA5XyI+JiN4YTsJPHBhdGggZD0iTTczNS45Myw0OTguMjJjLTAuMDMtMC43OC0wLjEyLTEuNTYtMC4yOS0yLjMzVjMxOC45M2MwLTQuMjUtMi4wNy04LjIyLTUuNTUtMTAuNjZMNDA4LjM5LDgzLjQyJiMxMDsmIzk7JiM5O2MtMi4yNC0xLjU2LTQuODQtMi4zNC03LjQ1LTIuMzRjLTIuNjEsMC01LjIxLDAuNzgtNy40NSwyLjM0TDcxLjgyLDMwOC4yNWMtMy40OCwyLjQzLTUuNTUsNi40MS01LjU1LDEwLjY2djE3OS40MiYjMTA7JiM5OyYjOTtjMCw0LjI0LDIuMDcsOC4yMiw1LjU1LDEwLjY1bDMyMiwyMjUuMjNjMi4yNCwxLjU2LDQuODQsMi4zNSw3LjQ1LDIuMzVjMi42MSwwLDUuMjEtMC43OCw3LjQ1LTIuMzRsMTM1LjcxLTk0Ljg1JiMxMDsmIzk7JiM5O2M1LjUxLDEwLjU4LDEyLjY2LDIwLjM4LDIxLjM0LDI5LjA2YzIyLjI5LDIyLjI5LDUxLjkyLDM0LjU2LDgzLjQ0LDM0LjU2czYxLjE1LTEyLjI3LDgzLjQ0LTM0LjU2JiMxMDsmIzk7JiM5O2MyMi4yOS0yMi4yOSwzNC41Ni01MS45MiwzNC41Ni04My40NEM3NjcuMjIsNTQ2LjMxLDc1Mi40Niw1MjAuMTEsNzM1LjkzLDQ5OC4yMnoiIGNsYXNzPSJzdDQiLz4mI3hhOwk8ZyBjbGFzcz0ic3QyIj4mI3hhOwkJPGc+JiN4YTsJCQk8cGF0aCBkPSJNNDAwLjkxLDk0LjE4TDg0LjQsMzE1LjQxbDMxNi41MSwyMjEuMjNsMzE2LjUxLTIyMS4yM0w0MDAuOTEsOTQuMTh6IE0yMzQuMDcsMzQyLjY0bDE1Mi40LTEwNi41MiYjMTA7JiM5OyYjOTsmIzk7JiM5O2wtMjguMjgtMTkuNzdsOTQuNzgtOC41NWwtMTIuMjMsNjYuMjVsLTI4LjI4LTE5Ljc3bC0xNTIuNCwxMDYuNTJMMjM0LjA3LDM0Mi42NHogTTM0NC43MSw0MjAuMTdsMTIuMjMtNjYuMjVsMjguMjgsMTkuNzcmIzEwOyYjOTsmIzk7JiM5OyYjOTtsMTUyLjQtMTA2LjUybDI1Ljk5LDE4LjE3bC0xNTIuNCwxMDYuNTJsMjguMjgsMTkuNzdMMzQ0LjcxLDQyMC4xN3oiIGNsYXNzPSJzdDUiLz4mI3hhOwkJCTxnPiYjeGE7CQkJCTxwb2x5Z29uIHBvaW50cz0iMjMxLjU3LDUxNC4yMyAyMzEuNTcsNDM1LjIxIDc5LjIxLDMyOC42NCA3OS4yMSw0MDcuNiIgY2xhc3M9InN0NSIvPiYjeGE7CQkJCTxwb2x5Z29uIHBvaW50cz0iMjQxLjU3LDUyMS4yMyAzOTMuOTQsNjI3Ljg2IDM5My45NCw1NDguNzggMjQxLjU3LDQ0Mi4yIiBjbGFzcz0ic3Q1Ii8+JiN4YTsJCQkJPHBvbHlnb24gcG9pbnRzPSIyODAuMzgsNjM5LjE2IDI4MC4zOCw1NjAuNTkgMTgwLjgyLDQ5MC45MiAxODAuODIsNTY5LjUzIiBjbGFzcz0ic3Q1Ii8+JiN4YTsJCQkJPHBvbHlnb24gcG9pbnRzPSIyOTAuMzgsNTY3LjU5IDI5MC4zOCw2NDYuMTYgMzkzLjk0LDcxOC42IDM5My45NCw2NDAuMDciIGNsYXNzPSJzdDUiLz4mI3hhOwkJCQk8cG9seWdvbiBwb2ludHM9IjE3MC44Miw0ODMuOTIgNzkuMjEsNDE5LjgxIDc5LjIxLDQ5OC40NiAxNzAuODIsNTYyLjUzIiBjbGFzcz0ic3Q1Ii8+JiN4YTsJCQkJPHBvbHlnb24gcG9pbnRzPSI0OTkuNSw1NjMuODggNDk5LjUsNDg0LjcgNDA3Ljg5LDU0OC43OCA0MDcuODksNjI3Ljk5IiBjbGFzcz0ic3Q1Ii8+JiN4YTsJCQkJPHBhdGggZD0iTTcyMi40Myw0ODEuMjljMC4wNywwLjA4LDAuMTMsMC4xNiwwLjIsMC4yNHYtNjEuNmwtMjguMjcsMTkuNzgmIzEwOyYjOTsmIzk7JiM5OyYjOTsmIzk7QzcwMC41Nyw0NTQuNjUsNzExLjAxLDQ2Ny4zOCw3MjIuNDMsNDgxLjI5eiIgY2xhc3M9InN0NSIvPiYjeGE7CQkJCTxwYXRoIGQ9Ik01MzEuMjEsNTg0Ljk3YzAtMTEuNzgsMS43Ni0yMy40Nyw1LjE2LTM0LjY5bC0xMjguNDgsODkuOTF2NzguNGwxMzAuOTktOTEuNjImIzEwOyYjOTsmIzk7JiM5OyYjOTsmIzk7QzUzMy44NCw2MTMuNzQsNTMxLjIxLDU5OS41Niw1MzEuMjEsNTg0Ljk3eiIgY2xhc3M9InN0NSIvPiYjeGE7CQkJCTxwYXRoIGQ9Ik01NDcuNDcsNTI0Ljc2YzEwLjQtMTcuOSwyNS4xNy0zMi43NCw0Mi43MS00Mi45MWMyLjAyLTEuMTcsNC4yNy0xLjc1LDYuNTItMS43NSYjMTA7JiM5OyYjOTsmIzk7JiM5OyYjOTtjMi4yNCwwLDQuNDgsMC41OCw2LjQ5LDEuNzRjMi4zNiwxLjM2LDQuMTgsMy4zOSw1LjI5LDUuNzhsMC41Ny0wLjR2LTc5LjEzbC05OS41Niw2OS42NHY3OS4xN2wzMy4zNy0yMy4zNSYjMTA7JiM5OyYjOTsmIzk7JiM5OyYjOTtDNTQ0LjI4LDUzMC41NSw1NDUuODEsNTI3LjYyLDU0Ny40Nyw1MjQuNzZ6IiBjbGFzcz0ic3Q1Ii8+JiN4YTsJCQkJPHBhdGggZD0iTTYzMC43Miw0MzguNjdjOS43LTE3LjQ5LDIyLjU3LTMwLjkzLDM4LjI2LTM5Ljk3YzIuMDEtMS4xNiw0LjI1LTEuNzQsNi40OS0xLjc0JiMxMDsmIzk7JiM5OyYjOTsmIzk7JiM5O2MyLjI1LDAsNC40OSwwLjU4LDYuNTEsMS43NGM0LjAyLDIuMzIsNi41LDYuNjEsNi41LDExLjI2YzAsNy4xOSwwLjkyLDEzLjc1LDIuNTUsMTkuODlsMzEuNjEtMjIuMTJ2LTc5LjA5bC0xMDMuNTcsNzIuNDQmIzEwOyYjOTsmIzk7JiM5OyYjOTsmIzk7djY1LjI0QzYyMi4yLDQ1Ni4yNSw2MjYuMSw0NDcsNjMwLjcyLDQzOC42N3oiIGNsYXNzPSJzdDUiLz4mI3hhOwkJCTwvZz4mI3hhOwkJPC9nPiYjeGE7CQk8Zz4mI3hhOwkJCTxwYXRoIGQ9Ik02NzUuNDYsNDA5Ljk2Yy01OS42NywzNC4zOC01Mi41LDEzMS4yNi01Mi41LDEzMS4yNnMtMjYuMjUtOC43NS0yNi4yNS00OC4xMyYjMTA7JiM5OyYjOTsmIzk7JiM5O2MtMzEuMzIsMTguMTYtNTIuNSw1My4wNy01Mi41LDkxLjg4YzAsNTcuOTksNDcuMDEsMTA1LjAxLDEwNS4wMSwxMDUuMDFjNTcuOTksMCwxMDUuMDEtNDcuMDEsMTA1LjAxLTEwNS4wMSYjMTA7JiM5OyYjOTsmIzk7JiM5O0M3NTQuMjIsNDk5LjY1LDY3NS40Niw0ODIuMTUsNjc1LjQ2LDQwOS45Nkw2NzUuNDYsNDA5Ljk2eiBNNjg0Ljk2LDYzOS40OGMtMTQuMDgsMTMuNi0zNi41MSwxMy4yLTUwLjExLTAuODcmIzEwOyYjOTsmIzk7JiM5OyYjOTtjLTEzLjYtMTQuMDgtMTMuMjEtMzYuNTIsMC44Ny01MC4xMWMzMy45OS0zMi44MiwyNi4wOC01OC4wMiwyNi4wOC01OC4wMlM3MjcuNDUsNTk4LjQ1LDY4NC45Niw2MzkuNDhMNjg0Ljk2LDYzOS40OHomIzEwOyYjOTsmIzk7JiM5OyYjOTsgTTY1OC40NCw2NTQuMiIgY2xhc3M9InN0NSIvPiYjeGE7CQk8L2c+JiN4YTsJPC9nPiYjeGE7PC9nPiYjeGE7PGcgY2xhc3M9InN0MCIgaWQ9Il94MzRfMF94NUZfRmlyZXdhbGxfeEZGMDhf44Or44O844K/44O844Oi44O844OJX3hGRjA5XyI+JiN4YTsJPHBhdGggZD0iTTczNS45Myw0OTguMjJjLTAuMDMtMC43OC0wLjEyLTEuNTYtMC4yOS0yLjMzVjMxOC45M2MwLTQuMjUtMi4wNy04LjIyLTUuNTUtMTAuNjZMNDA4LjM5LDgzLjQyJiMxMDsmIzk7JiM5O2MtMi4yNC0xLjU2LTQuODQtMi4zNC03LjQ1LTIuMzRjLTIuNjEsMC01LjIxLDAuNzgtNy40NSwyLjM0TDcxLjgyLDMwOC4yNWMtMy40OCwyLjQzLTUuNTUsNi40MS01LjU1LDEwLjY2djE3OS40MiYjMTA7JiM5OyYjOTtjMCw0LjI0LDIuMDcsOC4yMiw1LjU1LDEwLjY1bDMyMiwyMjUuMjNjMi4yNCwxLjU2LDQuODQsMi4zNSw3LjQ1LDIuMzVjMi42MSwwLDUuMjEtMC43OCw3LjQ1LTIuMzRsMTM1LjcxLTk0Ljg1JiMxMDsmIzk7JiM5O2M1LjUxLDEwLjU4LDEyLjY2LDIwLjM4LDIxLjM0LDI5LjA2YzIyLjI5LDIyLjI5LDUxLjkyLDM0LjU2LDgzLjQ0LDM0LjU2czYxLjE1LTEyLjI3LDgzLjQ0LTM0LjU2JiMxMDsmIzk7JiM5O2MyMi4yOS0yMi4yOSwzNC41Ni01MS45MiwzNC41Ni04My40NEM3NjcuMjIsNTQ2LjMxLDc1Mi40Niw1MjAuMTEsNzM1LjkzLDQ5OC4yMnoiIGNsYXNzPSJzdDQiLz4mI3hhOwk8ZyBjbGFzcz0ic3QyIj4mI3hhOwkJPGc+JiN4YTsJCQk8cG9seWdvbiBwb2ludHM9IjIzMS41Nyw1MTQuMjMgMjMxLjU3LDQzNS4yMSA3OS4yMSwzMjguNjQgNzkuMjEsNDA3LjYiIGNsYXNzPSJzdDUiLz4mI3hhOwkJCTxwb2x5Z29uIHBvaW50cz0iMjQxLjU3LDUyMS4yMyAzOTMuOTQsNjI3Ljg2IDM5My45NCw1NDguNzggMjQxLjU3LDQ0Mi4yIiBjbGFzcz0ic3Q1Ii8+JiN4YTsJCQk8cG9seWdvbiBwb2ludHM9IjI4MC4zOCw2MzkuMTYgMjgwLjM4LDU2MC41OSAxODAuODIsNDkwLjkyIDE4MC44Miw1NjkuNTMiIGNsYXNzPSJzdDUiLz4mI3hhOwkJCTxwb2x5Z29uIHBvaW50cz0iMjkwLjM4LDU2Ny41OSAyOTAuMzgsNjQ2LjE2IDM5My45NCw3MTguNiAzOTMuOTQsNjQwLjA3IiBjbGFzcz0ic3Q1Ii8+JiN4YTsJCQk8cG9seWdvbiBwb2ludHM9IjE3MC44Miw0ODMuOTIgNzkuMjEsNDE5LjgxIDc5LjIxLDQ5OC40NiAxNzAuODIsNTYyLjUzIiBjbGFzcz0ic3Q1Ii8+JiN4YTsJCQk8cG9seWdvbiBwb2ludHM9IjQ5OS41LDU2My44OCA0OTkuNSw0ODQuNyA0MDcuODksNTQ4Ljc4IDQwNy44OSw2MjcuOTkiIGNsYXNzPSJzdDUiLz4mI3hhOwkJCTxwYXRoIGQ9Ik03MjIuNDMsNDgxLjI5YzAuMDcsMC4wOCwwLjEzLDAuMTYsMC4yLDAuMjR2LTYxLjZsLTI4LjI3LDE5Ljc4QzcwMC41Nyw0NTQuNjUsNzExLjAxLDQ2Ny4zOCw3MjIuNDMsNDgxLjI5JiMxMDsmIzk7JiM5OyYjOTsmIzk7eiIgY2xhc3M9InN0NSIvPiYjeGE7CQkJPHBhdGggZD0iTTUzMS4yMSw1ODQuOTdjMC0xMS43OCwxLjc2LTIzLjQ3LDUuMTYtMzQuNjlsLTEyOC40OCw4OS45MXY3OC40bDEzMC45OS05MS42MiYjMTA7JiM5OyYjOTsmIzk7JiM5O0M1MzMuODQsNjEzLjc0LDUzMS4yMSw1OTkuNTYsNTMxLjIxLDU4NC45N3oiIGNsYXNzPSJzdDUiLz4mI3hhOwkJCTxwYXRoIGQ9Ik01NDcuNDcsNTI0Ljc2YzEwLjQtMTcuOSwyNS4xNy0zMi43NCw0Mi43MS00Mi45MWMyLjAyLTEuMTcsNC4yNy0xLjc1LDYuNTItMS43NSYjMTA7JiM5OyYjOTsmIzk7JiM5O2MyLjI0LDAsNC40OCwwLjU4LDYuNDksMS43NGMyLjM2LDEuMzYsNC4xOCwzLjM5LDUuMjksNS43OGwwLjU3LTAuNHYtNzkuMTNsLTk5LjU2LDY5LjY0djc5LjE3bDMzLjM3LTIzLjM1JiMxMDsmIzk7JiM5OyYjOTsmIzk7QzU0NC4yOCw1MzAuNTUsNTQ1LjgxLDUyNy42Miw1NDcuNDcsNTI0Ljc2eiIgY2xhc3M9InN0NSIvPiYjeGE7CQkJPHBhdGggZD0iTTYzMC43Miw0MzguNjdjOS43LTE3LjQ5LDIyLjU3LTMwLjkzLDM4LjI2LTM5Ljk3YzIuMDEtMS4xNiw0LjI1LTEuNzQsNi40OS0xLjc0JiMxMDsmIzk7JiM5OyYjOTsmIzk7YzIuMjUsMCw0LjQ5LDAuNTgsNi41MSwxLjc0YzQuMDIsMi4zMiw2LjUsNi42MSw2LjUsMTEuMjZjMCw3LjE5LDAuOTIsMTMuNzUsMi41NSwxOS44OWwzMS42MS0yMi4xMnYtNzkuMDlsLTEwMy41Nyw3Mi40NHY2NS4yNCYjMTA7JiM5OyYjOTsmIzk7JiM5O0M2MjIuMiw0NTYuMjUsNjI2LjEsNDQ3LDYzMC43Miw0MzguNjd6IiBjbGFzcz0ic3Q1Ii8+JiN4YTsJCTwvZz4mI3hhOwkJPGc+JiN4YTsJCQk8cGF0aCBkPSJNNjc1LjQ2LDQwOS45NmMtNTkuNjcsMzQuMzgtNTIuNSwxMzEuMjYtNTIuNSwxMzEuMjZzLTI2LjI1LTguNzUtMjYuMjUtNDguMTMmIzEwOyYjOTsmIzk7JiM5OyYjOTtjLTMxLjMyLDE4LjE2LTUyLjUsNTMuMDctNTIuNSw5MS44OGMwLDU3Ljk5LDQ3LjAxLDEwNS4wMSwxMDUuMDEsMTA1LjAxYzU3Ljk5LDAsMTA1LjAxLTQ3LjAxLDEwNS4wMS0xMDUuMDEmIzEwOyYjOTsmIzk7JiM5OyYjOTtDNzU0LjIyLDQ5OS42NSw2NzUuNDYsNDgyLjE1LDY3NS40Niw0MDkuOTZMNjc1LjQ2LDQwOS45NnogTTY4NC45Niw2MzkuNDhjLTE0LjA4LDEzLjYtMzYuNTEsMTMuMi01MC4xMS0wLjg3JiMxMDsmIzk7JiM5OyYjOTsmIzk7Yy0xMy42LTE0LjA4LTEzLjIxLTM2LjUyLDAuODctNTAuMTFjMzMuOTktMzIuODIsMjYuMDgtNTguMDIsMjYuMDgtNTguMDJTNzI3LjQ1LDU5OC40NSw2ODQuOTYsNjM5LjQ4TDY4NC45Niw2MzkuNDh6JiMxMDsmIzk7JiM5OyYjOTsmIzk7IE02NTguNDQsNjU0LjIiIGNsYXNzPSJzdDUiLz4mI3hhOwkJPC9nPiYjeGE7CQk8cGF0aCBkPSJNNDAwLjkxLDk0LjE4TDg0LjQsMzE1LjQxbDMxNi41MSwyMjEuMjNsMzE2LjUxLTIyMS4yM0w0MDAuOTEsOTQuMTh6IE0yMDIuODEsMzIwLjcybDE1Mi40LTEwNi41MiYjMTA7JiM5OyYjOTsmIzk7bC0yOC4yOC0xOS43N2w5NC43OC04LjU1bC0xMi4yMyw2Ni4yNWwtMjguMjgtMTkuNzdMMjI4LjgsMzM4Ljg5TDIwMi44MSwzMjAuNzJ6IE0zMTAuMjEsMzIwLjk5bDI4LjI4LDE5Ljc3bDE1Mi40LTEwNi41MiYjMTA7JiM5OyYjOTsmIzk7bDI1Ljk5LDE4LjE3bC0xNTIuNCwxMDYuNTJsMjguMjgsMTkuNzdsLTk0Ljc4LDguNTVMMzEwLjIxLDMyMC45OXogTTU0NS41NCwzNDcuMjRsLTE1Mi40LDEwNi41MmwtMjUuOTktMTguMTdsMTUyLjQtMTA2LjUyJiMxMDsmIzk7JiM5OyYjOTtsLTI4LjI4LTE5Ljc3bDk0Ljc4LTguNTVsLTEyLjIzLDY2LjI1TDU0NS41NCwzNDcuMjR6IiBjbGFzcz0ic3Q1Ii8+JiN4YTsJPC9nPiYjeGE7PC9nPiYjeGE7PGcgY2xhc3M9InN0MCIgaWQ9Il94MzRfMV94NUZfUG9F57Wm6Zu7Ij4mI3hhOwk8ZyBjbGFzcz0ic3QyIj4mI3hhOwkJPHBhdGggZD0iTTQxNSwxMzQuNDNjLTM3Ljg1LDAtNzQuNiw3LjQzLTEwOS4yMywyMi4wN2MtMzMuNDIsMTQuMTMtNjMuNDIsMzQuMzYtODkuMTcsNjAuMTEmIzEwOyYjOTsmIzk7JiM5O2MtMjUuNzUsMjUuNzUtNDUuOTcsNTUuNzUtNjAuMSw4OS4xN2MtMTQuNjUsMzQuNjMtMjIuMDcsNzEuMzgtMjIuMDcsMTA5LjIzYzAsMzcuODUsNy40Myw3NC42LDIyLjA3LDEwOS4yMyYjMTA7JiM5OyYjOTsmIzk7YzE0LjEzLDMzLjQyLDM0LjM2LDYzLjQyLDYwLjEsODkuMTdjMjUuNzUsMjUuNzUsNTUuNzUsNDUuOTcsODkuMTcsNjAuMWMzNC42MywxNC42NSw3MS4zOCwyMi4wNywxMDkuMjMsMjIuMDcmIzEwOyYjOTsmIzk7JiM5O3M3NC42LTcuNDMsMTA5LjIzLTIyLjA3YzMzLjQyLTE0LjEzLDYzLjQyLTM0LjM2LDg5LjE3LTYwLjFjMjUuNzUtMjUuNzUsNDUuOTctNTUuNzUsNjAuMS04OS4xNyYjMTA7JiM5OyYjOTsmIzk7YzE0LjY1LTM0LjYzLDIyLjA3LTcxLjM4LDIyLjA3LTEwOS4yM2MwLTM3Ljg1LTcuNDMtNzQuNi0yMi4wNy0xMDkuMjNjLTE0LjEzLTMzLjQyLTM0LjM2LTYzLjQyLTYwLjEtODkuMTcmIzEwOyYjOTsmIzk7JiM5O2MtMjUuNzUtMjUuNzUtNTUuNzUtNDUuOTctODkuMTctNjAuMTFDNDg5LjYsMTQxLjg1LDQ1Mi44NSwxMzQuNDMsNDE1LDEzNC40M0w0MTUsMTM0LjQzeiIgY2xhc3M9InN0NiIvPiYjeGE7CTwvZz4mI3hhOwk8ZyBjbGFzcz0ic3QyIj4mI3hhOwkJPHBhdGggZD0iTTY2MS41MywzMTAuODNjLTEzLjQ4LTMxLjg3LTMyLjc3LTYwLjQ4LTU3LjMyLTg1LjA0Yy0yNC41Ni0yNC41Ni01My4xNy00My44NS04NS4wNC01Ny4zMiYjMTA7JiM5OyYjOTsmIzk7Yy0zMy4wMi0xMy45Ni02OC4wNi0yMS4wNS0xMDQuMTctMjEuMDVjLTM2LjEsMC03MS4xNSw3LjA4LTEwNC4xNywyMS4wNWMtMzEuODcsMTMuNDgtNjAuNDgsMzIuNzctODUuMDQsNTcuMzImIzEwOyYjOTsmIzk7JiM5O2MtMjQuNTYsMjQuNTYtNDMuODUsNTMuMTctNTcuMzIsODUuMDRjLTEzLjk3LDMzLjAyLTIxLjA1LDY4LjA2LTIxLjA1LDEwNC4xN3M3LjA4LDcxLjE1LDIxLjA1LDEwNC4xNyYjMTA7JiM5OyYjOTsmIzk7YzEzLjQ4LDMxLjg3LDMyLjc3LDYwLjQ4LDU3LjMyLDg1LjA0YzI0LjU2LDI0LjU2LDUzLjE3LDQzLjg1LDg1LjA0LDU3LjMyYzMzLjAyLDEzLjk3LDY4LjA2LDIxLjA1LDEwNC4xNywyMS4wNSYjMTA7JiM5OyYjOTsmIzk7YzM2LjEsMCw3MS4xNS03LjA4LDEwNC4xNy0yMS4wNWMzMS44Ny0xMy40OCw2MC40OC0zMi43Nyw4NS4wNC01Ny4zMmMyNC41Ni0yNC41Niw0My44NS01My4xNyw1Ny4zMi04NS4wNCYjMTA7JiM5OyYjOTsmIzk7YzEzLjk3LTMzLjAyLDIxLjA1LTY4LjA2LDIxLjA1LTEwNC4xN1M2NzUuNDksMzQzLjg1LDY2MS41MywzMTAuODN6IE00MTUsNjM2LjU3Yy0xMjIuMzcsMC0yMjEuNTctOTkuMi0yMjEuNTctMjIxLjU3JiMxMDsmIzk7JiM5OyYjOTtTMjkyLjYzLDE5My40Myw0MTUsMTkzLjQzUzYzNi41NywyOTIuNjMsNjM2LjU3LDQxNVM1MzcuMzcsNjM2LjU3LDQxNSw2MzYuNTd6IiBjbGFzcz0ic3Q1Ii8+JiN4YTsJCTxnPiYjeGE7CQkJPGc+JiN4YTsJCQkJPHBhdGggZD0iTTM2NC43NywzNzAuNDF2MTQuNzVjMCwzMS43NS0xNy41LDQ5LjI1LTQ5LjI1LDQ5LjI1aC0xNC43NXY2OGgtMzQuNzV2LTE3Ny41aDQ4Ljc1JiMxMDsmIzk7JiM5OyYjOTsmIzk7JiM5O0MzNDcuNzcsMzI0LjkxLDM2NC41MiwzNDAuNDEsMzY0Ljc3LDM3MC40MXogTTMyOS4wMiwzNzEuNjZjMC0xNi01LjUtMjIuNzUtMTcuNzUtMjIuNzVoLTEwLjV2NjFoMTAuNSYjMTA7JiM5OyYjOTsmIzk7JiM5OyYjOTtjMTIuMjUsMCwxNy43NS03LjUsMTcuNzUtMjUuMjVWMzcxLjY2eiIgY2xhc3M9InN0NSIvPiYjeGE7CQkJCTxwYXRoIGQ9Ik0zNjkuNTIsNDU4LjE2di0zNi41YzAtMzEsMTcuNS00Ny4yNSw0Ni4yNS00Ny4yNWMyOSwwLDQ2LjUsMTYuMjUsNDYuNSw0Ny4yNXYzNi41JiMxMDsmIzk7JiM5OyYjOTsmIzk7JiM5O2MwLDMxLTE3LjUsNDcuMjUtNDYuNSw0Ny4yNUMzODcuMDIsNTA1LjQxLDM2OS41Miw0ODkuMTYsMzY5LjUyLDQ1OC4xNnogTTQyOC4wMiw0NjEuNjZ2LTQzLjVjMC0xNC43NS00LTIwLjc1LTEyLjI1LTIwLjc1JiMxMDsmIzk7JiM5OyYjOTsmIzk7JiM5O2MtOCwwLTEyLDYtMTIsMjAuNzV2NDMuNWMwLDE0Ljc1LDQsMjAuNzUsMTIsMjAuNzVDNDI0LjAyLDQ4Mi40MSw0MjguMDIsNDc2LjQxLDQyOC4wMiw0NjEuNjZ6IiBjbGFzcz0ic3Q1Ii8+JiN4YTsJCQkJPHBhdGggZD0iTTU2Mi4yNiw0NzUuNjZ2MjYuNzVoLTgyLjc1di0xNzcuNWg4MXYyNi43NWgtNDYuMjV2NDZoNDIuNzV2MjYuNzVoLTQyLjc1djUxLjI1SDU2Mi4yNnoiIGNsYXNzPSJzdDUiLz4mI3hhOwkJCTwvZz4mI3hhOwkJPC9nPiYjeGE7CTwvZz4mI3hhOzwvZz4mI3hhOzxnIGNsYXNzPSJzdDAiIGlkPSJfeDM0XzJfeDVGX1BvReOCpOODs+OCuOOCp+OCr+OCv+ODvCI+JiN4YTsJPGcgY2xhc3M9InN0MiI+JiN4YTsJCTxwYXRoIGQ9Ik0zMTQuNzYsNTMuMjlDMzE0Ljc2LDUzLjI5LDMxNC43Niw1My4yOSwzMTQuNzYsNTMuMjljLTMuNywwLTcuMjcsMS4xMi0xMC4zMSwzLjI0TDI4NS4yLDcwbC05LjcyLTYuOCYjMTA7JiM5OyYjOTsmIzk7Yy0yLjI0LTEuNTYtNC44NC0yLjM0LTcuNDUtMi4zNHMtNS4yMSwwLjc4LTcuNDUsMi4zNGwtNjEuMzcsNDIuODljLTMuNzMsMi4zNy02LjAzLDYuNDktNi4wMywxMC45NnYyNy43NCYjMTA7JiM5OyYjOTsmIzk7YzAsNC4yNCwyLjA3LDguMjIsNS41NSwxMC42NWwyLjgsMS45NmMtMTEuNDYsNy42LTIzLjEzLDE1LjQ2LTMwLjU2LDIwLjc2Yy0xOC4zNSwxMy4wOS0yOS4yNywzMS4yNS0yOS45Nyw0OS44MiYjMTA7JiM5OyYjOTsmIzk7Yy0wLjYxLDE2LjI3LDYuNjEsMzEuNTIsMjAuMzIsNDIuOTVjMTQuMiwxMS44MywzMy4zMiwxOC4zNSw1My44NSwxOC4zNWMxOS41MiwwLDM5LjA3LTUuNjQsNTYuNTMtMTYuMzEmIzEwOyYjOTsmIzk7JiM5O2MxMi40OS03LjYzLDk5Ljk5LTY3LjA0LDEwOS45My03My43OWMwLjAzLTAuMDIsMC4wNi0wLjA0LDAuMDktMC4wNmMwLjIxLTAuMTUsMjUuNDQtMTcuNTMsNjMuNDktNDMuNDcmIzEwOyYjOTsmIzk7JiM5O2MyNC43NS0xNi44Nyw0Ni43LTI1LjA4LDY3LjExLTI1LjA4YzE2LjI0LDAsMzEuNzksNS4yMSw0Ny41NCwxNS45MmMxNy41NCwxMS45MywyNi40OSwyNC4yOCwyNi42MywzNi43MSYjMTA7JiM5OyYjOTsmIzk7YzAuMTYsMTQuNjItMTEuNSwyOC4zNS0yMS44MSwzNS45MmwtNzQuODgtNTIuMzZjLTIuMjQtMS41Ni00Ljg0LTIuMzUtNy40NS0yLjM1Yy0yLjYxLDAtNS4yMSwwLjc4LTcuNDUsMi4zNUwxMjAuNzgsNDE0LjMxJiMxMDsmIzk7JiM5OyYjOTtjLTMuNDgsMi40My01LjU1LDYuNDEtNS41NSwxMC42NXYxNjMuMThjMCw0LjI0LDIuMDcsOC4yMiw1LjU1LDEwLjY1bDE5NS43NywxMzYuODljMi4yNCwxLjU2LDQuODQsMi4zNSw3LjQ1LDIuMzUmIzEwOyYjOTsmIzk7JiM5O2MyLjYxLDAsNS4yMS0wLjc4LDcuNDUtMi4zNWwyMTEuMTItMTQ3LjU4YzAuMDksMzgsMTQuOTIsNzMuNyw0MS44LDEwMC41OGMyNi45NiwyNi45Niw2Mi43OSw0MS44LDEwMC45Miw0MS44JiMxMDsmIzk7JiM5OyYjOTtjMzguMTIsMCw3My45Ni0xNC44NSwxMDAuOTItNDEuOGMyNi45Ni0yNi45Niw0MS44LTYyLjc5LDQxLjgtMTAwLjkyYzAtMzguMTItMTQuODUtNzMuOTYtNDEuOC0xMDAuOTImIzEwOyYjOTsmIzk7JiM5O2MtMjUuNTgtMjUuNTgtNTkuMTUtNDAuMjUtOTUuMDgtNDEuNjhWMzE0LjMyYzAtNC4yNC0yLjA3LTguMjItNS41NS0xMC42NWwtODAuMzctNTYuMmMxNS45NS0xNS43NSwyOS41Ny0zOC41MiwyOS4yOC02NC43NyYjMTA7JiM5OyYjOTsmIzk7Yy0wLjIyLTE5Ljk4LTguNjUtNDkuMzctNDcuNjMtNzUuODhjLTIzLjUtMTUuOTgtNDguNi0yNC4wOS03NC42LTI0LjA5Yy02LjYyLDAtMTMuMzYsMC41My0yMC4wNiwxLjU5JiMxMDsmIzk7JiM5OyYjOTtjLTI0LjEsMy43OS00OC4zMSwxNC4xNS03NC4wMiwzMS42OGMtMzcuMjMsMjUuMzktNjIuMjYsNDIuNjItNjMuNiw0My41NWMtMzMuMywyMi42MS05OC42Miw2Ni44LTEwNy45LDcyLjQ3JiMxMDsmIzk7JiM5OyYjOTtjLTkuODYsNi4wMy0yMC42MSw5LjIxLTMxLjEsOS4yMWMtOS4zNCwwLTE4LjE0LTIuNjgtMjMuNTItNy4xN2MtMC45NC0wLjc5LTMuMTMtMi43OC0zLjA4LTQuMjdjMC4wOS0yLjI3LDIuNzktNy40OCw5Ljg4LTEyLjU1JiMxMDsmIzk7JiM5OyYjOTtjMTAuMzUtNy4zOCwzMC40LTIwLjY2LDQ0Ljk5LTMwLjI0bDE2LjczLDExLjdjMi4yNCwxLjU2LDQuODQsMi4zNSw3LjQ1LDIuMzVjMi42MSwwLDUuMjEtMC43OCw3LjQ1LTIuMzVsNjEuODQtNDMuMjYmIzEwOyYjOTsmIzk7JiM5O2MzLjQ4LTIuNDMsNS41NS02LjQxLDUuNTUtMTAuNjV2LTI3Ljc0YzAtMC41LTAuMDMtMC45OS0wLjA4LTEuNDhsMTQuNTYtMTAuMTdjMy45NC0yLjc1LDYuNTctNi44OCw3LjQxLTExLjYxJiMxMDsmIzk7JiM5OyYjOTtjMC44NC00LjczLTAuMjItOS41MS0yLjk3LTEzLjQ1Yy0zLjM3LTQuODEtOC44OC03LjY5LTE0Ljc2LTcuNjljLTMuNywwLTcuMjcsMS4xMi0xMC4zMSwzLjI0bC02LjQsNC40OCYjMTA7JiM5OyYjOTsmIzk7YzEuMDYtMS44MSwxLjc5LTMuODEsMi4xNy01Ljk0YzAuODQtNC43My0wLjIyLTkuNTEtMi45Ny0xMy40NUMzMjYuMTUsNTYuMTYsMzIwLjY0LDUzLjI5LDMxNC43Niw1My4yOUwzMTQuNzYsNTMuMjl6IiBjbGFzcz0ic3Q2Ii8+JiN4YTsJPC9nPiYjeGE7CTxnIGNsYXNzPSJzdDIiPiYjeGE7CQk8Zz4mI3hhOwkJCTxwYXRoIGQ9Ik0xMjguMjIsNDMzLjk0djE1NC4ybDE4OS4yNSwxMzIuMzZWNTY2LjNMMTI4LjIyLDQzMy45NHogTTE4NS43Niw1ODAuMDFsLTAuMDEtMzcuMDFsMTYuMjYsMTEuNjF2LTI3Ljk4JiMxMDsmIzk7JiM5OyYjOTsmIzk7bDI1LjM0LDE4LjF2MjcuOThsMTUuODEsMTEuM2wwLjAxLDM3LjAxTDE4NS43Niw1ODAuMDF6IiBjbGFzcz0ic3Q1Ii8+JiN4YTsJCQk8cGF0aCBkPSJNNTgzLjkyLDI0OC40YzAuMTMtMC4xLDAuMjYtMC4xOSwwLjQtMC4yOGMxOC4xNy0xMi45NCwzNy40Ny0zNi44OSwzNy4xNi02NS4yOCYjMTA7JiM5OyYjOTsmIzk7JiM5O2MtMC4xOC0xNi44OS03LjYxLTQxLjkyLTQxLjk0LTY1LjI3Yy0yNi44LTE4LjIzLTU1LjUxLTI1LjEtODUuMzMtMjAuNDFjLTIyLjE2LDMuNDgtNDQuNjMsMTMuMTYtNjguNzIsMjkuNTgmIzEwOyYjOTsmIzk7JiM5OyYjOTtjLTM4LjIxLDI2LjA1LTYzLjQsNDMuNDEtNjMuNTgsNDMuNTRjLTAuOTYsMC42NS05Ni40LDY1LjQ3LTEwOC40Niw3Mi44M2MtMjYuODMsMTYuNC01NS4zOSwxMi44OC02OS43MiwwLjk0JiMxMDsmIzk7JiM5OyYjOTsmIzk7Yy01LjM0LTQuNDUtNy45NS05LjQxLTcuNzUtMTQuNzVjMC4yOC03LjUzLDYuMDEtMTYsMTUuMzItMjIuNjRjMTIuNDUtOC44OSwzOC41NS0yNi4wNSw1Mi43OC0zNS4zNWwyMy45NCwxNi43NGw2MS44NC00My4yNiYjMTA7JiM5OyYjOTsmIzk7JiM5O3YtMjcuNzRsLTAuMDIsMC4wMWwtNS45NC00LjE1bDI1Ljk5LTE4LjE3YzIuMjYtMS41OCwyLjgyLTQuNywxLjIzLTYuOTZjLTEuNTgtMi4yNi00LjctMi44Mi02Ljk2LTEuMjNsLTI4Ljk5LDIwLjI2JiMxMDsmIzk7JiM5OyYjOTsmIzk7bC0yMS4yNS0xNC44NmwyMy43MS0xNi41N2MyLjI2LTEuNTgsMi44Mi00LjcsMS4yMy02Ljk2Yy0xLjU4LTIuMjYtNC43LTIuODEtNi45Ni0xLjIzbC0yNi43LDE4LjY3bC0xNy4xNy0xMmwtNjEuODIsNDMuMjEmIzEwOyYjOTsmIzk7JiM5OyYjOTtsLTAuMDItMC4wMXYwLjAzbDAsMGwwLDB2MjcuNzFsMTguNDgsMTIuOTNjLTE0LjczLDkuNjYtMzUuMjEsMjMuMjItNDYuMTQsMzEuMDNjLTE1LjA0LDEwLjc0LTIzLjk5LDI1LjIxLTI0LjUzLDM5LjcyJiMxMDsmIzk7JiM5OyYjOTsmIzk7Yy0wLjMyLDguNiwyLjEzLDIxLjIxLDE1LjY1LDMyLjQ3YzI0LjEyLDIwLjEsNjMuMjksMjAuNDgsOTUuMjgsMC45NGMxMi41LTcuNjQsMTA1LjQtNzAuNzIsMTA5LjQxLTczLjQ1JiMxMDsmIzk7JiM5OyYjOTsmIzk7YzAuMjUtMC4xNywyNS4zOS0xNy41LDYzLjU1LTQzLjUyYzQ4LjY0LTMzLjE2LDg5LjcyLTM2LjA3LDEyOS4yOC05LjE2YzIxLjI2LDE0LjQ2LDMyLjEzLDMwLjM4LDMyLjMyLDQ3LjMyJiMxMDsmIzk7JiM5OyYjOTsmIzk7YzAuMjEsMTkuOTMtMTQuMjksMzcuNDEtMjcuOTMsNDcuMTNjLTIuMzcsMS42OS00LjYzLDMuMjktNi43OSw0LjgybC04Mi40Mi01Ny41OUwxMzMuMDcsNDIxLjU4bDE5MC45MSwxMzMuNGwzNDkuMjgtMjQ0LjE2JiMxMDsmIzk7JiM5OyYjOTsmIzk7TDU4My45MiwyNDguNHoiIGNsYXNzPSJzdDUiLz4mI3hhOwkJCTxwYXRoIGQ9Ik03NzcuMDEsNDk2LjA2Yy0yNC41LTI0LjUtNTcuMDctMzcuOTktOTEuNzItMzcuOTljLTIuNCwwLTQuOCwwLjA3LTcuMTgsMC4yVjMyMy4xOEwzMzAuNDgsNTY2LjN2MTU0LjIxJiMxMDsmIzk7JiM5OyYjOTsmIzk7bDIyNy44MS0xNTkuMzNjLTEuNzksOC42NS0yLjcyLDE3LjU1LTIuNzIsMjYuNmMwLDM0LjY1LDEzLjQ5LDY3LjIyLDM3Ljk5LDkxLjcyYzI0LjUsMjQuNSw1Ny4wNywzNy45OSw5MS43MiwzNy45OSYjMTA7JiM5OyYjOTsmIzk7JiM5O3M2Ny4yMi0xMy40OSw5MS43Mi0zNy45OUM4MDEuNTEsNjU1LDgxNSw2MjIuNDMsODE1LDU4Ny43OEM4MTUsNTUzLjEzLDgwMS41MSw1MjAuNTYsNzc3LjAxLDQ5Ni4wNnogTTY4NS4yOCw2OTUuNSYjMTA7JiM5OyYjOTsmIzk7JiM5O2MtNTkuNDksMC0xMDcuNzItNDguMjMtMTA3LjcyLTEwNy43MnM0OC4yMy0xMDcuNzIsMTA3LjcyLTEwNy43MmM1OS40OSwwLDEwNy43Miw0OC4yMywxMDcuNzIsMTA3LjcyUzc0NC43Nyw2OTUuNSw2ODUuMjgsNjk1LjUmIzEwOyYjOTsmIzk7JiM5OyYjOTt6IiBjbGFzcz0ic3Q1Ii8+JiN4YTsJCTwvZz4mI3hhOwkJPGc+JiN4YTsJCQk8Zz4mI3hhOwkJCQk8cGF0aCBkPSJNNjYwLjM3LDU2Ni42NXY3LjQzYzAsMTYtOC44MiwyNC44Mi0yNC44MiwyNC44MmgtNy40NHYzNC4yN0g2MTAuNnYtODkuNDZoMjQuNTcmIzEwOyYjOTsmIzk7JiM5OyYjOTsmIzk7QzY1MS44LDU0My43Miw2NjAuMjUsNTUxLjUzLDY2MC4zNyw1NjYuNjV6IE02NDIuMzUsNTY3LjI4YzAtOC4wNi0yLjc3LTExLjQ3LTguOTUtMTEuNDdoLTUuMjl2MzAuNzVoNS4yOSYjMTA7JiM5OyYjOTsmIzk7JiM5OyYjOTtjNi4xNywwLDguOTUtMy43OCw4Ljk1LTEyLjczVjU2Ny4yOHoiIGNsYXNzPSJzdDUiLz4mI3hhOwkJCQk8cGF0aCBkPSJNNjYyLjc2LDYxMC44OHYtMTguNGMwLTE1LjYyLDguODItMjMuODIsMjMuMzEtMjMuODJjMTQuNjIsMCwyMy40NCw4LjE5LDIzLjQ0LDIzLjgydjE4LjQmIzEwOyYjOTsmIzk7JiM5OyYjOTsmIzk7YzAsMTUuNjItOC44MiwyMy44Mi0yMy40NCwyMy44MkM2NzEuNTgsNjM0LjcsNjYyLjc2LDYyNi41MSw2NjIuNzYsNjEwLjg4eiBNNjkyLjI1LDYxMi42NXYtMjEuOTMmIzEwOyYjOTsmIzk7JiM5OyYjOTsmIzk7YzAtNy40My0yLjAyLTEwLjQ2LTYuMTctMTAuNDZjLTQuMDMsMC02LjA1LDMuMDItNi4wNSwxMC40NnYyMS45M2MwLDcuNDMsMi4wMiwxMC40Niw2LjA1LDEwLjQ2JiMxMDsmIzk7JiM5OyYjOTsmIzk7JiM5O0M2OTAuMjMsNjIzLjExLDY5Mi4yNSw2MjAuMDgsNjkyLjI1LDYxMi42NXoiIGNsYXNzPSJzdDUiLz4mI3hhOwkJCQk8cGF0aCBkPSJNNzU5LjkxLDYxOS43djEzLjQ4SDcxOC4ydi04OS40Nmg0MC44M3YxMy40OGgtMjMuMzF2MjMuMTloMjEuNTV2MTMuNDhoLTIxLjU1djI1LjgzSDc1OS45MXoiIGNsYXNzPSJzdDUiLz4mI3hhOwkJCTwvZz4mI3hhOwkJPC9nPiYjeGE7CTwvZz4mI3hhOzwvZz4mI3hhOzxnIGNsYXNzPSJzdDAiIGlkPSJfeDM0XzNfeDVGX0FD44Ki44OA44OX44K/44O8Ij4mI3hhOwk8ZyBjbGFzcz0ic3QyIj4mI3hhOwkJPHBhdGggZD0iTTY3MC4yNywyMDMuODRjLTQuOTUsMC05LjcxLDEuNS0xMy43Niw0LjM1bC0zOC45MSwyNy4yN2wtNDEuMDUtMjguNDhjLTIuMjMtMS41NS00LjgyLTIuMzItNy40MS0yLjMyJiMxMDsmIzk7JiM5OyYjOTtjLTIuNjIsMC01LjI0LDAuNzktNy40OCwyLjM3bC0xOTAuNjEsMTM0LjJjLTMuNDYsMi40My01LjUyLDYuNC01LjUyLDEwLjYzdjExMS4yOGMwLDQuMjYsMi4wOSw4LjI1LDUuNTksMTAuNjhsMTguMzgsMTIuNzUmIzEwOyYjOTsmIzk7JiM5O2MtMjcuNDUsMTkuNTEtNDUuMjYsMzEuODktNTAuNzYsMzUuMjdjLTUuODQsMy41OS0xNy40Nyw5LjYyLTI5Ljc2LDkuNjJjLTguMjIsMC0xNS4yNy0yLjcxLTIxLjU3LTguMyYjMTA7JiM5OyYjOTsmIzk7Yy0yLjctMi4zOS00LjQ1LTYuNDktNC41OC0xMC43Yy0wLjEzLTQuMTgsMS4yNC03LjY0LDQuMTgtMTAuNThjMTkuMzgtMTkuMzgsMjMuMDMtMzkuNTEsMjIuNjctNTIuOTkmIzEwOyYjOTsmIzk7JiM5O2MtMC41MS0xOS4zLTkuNzgtMzguNDYtMjUuNDUtNTIuNTZjLTE3LjQ0LTE1LjY5LTM4Ljg4LTIzLjk5LTYyLjAxLTIzLjk5Yy0xLjMxLDAtMi42NSwwLjAzLTMuOTgsMC4wOCYjMTA7JiM5OyYjOTsmIzk7Yy0yNC40OCwxLTQyLjM5LDEwLjY3LTQ4Ljk1LDE0Ljc4Yy0yLjMxLDEuNDUtOC40Niw1LjMtMTA5LjksNzQuOTZjLTYuMzksNC4zOS0xMC42OCwxMS0xMi4xLDE4LjYxJiMxMDsmIzk7JiM5OyYjOTtjLTEuNDEsNy42MiwwLjIyLDE1LjMzLDQuNjEsMjEuNzFjNS40MSw3Ljg4LDE0LjM1LDEyLjU4LDIzLjkyLDEyLjU4YzUuODgsMCwxMS41NS0xLjc2LDE2LjQtNS4xJiMxMDsmIzk7JiM5OyYjOTtjODcuMzgtNjAuMDEsMTA1LjA4LTcxLjg5LDEwNy44NS03My42MmM0LjA1LTIuNTQsMTEuODYtNS42MywyMC41Mi01Ljk4YzAuNTQtMC4wMiwxLjA5LTAuMDMsMS42Mi0wLjAzJiMxMDsmIzk7JiM5OyYjOTtjOC44MSwwLDE2LjQxLDIuOTgsMjMuMjEsOS4xYzMuNzgsMy40LDYuMTgsNy42LDYuMjcsMTAuOTdjMC4xLDMuODItMy4wNSw3Ljc5LTUuNywxMC40NWMtMTQuMjQsMTQuMjQtMjEuNzUsMzMuMTgtMjEuMTQsNTMuMzQmIzEwOyYjOTsmIzk7JiM5O2MwLjYxLDIwLjI1LDkuMzksMzkuMzMsMjQuMDgsNTIuMzZjMTYuOTYsMTUuMDQsMzcuNzcsMjIuOTgsNjAuMTgsMjIuOThjMTkuNzksMCw0MC41NS02LjMzLDYwLjAyLTE4LjMyJiMxMDsmIzk7JiM5OyYjOTtjNy44OS00Ljg2LDMxLjc3LTIxLjUxLDcxLjAxLTQ5LjU0bDg3LjUxLDYwLjcxYzIuMjMsMS41NSw0LjgyLDIuMzIsNy40MSwyLjMyYzIuNjIsMCw1LjI0LTAuNzksNy40OC0yLjM3bDE5MC42MS0xMzQuMiYjMTA7JiM5OyYjOTsmIzk7YzMuNDYtMi40Myw1LjUyLTYuNCw1LjUyLTEwLjYzVjMyNi4yNWMwLTQuMjYtMi4wOS04LjI1LTUuNTktMTAuNjhsLTE4LjA5LTEyLjU1bDI0LjY0LTE3LjI3YzUuMjUtMy42OCw4Ljc1LTkuMTgsOS44Ni0xNS41JiMxMDsmIzk7JiM5OyYjOTtjMS4xMS02LjMxLTAuMy0xMi42OC0zLjk4LTE3LjkzYy00LjQ5LTYuNC0xMS44NC0xMC4yMy0xOS42Ni0xMC4yM2MtNC45NSwwLTkuNywxLjUtMTMuNzYsNC4zNWwtMzkuMTMsMjcuNDJsLTEzLjMzLTkuMjUmIzEwOyYjOTsmIzk7JiM5O2wyNC40Mi0xNy4xMWM1LjI1LTMuNjgsOC43NS05LjE4LDkuODYtMTUuNWMxLjExLTYuMzEtMC4zLTEyLjY4LTMuOTgtMTcuOTNDNjg1LjQ0LDIwNy42Nyw2NzguMDksMjAzLjg0LDY3MC4yNywyMDMuODQmIzEwOyYjOTsmIzk7JiM5O0w2NzAuMjcsMjAzLjg0eiIgY2xhc3M9InN0NiIvPiYjeGE7CTwvZz4mI3hhOwk8ZyBjbGFzcz0ic3QyIj4mI3hhOwkJPHBhdGggZD0iTTM3OC41Miw0NjMuMTNsMzMuNTUsMjMuMzFjLTI5LjA0LDIwLjczLTU4LjUsNDEuNTMtNjYuNTMsNDYuNDZjLTExLjg0LDcuMjktNDIuMDYsMjEuODgtNjYuNzYtMC4wMiYjMTA7JiM5OyYjOTsmIzk7Yy01LjM3LTQuNzYtOC43Mi0xMi4yNS04Ljk1LTIwLjAzYy0wLjE2LTUuNCwxLjA5LTEzLjI3LDcuOTgtMjAuMTZjMTYuMTEtMTYuMTEsMTkuMTUtMzIuNTIsMTguODctNDMuNDUmIzEwOyYjOTsmIzk7JiM5O2MtMC40MS0xNS43NS04LjEyLTMxLjUxLTIxLjE1LTQzLjI0Yy0xNS45Mi0xNC4zMy0zNS41NS0yMS40NS01Ni43Ni0yMC41OGMtMjEuMzcsMC44Ny0zNi45LDkuMjUtNDIuNTgsMTIuODEmIzEwOyYjOTsmIzk7JiM5O2MtMi4wNCwxLjI4LTguMjQsNS4xNi0xMDkuNDQsNzQuNjZjLTcuMjgsNS05LjEzLDE0Ljk2LTQuMTMsMjIuMjVjNSw3LjI4LDE0Ljk2LDkuMTMsMjIuMjUsNC4xMyYjMTA7JiM5OyYjOTsmIzk7YzgzLjE4LTU3LjEzLDEwNC44MS03MS43MywxMDguMzEtNzMuOTJjNS42Ni0zLjU1LDE1LjctNy41LDI2Ljg5LTcuOTVjMTIuODktMC41MiwyNC4zMywzLjY1LDM0LjA1LDEyLjM5JiMxMDsmIzk7JiM5OyYjOTtjNi41Myw1Ljg4LDEwLjM4LDEzLjI3LDEwLjU3LDIwLjI5YzAuMTgsNi43Ny0zLjAyLDEzLjUtOS41MSwxOS45OGMtMTEuNjgsMTEuNjgtMTcuODQsMjcuMjItMTcuMzQsNDMuNzUmIzEwOyYjOTsmIzk7JiM5O2MwLjUsMTYuNjgsNy42OSwzMi4zNiwxOS43MSw0My4wMmMxNC44MSwxMy4xMiwzMi42LDE5LjcxLDUxLjU1LDE5LjcxYzE3LjIzLDAsMzUuNDMtNS40NSw1My4yLTE2LjM5JiMxMDsmIzk7JiM5OyYjOTtjMTAuMTYtNi4yNSw0OC4xNS0zMy4yMiw3Ny42Ni01NC4zM2w4OC4yNiw2MS4zM1Y0NjQuODhMMzc4LjUyLDM2MC44NVY0NjMuMTN6IiBjbGFzcz0ic3Q1Ii8+JiN4YTsJCTxwb2x5Z29uIHBvaW50cz0iNTQxLjIzLDU2Ny4wNiA3MjUuMzEsNDM3LjM1IDcyNS4zMSwzMzUuMTQgNTQxLjIzLDQ2NC44NiIgY2xhc3M9InN0NSIvPiYjeGE7CQk8cGF0aCBkPSJNNzM0Ljg2LDI1OS43OGMtMy40OS00Ljk3LTEwLjM0LTYuMTgtMTUuMzItMi43bC00Ni42LDMyLjY1bC0zNi4wOC0yNS4wNWwzOS43Mi0yNy44NCYjMTA7JiM5OyYjOTsmIzk7YzQuOTgtMy40OSw2LjE4LTEwLjM1LDIuNy0xNS4zMmMtMy40OS00Ljk4LTEwLjM0LTYuMTgtMTUuMzItMi43bC00Ni4zNSwzMi40OGwtNDguNDgtMzMuNjZMMzgzLjM2LDM0OC40N0w1MzQuNyw0NTMuNTUmIzEwOyYjOTsmIzk7JiM5O2wxODUuNzctMTMwLjgxbC0yOC4yNy0xOS42M2wzOS45Ny0yOC4wMUM3MzcuMTQsMjcxLjYyLDczOC4zNSwyNjQuNzYsNzM0Ljg2LDI1OS43OHoiIGNsYXNzPSJzdDUiLz4mI3hhOwk8L2c+JiN4YTs8L2c+JiN4YTs8ZyBjbGFzcz0ic3QwIiBpZD0iX3gzNF80X3g1Rl9JUOmbu+ipsSI+JiN4YTsJPHBhdGggZD0iTTYyMi4xOCwxNDUuNDRoLTI3MmMtMTcsMC0zMS44OSw5LjE3LTQwLDIyLjgzYy04LjExLTEzLjY1LTIzLTIyLjgzLTQwLTIyLjgzaC02Mi43MyYjMTA7JiM5OyYjOTtjLTI1LjY0LDAtNDYuNSwyMC44Ni00Ni41LDQ2LjV2NDQ4YzAsMjUuNjQsMjAuODYsNDYuNSw0Ni41LDQ2LjVoNjIuNzNjMTcsMCwzMS44OS05LjE3LDQwLTIyLjgzYzguMTEsMTMuNjUsMjMsMjIuODMsNDAsMjIuODMmIzEwOyYjOTsmIzk7aDI3MmMyNS42NCwwLDQ2LjUtMjAuODYsNDYuNS00Ni41di00NDhDNjY4LjY4LDE2Ni4zLDY0Ny44MiwxNDUuNDQsNjIyLjE4LDE0NS40NHoiIGNsYXNzPSJzdDQiLz4mI3hhOwk8ZyBjbGFzcz0ic3QyIj4mI3hhOwkJPGc+JiN4YTsJCQk8cGF0aCBkPSJNMjA3LjQ1LDE1OC40NGMtMTguNDcsMC0zMy41LDE1LjAzLTMzLjUsMzMuNXY0NDhjMCwxOC40NywxNS4wMywzMy41LDMzLjUsMzMuNWg2Mi43MyYjMTA7JiM5OyYjOTsmIzk7JiM5O2MxOC40NywwLDMzLjUtMTUuMDMsMzMuNS0zMy41di00NDhjMC0xOC40Ny0xNS4wMy0zMy41LTMzLjUtMzMuNUgyMDcuNDV6IiBjbGFzcz0ic3Q1Ii8+JiN4YTsJCTwvZz4mI3hhOwkJPHBhdGggZD0iTTYyMi4xOCwxNTguNDRoLTI3MmMtMTguNDcsMC0zMy41LDE1LjAzLTMzLjUsMzMuNXY0NDhjMCwxOC40NywxNS4wMywzMy41LDMzLjUsMzMuNWgyNzImIzEwOyYjOTsmIzk7JiM5O2MxOC40NywwLDMzLjUtMTUuMDMsMzMuNS0zMy41di00NDhDNjU1LjY4LDE3My40Niw2NDAuNjUsMTU4LjQ0LDYyMi4xOCwxNTguNDR6IE00MzEuMTgsNjAxLjIzbC00NCwwdi0yOC42bDQ0LDBWNjAxLjIzeiYjMTA7JiM5OyYjOTsmIzk7IE00MzEuMTgsNTM1LjI0aC00NHYtMjguNmg0NFY1MzUuMjR6IE00MzEuMTgsNDY5LjI0bC00NCwwdi0yOC42bDQ0LDBWNDY5LjI0eiBNNDMxLjE4LDQwMy4yNGgtNDR2LTI4LjZoNDRWNDAzLjI0eiYjMTA7JiM5OyYjOTsmIzk7IE00NjQuMTgsNjAxLjI0di0yOC42bDQ0LDBsMCwyOC42TDQ2NC4xOCw2MDEuMjR6IE00NjQuMTgsNTM1LjI0di0yOC42aDQ0bDAsMjguNkg0NjQuMTh6IE00NjQuMTgsNDY5LjI0di0yOC42bDQ0LDBsMCwyOC42JiMxMDsmIzk7JiM5OyYjOTtMNDY0LjE4LDQ2OS4yNHogTTQ2NC4xOCw0MDMuMjR2LTI4LjZoNDRsMCwyOC42SDQ2NC4xOHogTTU4NS4xOCw2MDEuMjNsLTQ0LDB2LTI4LjZsNDQsMFY2MDEuMjN6IE01ODUuMTgsNTM1LjI0aC00NHYtMjguNmg0NCYjMTA7JiM5OyYjOTsmIzk7VjUzNS4yNHogTTU4NS4xOCw0NjkuMjRsLTQ0LDB2LTI4LjZsNDQsMFY0NjkuMjR6IE01ODUuMTgsNDAzLjI0aC00NHYtMjguNmg0NFY0MDMuMjR6IE01OTYuMTgsMzA1Ljk0aC0yMjB2LTg4aDIyMFYzMDUuOTR6IiBjbGFzcz0ic3Q1Ii8+JiN4YTsJPC9nPiYjeGE7PC9nPiYjeGE7PGcgaWQ9Il94MzRfNV94NUZfSVDjgqvjg6Hjg6kiPiYjeGE7CTxnPiYjeGE7CQk8cGF0aCBkPSJNNjkzLjMyLDE4My42OEgxMzYuNjhjLTI1LjY0LDAtNDYuNSwyMC44Ni00Ni41LDQ2LjV2NDkuNzhjMCwyNS42NCwyMC44Niw0Ni41LDQ2LjUsNDYuNWg1Ljc2djY4LjI5JiMxMDsmIzk7JiM5OyYjOTtjMCwzNi43OSw3LjIxLDcyLjQ5LDIxLjQyLDEwNi4xYzEzLjczLDMyLjQ2LDMzLjM4LDYxLjYxLDU4LjQxLDg2LjYzczU0LjE3LDQ0LjY4LDg2LjYzLDU4LjQxJiMxMDsmIzk7JiM5OyYjOTtjMzMuNjEsMTQuMjIsNjkuMzEsMjEuNDIsMTA2LjEsMjEuNDJzNzIuNDktNy4yMSwxMDYuMS0yMS40MmMzMi40Ni0xMy43Myw2MS42MS0zMy4zOCw4Ni42My01OC40MXM0NC42OC01NC4xNyw1OC40MS04Ni42MyYjMTA7JiM5OyYjOTsmIzk7YzE0LjIyLTMzLjYxLDIxLjQyLTY5LjMxLDIxLjQyLTEwNi4xdi02OC4yOWg1Ljc2YzI1LjY0LDAsNDYuNS0yMC44Niw0Ni41LTQ2LjV2LTQ5Ljc4JiMxMDsmIzk7JiM5OyYjOTtDNzM5LjgyLDIwNC41NCw3MTguOTYsMTgzLjY4LDY5My4zMiwxODMuNjhMNjkzLjMyLDE4My42OHoiIGNsYXNzPSJzdDYiLz4mI3hhOwk8L2c+JiN4YTsJPGc+JiN4YTsJCTxwYXRoIGQ9Ik0yNzMuMTEsMzI2LjQ2SDE1NS40NHY2OC4yOWMwLDkwLjk4LDQ2LjgyLDE3MS4wMSwxMTcuNjcsMjE3LjM2VjMyNi40NnoiIGNsYXNzPSJzdDUiLz4mI3hhOwkJPHBhdGggZD0iTTU1Ni44OSwzMjYuNDZ2Mjg1LjY1YzcwLjg1LTQ2LjM0LDExNy42Ny0xMjYuMzgsMTE3LjY3LTIxNy4zNnYtNjguMjlINTU2Ljg5eiIgY2xhc3M9InN0NSIvPiYjeGE7CQk8cGF0aCBkPSJNMTM2LjY4LDE5Ni42OGMtMTguNDcsMC0zMy41LDE1LjAzLTMzLjUsMzMuNXY0OS43OGMwLDE4LjQ3LDE1LjAzLDMzLjUsMzMuNSwzMy41aDU1Ni42NCYjMTA7JiM5OyYjOTsmIzk7YzE4LjQ3LDAsMzMuNS0xNS4wMywzMy41LTMzLjV2LTQ5Ljc4YzAtMTguNDctMTUuMDMtMzMuNS0zMy41LTMzLjVIMTM2LjY4eiIgY2xhc3M9InN0NSIvPiYjeGE7CQk8Zz4mI3hhOwkJCTxwYXRoIGQ9Ik0yODcuMTEsMzI2LjQ2djI5NC4xOWMzNy43NSwyMS40Miw4MS4zOSwzMy42NiwxMjcuODksMzMuNjZjNDYuNSwwLDkwLjE0LTEyLjI0LDEyNy44OS0zMy42NlYzMjYuNDZIMjg3LjExJiMxMDsmIzk7JiM5OyYjOTsmIzk7eiBNNDEyLjc3LDU1OS40OWMtNDMuNSwwLTc4Ljg5LTM1LjM5LTc4Ljg5LTc4Ljg5czM1LjM5LTc4Ljg5LDc4Ljg5LTc4Ljg5czc4Ljg5LDM1LjM5LDc4Ljg5LDc4Ljg5UzQ1Ni4yNyw1NTkuNDksNDEyLjc3LDU1OS40OSYjMTA7JiM5OyYjOTsmIzk7JiM5O3oiIGNsYXNzPSJzdDUiLz4mI3hhOwkJCTxwYXRoIGQ9Ik00MTIuNzcsNDI5LjdjLTI4LjA2LDAtNTAuODksMjIuODMtNTAuODksNTAuODlzMjIuODMsNTAuODksNTAuODksNTAuODlzNTAuODktMjIuODMsNTAuODktNTAuODkmIzEwOyYjOTsmIzk7JiM5OyYjOTtTNDQwLjgzLDQyOS43LDQxMi43Nyw0MjkuN3oiIGNsYXNzPSJzdDUiLz4mI3hhOwkJPC9nPiYjeGE7CTwvZz4mI3hhOzwvZz4mI3hhOzxnIGNsYXNzPSJzdDAiIGlkPSJfeDM0XzZfeDVGX05X566h55CG6ICFX3hGRjA4X+Wls+aAp194RkYwOV8iPiYjeGE7CTxnIGNsYXNzPSJzdDIiPiYjeGE7CQk8cGF0aCBkPSJNNDE1Ljk3LDExMi41OWMtMjYuNywwLTU1LjM5LDguOTktODAuNzgsMjUuMzFjLTI3LjgzLDE3Ljg5LTQ4LjQ2LDQyLjQtNTkuNjYsNzAuODgmIzEwOyYjOTsmIzk7JiM5O2MtMC40NywxLjE5LTAuOSwyLjQtMS4zLDMuNmMtNi4xOCwxMy42NS0xMC41MSwyNy4zOC0xNS4wOCw0MS45Yy01LjQxLDE3LjE3LTExLDM0LjkyLTIwLjU2LDU2LjE2JiMxMDsmIzk7JiM5OyYjOTtjLTE1LjM4LDM0LjE3LTE2LjQxLDY2Ljc1LTIuOTEsOTEuNzZjNi4yMSwxMS41MSwxNS4yNSwyMS4wOCwyNi44NywyOC40NGM5LjQxLDUuOTcsMjAuMzcsMTAuMzgsMzIuNjgsMTMuMTYmIzEwOyYjOTsmIzk7JiM5O2MxLjg0LDQuOTIsNC44NSwxMC40Myw5Ljc0LDE1Ljg2YzYuODMsNy41OSwxNi4xMiwxMy42NiwyNy42OSwxOC4xM2wtMTUuNjYsOC42M2MtNjAuMTUsMjIuMy05NC4xNSw0MS41NC0xMjEuMSw2OC41MSYjMTA7JiM5OyYjOTsmIzk7Yy0xNC43OSwxNC43OC0yNS41OSw0MS41Ny0zMi4xMSw3OS42MmMtNC45NCwyOC44NS01LjkxLDU1LjQyLTYuMSw2Mi44N2MtMC4wOSwzLjUsMS4yNSw2Ljg5LDMuNjksOS40czUuOCwzLjkyLDkuMywzLjkyaDcyLjc1JiMxMDsmIzk7JiM5OyYjOTtoMS40NWw1LjAxLDQ0LjhjMC43NCw2LjU4LDYuMywxMS41NSwxMi45MiwxMS41NWgzMDMuN2M2LjYyLDAsMTIuMTgtNC45OCwxMi45Mi0xMS41NWw1LjAxLTQ0LjhoMS40Nmg3MS40NCYjMTA7JiM5OyYjOTsmIzk7YzMuNSwwLDYuODYtMS40MSw5LjMtMy45MmMyLjQ1LTIuNTEsMy43OC01Ljg5LDMuNjktOS40Yy0wLjE4LTcuNDYtMS4xNi0zNC4wMi02LjEtNjIuODdjLTYuNTEtMzguMDYtMTcuMzItNjQuODUtMzIuMTEtNzkuNjMmIzEwOyYjOTsmIzk7JiM5O2MtMjYuOTQtMjYuOTYtNjAuOTQtNDYuMjEtMTIxLjA5LTY4LjVsLTE0LjgzLTguMTdjMTEuODgtNC40MSwyMS40MS0xMC40NywyOC40NC0xOC4wOGM1LjE2LTUuNTksOC4zLTExLjI5LDEwLjIxLTE2LjM3JiMxMDsmIzk7JiM5OyYjOTtjMTIuMzEtMi43OCwyMy4yNy03LjE5LDMyLjY4LTEzLjE2YzExLjYxLTcuMzYsMjAuNjUtMTYuOTMsMjYuODctMjguNDRjMTMuNS0yNS4wMSwxMi40Ny01Ny42LTIuOTEtOTEuNzYmIzEwOyYjOTsmIzk7JiM5O2MtOS41Ni0yMS4yNC0xNS4xNS0zOC45OS0yMC41Ni01Ni4xNmMtNC41Ni0xNC40OC04Ljg3LTI4LjE2LTE1LjAyLTQxLjc3Yy04LjUxLTIzLjkxLTIxLjg4LTQ0LjY2LTM4LjY4LTYwLjAzJiMxMDsmIzk7JiM5OyYjOTtjLTE1LjQyLTE0LjEtMzIuNzgtMjIuNTQtNDkuMzYtMjQuMDljLTAuMzItMC4yNC0wLjY0LTAuNDgtMC45Ny0wLjcyQzQ1My41OSwxMTcuODEsNDM1Ljk3LDExMi41OSw0MTUuOTcsMTEyLjU5TDQxNS45NywxMTIuNTl6IiBjbGFzcz0ic3Q2Ii8+JiN4YTsJPC9nPiYjeGE7CTxwYXRoIGQ9Ik00MTUsNDE4LjM5Yy0yMC42NywwLTMxLjEzLTE2LjgxLTMxLjU3LTE3LjUyYy0yLjAxLTMuMy0wLjk2LTcuNjEsMi4zNC05LjYyYzMuMy0yLjAxLDcuNjEtMC45Niw5LjYyLDIuMzQmIzEwOyYjOTsmIzk7YzAuMjUsMC40LDYuOTQsMTAuOCwxOS42MSwxMC44YzEyLjY3LDAsMTkuMzYtMTAuNCwxOS42My0xMC44NGMyLjAxLTMuMyw2LjMtNC4zMyw5LjYxLTIuMzJjMy4zLDIuMDEsNC4zNCw2LjM0LDIuMzMsOS42NCYjMTA7JiM5OyYjOTtDNDQ2LjEzLDQwMS41OCw0MzUuNjcsNDE4LjM5LDQxNSw0MTguMzl6IiBjbGFzcz0ic3Q3Ii8+JiN4YTsJPGcgY2xhc3M9InN0MiI+JiN4YTsJCTxwYXRoIGQ9Ik0yNDQuMjgsNTg4LjM1bDE4LjU1LDE2NS43NWgzMDMuN2wxOC41NS0xNjUuNzVIMjQ0LjI4eiBNNDI5LjE1LDY4OC4xSDQwMC4ybC0yLjgzLTE5LjU4aDM0LjYyTDQyOS4xNSw2ODguMSYjMTA7JiM5OyYjOTsmIzk7eiIgY2xhc3M9InN0NSIvPiYjeGE7CQk8cGF0aCBkPSJNNjU3LjM1LDY5Ny43NWMtMC4zNi0xNC45My0zLjk0LTEwMy4xOC0zNC40LTEzMy42MmMtMjQuMzEtMjQuMzMtNTQuODUtNDIuNzYtMTE3LjMyLTY1Ljg0bC0yMi41NC0xMi40MSYjMTA7JiM5OyYjOTsmIzk7bC0yLjk2LTE2LjNjMzUuNTktOC42NSw0Mi45Mi0yNy41OCw0NC4yOS0zNi45OWM2MC4zNi05LjYsODEuOC01Ny43Niw1NS4yMi0xMTYuOGMtMTguMjktNDAuNjMtMjIuODctNzAuMDItMzUuNzktOTguNCYjMTA7JiM5OyYjOTsmIzk7Yy0xNi4yOS00Ni4yNy01MS4xNS03NS43OC04MC44LTc2LjIzYy0xLjItMC45OS0yLjQ5LTEuOTktMy44OC0zLjAyYy00NC4xOC0zMi43MS0xNDIuMTksMC43NC0xNzEuNTYsNzUuNDImIzEwOyYjOTsmIzk7JiM5O2MtMC40OSwxLjI0LTAuOSwyLjQxLTEuMjUsMy41NGMtMTMuMDMsMjguNDctMTcuNTgsNTcuOTMtMzUuOTMsOTguN2MtMjYuNTcsNTkuMDQtNS4xMywxMDcuMTksNTUuMjIsMTE2LjgmIzEwOyYjOTsmIzk7JiM5O2MxLjM1LDkuMjQsOC40MywyNy42NCw0Mi4zMywzNi41bC0zLjA0LDE2Ljc5bC0yMi41NCwxMi40MWMtNjIuNDcsMjMuMDktOTMuMDEsNDEuNTItMTE3LjMyLDY1Ljg0JiMxMDsmIzk7JiM5OyYjOTtjLTMwLjQ2LDMwLjQ0LTM0LjA0LDExOC42OS0zNC40LDEzMy42Mmg3Mi43NWwtMTMuNjktMTIyLjRoMTQ0LjUybC00LjEzLTMzLjI3YzEzLjM5LDIuOTUsMjguMjQsNC45Niw0My44Nyw0Ljk2JiMxMDsmIzk7JiM5OyYjOTtjMTUuNjQsMCwzMC41LTIuMDEsNDMuOS00Ljk3bC00LjEzLDMzLjI4aDE0NS44NGwtMTMuNjksMTIyLjRINjU3LjM1eiBNNDUwLjI2LDIyMi4xM2gwLjE3YzAsMCwzMi4xOCwzMy4wNiw2OC4xNyw1Mi40MyYjMTA7JiM5OyYjOTsmIzk7Yy0wLjQxLDYuMDktMS4wNCwxMi41Mi0xLjg3LDE5LjI0Yy0xLjc2LTMuNTMtNS40OC01LjA5LTcuNi01LjQzYy0xMy44Ni0yLjgzLTMzLjE2LTMuNzUtNTEuNjItMi40NyYjMTA7JiM5OyYjOTsmIzk7Yy0wLjc1LDAuMDUtMTguMzYsMS4zMS0yNS44Miw0LjU4Yy0xLjY3LDAuNzYtMy40LDEuNTgtNC45OCwyLjM0Yy0yLjUxLDEuMjctNi4yNCwyLjcxLTguMTksMy4xN2MtMC40NywwLjA4LTAuOTQsMC4xOC0xLjM5LDAuMjcmIzEwOyYjOTsmIzk7JiM5O2MtMC4zNSwwLjA3LTAuNjksMC4xNS0xLjAxLDAuMmMtMC44OSwwLjE2LTMuMzQsMC4xNi00LjI0LDBjLTAuMzMtMC4wNS0wLjY3LTAuMTMtMS4wMy0wLjIxYy0wLjQ0LTAuMDktMC45LTAuMTktMS4zNi0wLjI3JiMxMDsmIzk7JiM5OyYjOTtjLTEuOTUtMC40Ni01LjY3LTEuOS04LjItMy4xOGMtMS41My0wLjc0LTMuMjgtMS41Ni00Ljk3LTIuMzRjLTcuNDItMy4yNi0yNS4wMy00LjUyLTI1Ljc4LTQuNTcmIzEwOyYjOTsmIzk7JiM5O2MtMTguNzgtMS4yOS0zNy42LTAuMzktNTEuNTIsMi40NmMtMi4yLDAuMzUtNS45NywxLjkyLTcuNzEsNS40N2MtMC43Mi01Ljc5LTEuMjktMTEuMzgtMS43LTE2LjcyJiMxMDsmIzk7JiM5OyYjOTtDMzg2Ljc0LDI1OS44NSw0NTAuMjYsMjIyLjEzLDQ1MC4yNiwyMjIuMTN6IE01MDEuNjYsMzEzLjkxYzAuMDEsMy41NS0wLjkzLDE1LjYxLTEzLjU2LDIxLjU2Yy00Ljg2LDIuMy0xMi4xOSwzLjY3LTE5LjYsMy42NyYjMTA7JiM5OyYjOTsmIzk7Yy0xNC4wOSwwLTI1LjI3LTQuNTYtMjkuOS0xMi4yYy05LjY3LTE1Ljk1LTYuODktMjEuOTctNi43Ny0yMi4yMmwwLjA2LTAuMTRjMC4xLTAuMjUsMi44MS02LjA3LDMwLjQyLTcuNjImIzEwOyYjOTsmIzk7JiM5O2M0LjQ2LTAuMjcsOC40Ni0wLjQsMTIuMjItMC40YzEzLjY4LDAsMjEuNDMsMi4wNSwyNC4zOSw2LjQyQzUwMC41NCwzMDUuNDIsNTAxLjY2LDMxMC43LDUwMS42NiwzMTMuOTF6IE0zODkuNDUsMzI2Ljk0JiMxMDsmIzk7JiM5OyYjOTtjLTQuNjYsNy42NC0xNS44NSwxMi4yMS0yOS45NCwxMi4yMWMtNy40LDAtMTQuNzItMS4zNy0xOS41OC0zLjY3Yy0xMi42Mi01Ljk1LTEzLjU4LTE4LjAxLTEzLjU3LTIxLjU2JiMxMDsmIzk7JiM5OyYjOTtjMC4wMS0zLjIsMS4xMy04LjQ4LDIuNzItMTAuOTNjMi42Ny0zLjk2LDcuMzYtNi40MiwyMi40Mi02LjQyYzMuNjYsMCw5LjY2LDAuMTMsMTQuMTgsMC40MWMyNy4yMSwxLjUzLDMwLjI0LDcuMTUsMzAuNDksNy43OSYjMTA7JiM5OyYjOTsmIzk7bDAuMDgsMC4xN0MzOTYuMjksMzA0Ljk4LDM5OS4wNSwzMTEuMTMsMzg5LjQ1LDMyNi45NHogTTQ2NC4wMiw0OTIuODFsLTMuNDgsMjguMDJjLTEzLjkxLDMuNTgtMjkuODIsNi4yMS00Ni41NCw2LjIxJiMxMDsmIzk7JiM5OyYjOTtjLTE2LjcxLDAtMzIuNi0yLjYzLTQ2LjUxLTYuMmwtMy40OC0yOC4wM2w3LjUtNDEuMzhsLTQuNDMtMy43M2MtMjMuODctMjAuMDktMzUuNzEtNDUuOTktMzguODMtNjMuNTJsLTEuMDItNS43NWwtNS41MS0xLjkzJiMxMDsmIzk7JiM5OyYjOTtjLTkuMDMtMy4xNy0yMS40LTcuNS0zMC45Mi00MC40OGMtMS42Ny01Ljg3LTIuOTUtMTMuNzgsMC40LTE4LjE2YzMuMzktNC40NSwxMC45OS00LjUxLDExLjExLTQuNTFjMCwwLDAsMCwwLDBsMTEuNzgsMC4yMyYjMTA7JiM5OyYjOTsmIzk7bDAtMC4wMmMwLjE1LDAuMzQsMC4yNiwwLjYzLDAuMjksMC44MWMzLjcyLDIyLjIzLDYuNTksMjQuNTgsMTUuOTgsMjkuMjljMC43MiwwLjM2LDEuNDksMC43NSwyLjMsMS4xNyYjMTA7JiM5OyYjOTsmIzk7YzUuMjUsMi42OSwxNS41Miw0LjQ0LDI2LjE3LDQuNDRjOC4xMywwLDE5LjktMS4wNSwyOS43NS02LjA2YzE1LjA2LTcuNjksMjAuMjctMzAuMjQsMjAuMzItMzAuNDhjMC4xMy0wLjQsMS4yNC0xLjQ0LDQuNzgtMS40NCYjMTA7JiM5OyYjOTsmIzk7aDAuOTljMy4zMiwwLDQuMzQsMS4wMyw0LjQ3LDEuNDZsMC4wNCwwLjI3YzAuMjEsMC45Miw1LjQsMjIuNTUsMjAuMywzMC4xOWM5Ljg1LDUsMjEuNjIsNi4wNSwyOS43Niw2LjA1JiMxMDsmIzk7JiM5OyYjOTtjMTAuNjMsMCwyMC44OS0xLjc0LDI2LjE0LTQuNDRjMC44LTAuNDEsMS41NS0wLjc5LDIuMjctMS4xNWM5LjQxLTQuNzEsMTIuMjktNy4wNiwxNi4wMS0yOS4yNmMwLjA0LTAuMjMsMC4yMS0wLjY0LDAuNDItMS4wOCYjMTA7JiM5OyYjOTsmIzk7bC0wLjAyLDAuMTRsMTEuNjctMC4xMmMwLjA5LDAsNy43MiwwLjA1LDExLjEzLDQuNTFjMy4zNSw0LjM4LDIuMDYsMTIuMywwLjQxLDE4LjEyYy05LjU0LDMzLjAyLTIxLjksMzcuMzUtMzAuOTQsNDAuNTImIzEwOyYjOTsmIzk7JiM5O2wtNS41MSwxLjkzbC0xLjAyLDUuNzVjLTMuMTIsMTcuNTMtMTQuOTYsNDMuNDMtMzguODMsNjMuNTJsLTQuNDMsMy43M0w0NjQuMDIsNDkyLjgxeiIgY2xhc3M9InN0NSIvPiYjeGE7CTwvZz4mI3hhOzwvZz4mI3hhOzxnIGNsYXNzPSJzdDAiIGlkPSJfeDM0XzdfeDVGX05X5qeL56+J44Gu5L2c5qWt6ICFX3hGRjA4X+Wls+aAp194RkYwOV8iPiYjeGE7CTxnIGNsYXNzPSJzdDIiPiYjeGE7CQk8cGF0aCBkPSJNNDE0LjAyLDExMS45NmMtMjYuNTYsMC01MC4wMiwzLjgyLTY5LjczLDExLjM1Yy0xNi41Nyw2LjMzLTMwLjYsMTUuMzEtNDEuNzEsMjYuNjcmIzEwOyYjOTsmIzk7JiM5O2MtMjAuMDIsMjAuNDgtMjQuMTQsNDIuMjctMjQuNzcsNDYuNDNjLTAuNTUsMy43MS00Ljc0LDI3LjI4LTExLjE5LDYzLjA1Yy0wLjQ3LDIuNjItMC4xMyw1LjMyLDAuOTgsNy43M2w5LjIzLDIwLjEmIzEwOyYjOTsmIzk7JiM5O2MtNC42LDIuNzUtOC41Nyw2LjI1LTExLjc2LDEwLjM4Yy05LjQ0LDEyLjI1LTExLjQ3LDI4LjItNi4wMSw0Ny40YzAuMDEsMC4wMiwwLjAxLDAuMDQsMC4wMiwwLjA1JiMxMDsmIzk7JiM5OyYjOTtjOC41MSwyOS40NSwyMC41NCw0Ni45OSwzOS42Myw1Ny4yNWM2LjQ4LDIxLjk0LDE5LjY0LDQzLjcsMzcuMDYsNjEuMjhsLTIuMDcsMTEuNDNsLTM4LjEsMTguODRsLTExLjk0LDUuNjkmIzEwOyYjOTsmIzk7JiM5O2MtNDAuMTksMTcuMTMtNjUuNjMsMzMuMTctODcuNzYsNTUuMzFjLTE0Ljc5LDE0Ljc4LTI1LjU5LDQxLjU3LTMyLjExLDc5LjYyYy00Ljk0LDI4Ljg1LTUuOTEsNTUuNDItNi4xLDYyLjg3JiMxMDsmIzk7JiM5OyYjOTtjLTAuMDksMy41LDEuMjUsNi44OSwzLjY5LDkuNHM1LjgsMy45Miw5LjMsMy45Mkg0MTBoMTBoMjM5LjMyYzMuNSwwLDYuODYtMS40MSw5LjMtMy45MnMzLjc4LTUuODksMy42OS05LjQmIzEwOyYjOTsmIzk7JiM5O2MtMC4xOC03LjQ2LTEuMTYtMzQuMDItNi4xLTYyLjg3Yy02LjUxLTM4LjA2LTE3LjMyLTY0Ljg1LTMyLjExLTc5LjYzYy0xNC41OS0xNC42LTMwLjY3LTI2LjU4LTUxLjQ3LTM3Ljk2JiMxMDsmIzk7JiM5OyYjOTtjMi4zNC0wLjMxLDQuNDgtMC43OSw2LjM5LTEuNDRjOS41OS0zLjI1LDExLjg5LTEwLjIzLDEyLjQzLTEzLjA3YzEuODEtOS41My0zLjU2LTE3LjUtMTAuOTktMjguNTMmIzEwOyYjOTsmIzk7JiM5O2MtOS4yNi0xMy43My0yMy4yNC0zNC40OC0yOS43My02Ny40N2MtMS43NC04Ljg1LTQuNDgtMTcuMTYtOC4xNy0yNC44YzYuNjYtOS40MywxMi4wNy0yMS41LDE2LjQyLTM2LjU3JiMxMDsmIzk7JiM5OyYjOTtjMC4wMS0wLjAyLDAuMDEtMC4wNCwwLjAyLTAuMDVjNi43OC0yMy44OCwwLjQ3LTM4LjkzLTYuMDMtNDcuMzZjLTMuMTktNC4xMy03LjE2LTcuNjMtMTEuNzYtMTAuMzhsOS4yMy0yMC4wOSYjMTA7JiM5OyYjOTsmIzk7YzEuMTEtMi40MiwxLjQ1LTUuMTEsMC45OC03LjczYy02LjQ1LTM1Ljc4LTEwLjY0LTU5LjM1LTExLjE5LTYzLjA1Yy0wLjYyLTQuMTYtNC43NC0yNS45NC0yNC43Ny00Ni40MyYjMTA7JiM5OyYjOTsmIzk7Yy0xMS4xLTExLjM2LTI1LjE0LTIwLjMzLTQxLjcxLTI2LjY3QzQ2NC4wNCwxMTUuNzgsNDQwLjU4LDExMS45Niw0MTQuMDIsMTExLjk2TDQxNC4wMiwxMTEuOTZ6IiBjbGFzcz0ic3Q2Ii8+JiN4YTsJPC9nPiYjeGE7CTxnIGNsYXNzPSJzdDIiPiYjeGE7CQk8Y2lyY2xlIHI9IjExLjY3IiBjeT0iMzIxLjc2IiBjeD0iMzczLjg1IiBjbGFzcz0ic3Q1Ii8+JiN4YTsJCTxjaXJjbGUgcj0iMTEuNjciIGN5PSIzMjEuNzYiIGN4PSI0NTUuNzIiIGNsYXNzPSJzdDUiLz4mI3hhOwkJPHBhdGggZD0iTTQxNSw0MTguMzljLTIwLjY3LDAtMzEuMTMtMTYuODEtMzEuNTctMTcuNTJjLTIuMDEtMy4zLTAuOTYtNy42MSwyLjM0LTkuNjJjMy4zLTIuMDEsNy42MS0wLjk2LDkuNjIsMi4zNCYjMTA7JiM5OyYjOTsmIzk7YzAuMjUsMC40LDYuOTQsMTAuOCwxOS42MSwxMC44YzEyLjY3LDAsMTkuMzYtMTAuNCwxOS42My0xMC44NGMyLjAxLTMuMyw2LjMtNC4zMyw5LjYxLTIuMzJjMy4zLDIuMDEsNC4zNCw2LjM0LDIuMzMsOS42NCYjMTA7JiM5OyYjOTsmIzk7QzQ0Ni4xMyw0MDEuNTgsNDM1LjY3LDQxOC4zOSw0MTUsNDE4LjM5eiIgY2xhc3M9InN0NSIvPiYjeGE7CQk8Zz4mI3hhOwkJCTxnPiYjeGE7CQkJCTxwYXRoIGQ9Ik00MTguOTgsNjI4LjNsOTYuMDQtNDkuMTZsLTguNzktMzcuMjFsMjkuNDktMTAuNDhsLTguMTQtMjYuNGwtNDMuNzMtMjEuNjNsLTUuNjEtMjQuMzEmIzEwOyYjOTsmIzk7JiM5OyYjOTsmIzk7YzYuMTktNS42OCwxMS44Ny0xMS45MSwxNi45Mi0xOC41MmMxNy40LDY0LjM3LDkxLjQ2LDcwLjMxLDkzLjUzLDU5LjQzYzIuMTYtMTEuMzgtMjkuNS0zNC4xLTQwLjcxLTkxLjA2JiMxMDsmIzk7JiM5OyYjOTsmIzk7JiM5O2MtMi4yNC0xMS4zNy02LjEzLTIwLjgzLTEwLjk3LTI4LjY5YzcuNjMtOC4yMiwxNC4xMy0yMC4yNywxOS40OC0zOC44YzQuMjYtMTQuOTksMi45OC0yNy4wNi0zLjgyLTM1Ljg3JiMxMDsmIzk7JiM5OyYjOTsmIzk7JiM5O2MtNC41NS01LjkxLTEwLjY0LTguOTgtMTUuOTMtMTAuNTdjMC4zOC0zLjE0LDAuNzItNi4zNywxLjAzLTkuNjNjLTYuMDcsNC4xMS0xMy40OSw4LjM0LTIxLjM4LDExLjA1JiMxMDsmIzk7JiM5OyYjOTsmIzk7JiM5O2MtMC4yNCwxLjgtMC40OCwzLjYxLTAuNzUsNS40NWwtMS42LDExLjU1bDExLjY3LTAuMTJjMC4wOCwwLjAxLDcuNzIsMC4wNSwxMS4xMyw0LjUxYzMuMzUsNC4zOCwyLjA2LDEyLjMsMC40MSwxOC4xMiYjMTA7JiM5OyYjOTsmIzk7JiM5OyYjOTtjLTQuMDIsMTMuOTItOC41NCwyMi43My0xMy4xMSwyOC41MWwwLDBjLTQuNjgsNS45NC05LjQxLDguNjgtMTMuNjgsMTAuNDZjLTAuMDQsMC4wMi0wLjA4LDAuMDMtMC4xMiwwLjA1JiMxMDsmIzk7JiM5OyYjOTsmIzk7JiM5O2MtMC4zLDAuMTItMC42LDAuMjQtMC44OSwwLjM2Yy0wLjA2LDAuMDMtMC4xMywwLjA1LTAuMTksMC4wOGMtMC4yNywwLjEtMC41NCwwLjIxLTAuODEsMC4zYy0wLjA3LDAuMDMtMC4xNSwwLjA1LTAuMjIsMC4wOCYjMTA7JiM5OyYjOTsmIzk7JiM5OyYjOTtjLTAuMjcsMC4xLTAuNTMsMC4xOS0wLjc5LDAuMjhjLTAuMDcsMC4wMi0wLjEzLDAuMDUtMC4yLDAuMDdjLTAuMzEsMC4xMS0wLjYyLDAuMjItMC45MywwLjMzbC01LjUxLDEuOTNsLTEuMDIsNS43NSYjMTA7JiM5OyYjOTsmIzk7JiM5OyYjOTtjLTAuMTcsMC45NS0wLjM3LDEuOTQtMC41OSwyLjk0Yy0wLjAyLDAuMDktMC4wNCwwLjE3LTAuMDYsMC4yNmMtMC4yMiwwLjk3LTAuNDYsMS45Ni0wLjczLDIuOTdjLTAuMDMsMC4xMi0wLjA2LDAuMjQtMC4xLDAuMzYmIzEwOyYjOTsmIzk7JiM5OyYjOTsmIzk7Yy0wLjI3LDEuMDEtMC41NywyLjAzLTAuODksMy4wN2MtMC4wNCwwLjEyLTAuMDcsMC4yNC0wLjExLDAuMzZjLTAuMzMsMS4wNi0wLjY5LDIuMTQtMS4wOCwzLjIzYy0wLjAzLDAuMDktMC4wNywwLjE4LTAuMSwwLjI3JiMxMDsmIzk7JiM5OyYjOTsmIzk7JiM5O2MtMC40LDEuMTMtMC44MywyLjI4LTEuMywzLjQ0Yy0wLjAxLDAuMDMtMC4wMiwwLjA2LTAuMDMsMC4wOWMtMS40NiwzLjY1LTMuMiw3LjQzLTUuMjQsMTEuMjYmIzEwOyYjOTsmIzk7JiM5OyYjOTsmIzk7Yy02LjM5LDExLjk3LTE1Ljc1LDI0LjQ3LTI4LjYsMzUuMjhsLTQuNDMsMy43M2w5Ljg5LDU0LjU0bDAuMzQsMC4xNmMtNi42NSwxMC41OC0yMS4yMSwyNC42NC01MS43MSwyNC42NCYjMTA7JiM5OyYjOTsmIzk7JiM5OyYjOTtjLTMyLjQzLDAtNDYuOTYtMTUuODctNTMuMDgtMjYuNmw5LjU2LTUyLjczbC00LjQzLTMuNzNjLTIzLjg3LTIwLjA5LTM1LjcxLTQ1Ljk5LTM4LjgzLTYzLjUybC0xLjAyLTUuNzVsLTUuNTEtMS45MyYjMTA7JiM5OyYjOTsmIzk7JiM5OyYjOTtjLTkuMDMtMy4xNy0yMS40LTcuNS0zMC45Mi00MC40OGMtMS42Ny01Ljg3LTIuOTUtMTMuNzgsMC40LTE4LjE2YzMuMzktNC40NSwxMC45OS00LjUxLDExLjExLTQuNTFjMCwwLDAsMCwwLDBsMTEuNzgsMC4yMyYjMTA7JiM5OyYjOTsmIzk7JiM5OyYjOTtsLTEuNjktMTEuNjZjLTAuMjctMS44NC0wLjUxLTMuNjUtMC43NS01LjQ1Yy03Ljg4LTIuNzEtMTUuMy02Ljk0LTIxLjM4LTExLjA1YzAuMzEsMy4yNiwwLjY1LDYuNDksMS4wMyw5LjYzJiMxMDsmIzk7JiM5OyYjOTsmIzk7JiM5O2MtNS4yOSwxLjU5LTExLjM4LDQuNjYtMTUuOTMsMTAuNTdjLTYuNzksOC44MS04LjA4LDIwLjg4LTMuODEsMzUuOTFjOS4yOCwzMi4xNCwyMi4wNCw0NC43OCwzOC4xNiw1MS43NiYjMTA7JiM5OyYjOTsmIzk7JiM5OyYjOTtjNS42NCwyMy42OCwyMC4yLDQ3LjYzLDQwLjA3LDY1Ljg1bC00LjQ4LDI0LjcybC00NC4wNSwyMS43OGwtNy45NiwyNS44Mmw4LjMyLDIuOTZsMjEuMTcsNy41MkwzMTQsNTc5LjE1bDk3LjM1LDQ5LjgzJiMxMDsmIzk7JiM5OyYjOTsmIzk7JiM5O2wtNy4wNC0xNC40M2wtMzIuODQtNzQuMDVjMTAuNjUsNS44OSwyNC44NiwxMC4yNiw0My41NywxMC4yNmMxOC43LDAsMzIuODgtNC4zNyw0My41LTEwLjI1bC0zMi44Myw3NC4wNEw0MTguOTgsNjI4LjN6IiBjbGFzcz0ic3Q1Ii8+JiN4YTsJCQkJPHBhdGggZD0iTTYyNC45MSw1NjQuMTNjLTE5LjctMTkuNzEtNDMuNDktMzUuNTUtODUuMDQtNTMuMTRsOC4yMywyNi42N2wtMzAuMDgsMTAuNjlsOC41MywzNi4xMkw0MjAsNjM5LjAydjU4LjczJiMxMDsmIzk7JiM5OyYjOTsmIzk7JiM5O2gyMzkuMzJDNjU4Ljk1LDY4Mi44Miw2NTUuMzgsNTk0LjU3LDYyNC45MSw1NjQuMTN6IE01NzAuMzEsNjUzLjk0aC05MC40OXYtMTRoOTAuNDlWNjUzLjk0eiIgY2xhc3M9InN0NSIvPiYjeGE7CQkJCTxwYXRoIGQ9Ik0zMTAuOTksNTQ4LjM2bC0zMC4wOC0xMC42OWw4LjA4LTI2LjE5Yy00MC44NSwxNy4zOS02NC4zOSwzMy4xMi04My45MSw1Mi42NSYjMTA7JiM5OyYjOTsmIzk7JiM5OyYjOTtjLTMwLjQ2LDMwLjQ0LTM0LjA0LDExOC42OS0zNC40LDEzMy42Mkg0MTB2LTU4LjIzbC0xMDcuNTQtNTUuMDRMMzEwLjk5LDU0OC4zNnogTTM1MC4xOSw2MzkuOTR2MTRoLTkwLjQ5di0xNEgzNTAuMTl6IiBjbGFzcz0ic3Q1Ii8+JiN4YTsJCQkJPHBhdGggZD0iTTU0OC42MiwyNjEuNzhjLTIuODQtMTUuNzItMTAuNDItNTcuODYtMTEuMjYtNjMuNDRjLTEuMDMtNi44OC0xNC40LTczLjM4LTEyMy4zNS03My4zOCYjMTA7JiM5OyYjOTsmIzk7JiM5OyYjOTtjLTEwOC45NSwwLTEyMi4zMiw2Ni41LTEyMy4zNSw3My4zOGMtMC44Myw1LjU4LTguNDIsNDcuNzItMTEuMjYsNjMuNDRjMTIuNC0xMS4yNCw1MC41NC0zNy43MiwxMzQuNi0zNy43MiYjMTA7JiM5OyYjOTsmIzk7JiM5OyYjOTtDNDk4LjA4LDIyNC4wNSw1MzYuMjIsMjUwLjUzLDU0OC42MiwyNjEuNzh6IiBjbGFzcz0ic3Q1Ii8+JiN4YTsJCQk8L2c+JiN4YTsJCQk8cGF0aCBkPSJNNDE0LjAyLDI3My42YzIwLjUyLDAsMzguNDMsNS4wMiw1NC4yNCw5LjQ2YzEzLjI4LDMuNzIsMjQuNzUsNi45NCwzNC40NCw2LjIzJiMxMDsmIzk7JiM5OyYjOTsmIzk7YzE1LjUzLTEuMTQsMzIuMjEtMTMuNjUsMzkuNTItMTkuNzhjLTQuMDMtMy42Ny0xMS45MS05Ljg1LTI0LjcyLTE1Ljk3Yy0xOC41OS04Ljg5LTUxLjYzLTE5LjQ5LTEwMy40OC0xOS40OSYjMTA7JiM5OyYjOTsmIzk7JiM5O3MtODQuODgsMTAuNi0xMDMuNDgsMTkuNDljLTEyLjgxLDYuMTMtMjAuNjksMTIuMy0yNC43MiwxNS45N2M3LjMxLDYuMTMsMjMuOTgsMTguNjMsMzkuNTIsMTkuNzgmIzEwOyYjOTsmIzk7JiM5OyYjOTtjOS42OSwwLjcxLDIxLjE3LTIuNSwzNC40NC02LjIzQzM3NS41OCwyNzguNjMsMzkzLjUsMjczLjYsNDE0LjAyLDI3My42eiIgY2xhc3M9InN0NSIvPiYjeGE7CQk8L2c+JiN4YTsJPC9nPiYjeGE7PC9nPiYjeGE7PGcgY2xhc3M9InN0MCIgaWQ9Il94MzRfOF94NUZfTlfliKnnlKjogIVfeEZGMDhf5aWz5oCnX3hGRjA5XyI+JiN4YTsJPGcgY2xhc3M9InN0MiI+JiN4YTsJCTxwYXRoIGQ9Ik00MTYuODgsMTIxLjU3QzQxNi44OCwxMjEuNTcsNDE2Ljg4LDEyMS41Nyw0MTYuODgsMTIxLjU3Yy0wLjk5LDAtMS43OSwwLjAxLTIuMzgsMC4wMyYjMTA7JiM5OyYjOTsmIzk7Yy0wLjU4LTAuMDItMS4zOC0wLjAzLTIuMzctMC4wM2MtNy43MywwLTI4LjIzLDAuOS01MS43Nyw5LjI3Yy0yOS45NCwxMC42NC01My45LDI5LjEtNzEuMjIsNTQuODcmIzEwOyYjOTsmIzk7JiM5O2MtMTUuOTUsMjMuNzMtMjYuMDEsNDcuNjgtMzAuNzUsNzMuMjFjLTQuNjYsMjUuMTEtMy43Myw0OS4zOS0yLjIsNjkuODRjMC4wNCwwLjc0LDAuMSwxLjUzLDAuMTksMi40MSYjMTA7JiM5OyYjOTsmIzk7YzAuNjQsOC4xNywxLjQyLDE2LjI4LDIuMjQsMjQuODdjMC4yOSwzLjAxLDAuNTgsNi4wNiwwLjg3LDkuMTJjMy45OSw0Mi41NC05LjEyLDYxLjk1LTE2Ljk2LDczLjU1JiMxMDsmIzk7JiM5OyYjOTtjLTQuNTcsNi43Ni05LjI5LDEzLjc2LTYuNCwyMi40M2MyLjg4LDguNjMsMTEuNDQsMTEuNTgsMTQuNjYsMTIuNjljMTYuNDMsNS42NiwzNS44Niw4LjY2LDU2LjIsOC42NiYjMTA7JiM5OyYjOTsmIzk7YzguNjIsMCwxNy4xOS0wLjU0LDI1LjY0LTEuNjFsLTAuMTgsMC45N2wtMTMuNzYsNC44NGMtMC43MSwwLjExLTEuNDEsMC4yOS0yLjExLDAuNTJsLTE1LjI1LDUuMTdjLTAuMiwwLjA3LTAuMzksMC4xNC0wLjU5LDAuMjEmIzEwOyYjOTsmIzk7JiM5O2MtMS40OCwwLjU4LTIuOTMsMS4xNi00LjM2LDEuNzNjLTEuMzEsMC41Mi0yLjYsMS4wNS0zLjg5LDEuNTdMMjkyLjMsNDk2Yy0wLjQ4LDAuMTctMC45NCwwLjM2LTEuMzksMC41OCYjMTA7JiM5OyYjOTsmIzk7Yy0wLjksMC4zNy0xLjc5LDAuNzQtMi42OCwxLjExbC0wLjM5LDAuMTZsLTAuNTgsMC4yNGMtMS4wNCwwLjQzLTIuMDUsMC44Ny0zLjA3LDEuM2wtMC40NCwwLjE5bC0wLjc5LDAuMzMmIzEwOyYjOTsmIzk7JiM5O2MtMC45NiwwLjQxLTEuOTEsMC44Mi0yLjg1LDEuMjNsLTAuNDMsMC4xOWwtMC45MSwwLjRjLTAuOTEsMC40LTEuOCwwLjc5LTIuNjgsMS4xOWwtMC4zMywwLjE1bC0xLjA3LDAuNDcmIzEwOyYjOTsmIzk7JiM5O2MtMC44NiwwLjM4LTEuNywwLjc3LTIuNTUsMS4xNWwtMC4xNCwwLjA2bC0xLjI5LDAuNTljLTAuODIsMC4zOC0xLjYzLDAuNzUtMi40MywxLjEyYy0wLjQ4LDAuMjItMC45NiwwLjQ1LTEuNDMsMC42NyYjMTA7JiM5OyYjOTsmIzk7Yy0wLjc5LDAuMzctMS41NywwLjc0LTIuMzUsMS4xMmMtMC40NywwLjIyLTAuOTMsMC40NS0xLjQsMC42N2MtMC43NywwLjM3LTEuNTMsMC43NC0yLjI5LDEuMTFjLTAuNDYsMC4yMy0wLjkyLDAuNDUtMS4zNywwLjY4JiMxMDsmIzk7JiM5OyYjOTtjLTAuNzUsMC4zNy0xLjQ5LDAuNzQtMi4yMiwxLjExYy0wLjM5LDAuMi0wLjc3LDAuMzktMS4xNSwwLjU5bC0wLjE3LDAuMDljLTAuNzMsMC4zNy0xLjQ2LDAuNzQtMi4xNywxLjExJiMxMDsmIzk7JiM5OyYjOTtjLTAuMzMsMC4xNy0wLjY1LDAuMzQtMC45NywwLjUxbC0wLjMxLDAuMTZjLTAuNzIsMC4zOC0xLjQzLDAuNzUtMi4xMywxLjEzYy0wLjI5LDAuMTUtMC41OCwwLjMxLTAuODYsMC40N2wtMC4zNCwwLjE4JiMxMDsmIzk7JiM5OyYjOTtsLTAuMDUsMC4wM2MtMC42OSwwLjM3LTEuMzksMC43NS0yLjA3LDEuMTJjLTAuMjUsMC4xNC0wLjUsMC4yNy0wLjc0LDAuNDFsLTAuMzcsMC4ybC0wLjEzLDAuMDdjLTAuNjcsMC4zNy0xLjM0LDAuNzQtMiwxLjEyJiMxMDsmIzk7JiM5OyYjOTtjLTAuMjEsMC4xMi0wLjQxLDAuMjQtMC42MiwwLjM1bC0wLjMyLDAuMThsLTAuMTMsMC4wOGMtMC43LDAuNC0xLjQsMC44LTIuMDksMS4ybC0wLjI0LDAuMTRsLTAuMDUsMC4wMyYjMTA7JiM5OyYjOTsmIzk7Yy0yLjUzLDEuNDgtNS4wOCwzLjAzLTcuNTYsNC41OWwtMC4zNCwwLjIyYy0wLjIzLDAuMTQtMC40NSwwLjI4LTAuNjcsMC40M2MtMC40NywwLjMtMC45MywwLjYtMS4zOSwwLjlsLTAuMywwLjJsLTAuMzUsMC4yMyYjMTA7JiM5OyYjOTsmIzk7Yy0wLjI4LDAuMTgtMC41NSwwLjM2LTAuODMsMC41NGMtMC40NSwwLjMtMC44OSwwLjU5LTEuMzMsMC44OWwtMC4yNCwwLjE2bC0wLjI4LDAuMTljLTAuMzIsMC4yMS0wLjY0LDAuNDMtMC45NiwwLjY0JiMxMDsmIzk7JiM5OyYjOTtjLTAuNDUsMC4zMS0wLjksMC42Mi0xLjM0LDAuOTJsLTAuMTUsMC4xbC0wLjE5LDAuMTNjLTAuMzUsMC4yNC0wLjcxLDAuNDktMS4wNSwwLjczYy0wLjQ3LDAuMzMtMC45MywwLjY2LTEuMzksMC45OSYjMTA7JiM5OyYjOTsmIzk7Yy0wLjQ0LDAuMzItMC44NiwwLjYyLTEuMjgsMC45MmMtMC40NiwwLjMzLTAuOTEsMC42Ny0xLjM2LDFjLTAuNDIsMC4zMS0wLjg0LDAuNjItMS4yNSwwLjkzYy0wLjQ0LDAuMzMtMC44NywwLjY2LTEuMywwLjk5JiMxMDsmIzk7JiM5OyYjOTtjLTAuNDIsMC4zMi0wLjg0LDAuNjQtMS4yNiwwLjk3Yy0wLjQyLDAuMzItMC44NCwwLjY1LTEuMjUsMC45OGMtMC40MiwwLjMzLTAuODMsMC42Ni0xLjI0LDAuOTljLTAuNDEsMC4zMy0wLjgxLDAuNjUtMS4yMSwwLjk4JiMxMDsmIzk7JiM5OyYjOTtjLTAuNDEsMC4zNC0wLjgzLDAuNjctMS4yNCwxLjAxYy0wLjM5LDAuMzItMC43OCwwLjY0LTEuMTYsMC45N2MtMC40MiwwLjM1LTAuODMsMC43LTEuMjQsMS4wNWwtMC4xMiwwLjExJiMxMDsmIzk7JiM5OyYjOTtjLTAuMzMsMC4yOC0wLjY2LDAuNTYtMC45OSwwLjg1Yy0wLjQyLDAuMzYtMC44MywwLjczLTEuMjUsMS4wOWwtMC4yMSwwLjE5Yy0wLjI4LDAuMjUtMC41NywwLjUtMC44NSwwLjc1JiMxMDsmIzk7JiM5OyYjOTtjLTAuMzksMC4zNC0wLjc3LDAuNjktMS4xNSwxLjA0bC0wLjEyLDAuMTFsLTAuMjcsMC4yNGMtMC4yNCwwLjIyLTAuNDksMC40NC0wLjczLDAuNjZjLTAuNCwwLjM2LTAuNzksMC43My0xLjE5LDEuMWwtMC4xMywwLjEzJiMxMDsmIzk7JiM5OyYjOTtsLTAuMjgsMC4yNmMtMC4yMSwwLjE5LTAuNDIsMC4zOS0wLjYyLDAuNThjLTAuNDgsMC40NS0wLjk1LDAuOTEtMS40MiwxLjM2bC0wLjA0LDAuMDRsLTAuMjMsMC4yMiYjMTA7JiM5OyYjOTsmIzk7Yy0wLjE2LDAuMTYtMC4zMywwLjMxLTAuNDksMC40N2MtMC43MiwwLjctMS40NCwxLjQxLTIuMTUsMi4xMmMtMTQuNzksMTQuNzgtMjUuNTksNDEuNTctMzIuMTEsNzkuNjImIzEwOyYjOTsmIzk7JiM5O2MtNC45NCwyOC44NS01LjkxLDU1LjQyLTYuMSw2Mi44N2MtMC4wOSwzLjUsMS4yNSw2Ljg5LDMuNjksOS40YzIuNDUsMi41MSw1LjgsMy45Miw5LjMsMy45Mmg0ODYuNjdjMy41LDAsNi44Ni0xLjQxLDkuMy0zLjkyJiMxMDsmIzk7JiM5OyYjOTtjMi40NS0yLjUxLDMuNzgtNS44OSwzLjY5LTkuNGMtMC4xOC03LjQ2LTEuMTYtMzQuMDItNi4xLTYyLjg3Yy02LjUxLTM4LjA2LTE3LjMyLTY0Ljg1LTMyLjExLTc5LjYzJiMxMDsmIzk7JiM5OyYjOTtjLTAuNy0wLjctMS40Mi0xLjQxLTIuMTQtMi4xMWMtMC4xNi0wLjE2LTAuMzItMC4zMS0wLjQ5LTAuNDdsLTAuMjMtMC4yMmwtMC4wNi0wLjA1Yy0wLjQ3LTAuNDUtMC45My0wLjktMS40MS0xLjM1JiMxMDsmIzk7JiM5OyYjOTtjLTAuMjEtMC4yLTAuNDItMC40LTAuNjQtMC42bC0wLjI3LTAuMjVsLTAuMTMtMC4xMmMtMC4zOS0wLjM3LTAuNzgtMC43My0xLjE4LTEuMDljLTAuMjQtMC4yMi0wLjQ5LTAuNDUtMC43My0wLjY3bC0wLjI3LTAuMjQmIzEwOyYjOTsmIzk7JiM5O2wtMC4xMS0wLjFjLTAuMzgtMC4zNS0wLjc3LTAuNjktMS4xNS0xLjA0Yy0wLjI4LTAuMjUtMC41Ny0wLjUtMC44NS0wLjc1bC0wLjIxLTAuMThjLTAuNDEtMC4zNi0wLjgzLTAuNzMtMS4yNS0xLjA5JiMxMDsmIzk7JiM5OyYjOTtjLTAuMzItMC4yOC0wLjY1LTAuNTYtMC45OC0wLjg0bC0wLjEzLTAuMTFjLTAuNDEtMC4zNS0wLjgzLTAuNy0xLjI1LTEuMDVjLTAuMzgtMC4zMi0wLjc3LTAuNjQtMS4xNi0wLjk3JiMxMDsmIzk7JiM5OyYjOTtjLTAuNDEtMC4zNC0wLjgyLTAuNjgtMS4yNC0xLjAxYy0wLjQtMC4zMy0wLjgxLTAuNjUtMS4yMS0wLjk4Yy0wLjQxLTAuMzMtMC44My0wLjY2LTEuMjUtMC45OWMtMC40MS0wLjMzLTAuODMtMC42NS0xLjI1LTAuOTgmIzEwOyYjOTsmIzk7JiM5O2MtMC40Mi0wLjMyLTAuODQtMC42NC0xLjI1LTAuOTZjLTAuNDMtMC4zMy0wLjg3LTAuNjYtMS4zLTAuOTljLTAuNDItMC4zMS0wLjgzLTAuNjItMS4yNS0wLjkzYy0wLjQ1LTAuMzMtMC45LTAuNjctMS4zNi0xJiMxMDsmIzk7JiM5OyYjOTtjLTAuNDItMC4zLTAuODQtMC42LTEuMjYtMC45bC0wLjA0LTAuMDNjLTAuNDYtMC4zMy0wLjkxLTAuNjUtMS4zNy0wLjk3Yy0wLjM0LTAuMjQtMC42OS0wLjQ4LTEuMDQtMC43MmwtMC4yMi0wLjE1bC0wLjEyLTAuMDgmIzEwOyYjOTsmIzk7JiM5O2MtMC40NS0wLjMxLTAuOS0wLjYzLTEuMzYtMC45NGMtMC4zMS0wLjIxLTAuNjItMC40Mi0wLjk0LTAuNjNsLTAuMy0wLjJsLTAuMjUtMC4xN2MtMC40NC0wLjI5LTAuODctMC41OS0xLjMyLTAuODgmIzEwOyYjOTsmIzk7JiM5O2MtMC4yOC0wLjE5LTAuNTYtMC4zNy0wLjg1LTAuNTVsLTAuMzQtMC4yMmwtMC4zMS0wLjJjLTAuNDYtMC4zLTAuOTItMC42LTEuMzgtMC45Yy0wLjIyLTAuMTQtMC40My0wLjI3LTAuNjUtMC40MWwtMC4zMy0wLjIxJiMxMDsmIzk7JiM5OyYjOTtjLTIuNDgtMS41Ny01LjAzLTMuMTItNy41OC00LjYxbC0wLjA2LTAuMDNsLTAuMjUtMC4xNWMtMC42OC0wLjQtMS4zOC0wLjc5LTIuMDctMS4xOWwtMC4xNC0wLjA4bC0wLjMzLTAuMTkmIzEwOyYjOTsmIzk7JiM5O2MtMC4yMS0wLjEyLTAuNDEtMC4yNC0wLjYyLTAuMzZjLTAuNjQtMC4zNi0xLjMtMC43My0xLjk1LTEuMDlsLTAuMTYtMC4wOWwtMC4zNi0wLjJjLTAuMjUtMC4xNC0wLjUxLTAuMjgtMC43Ny0wLjQzJiMxMDsmIzk7JiM5OyYjOTtjLTAuNjctMC4zNy0xLjM2LTAuNzQtMi4wNS0xLjExbC0wLjA1LTAuMDNsLTAuMzUtMC4xOWMtMC4yOS0wLjE2LTAuNTgtMC4zMS0wLjg4LTAuNDdjLTAuNy0wLjM3LTEuNDEtMC43NS0yLjEyLTEuMTJsLTAuMjktMC4xNSYjMTA7JiM5OyYjOTsmIzk7Yy0wLjMzLTAuMTctMC42Ni0wLjM1LTAuOTktMC41MmMtMC43MS0wLjM3LTEuNDQtMC43NC0yLjE2LTEuMTFsLTAuMTItMC4wNmMtMC40MS0wLjIxLTAuODEtMC40Mi0xLjIzLTAuNjImIzEwOyYjOTsmIzk7JiM5O2MtMC43My0wLjM3LTEuNDYtMC43My0yLjItMS4xYy0wLjQ2LTAuMjMtMC45Mi0wLjQ2LTEuMzktMC42OWMtMC43NS0wLjM3LTEuNTEtMC43NC0yLjI3LTEuMTFjLTAuNDctMC4yMy0wLjk0LTAuNDUtMS40MS0wLjY4JiMxMDsmIzk7JiM5OyYjOTtjLTAuNzctMC4zNy0xLjU1LTAuNzQtMi4zNC0xLjExYy0wLjQ4LTAuMjMtMC45Ni0wLjQ1LTEuNDQtMC42OGMtMC44LTAuMzctMS42MS0wLjc1LTIuNDItMS4xMmwtMS4zNS0wLjYybC0wLjA5LTAuMDQmIzEwOyYjOTsmIzk7JiM5O2MtMC44NC0wLjM4LTEuNjgtMC43Ny0yLjU0LTEuMTVsLTEuMDUtMC40N2wtMC4zNS0wLjE2Yy0wLjg5LTAuMzktMS43Ny0wLjc5LTIuNjgtMS4xOGwtMC45NC0wLjQxbC0wLjQyLTAuMTgmIzEwOyYjOTsmIzk7JiM5O2MtMC45NC0wLjQxLTEuODgtMC44Mi0yLjg0LTEuMjNsLTAuOC0wLjM0bC0wLjQ0LTAuMTljLTEuMDEtMC40My0yLjAzLTAuODYtMy4wNi0xLjI5bC0wLjYtMC4yNWwtMC4zOS0wLjE2JiMxMDsmIzk7JiM5OyYjOTtjLTAuODgtMC4zNy0xLjc3LTAuNzQtMi42Ny0xLjExYy0wLjQ0LTAuMjItMC45MS0wLjQxLTEuMzgtMC41OGwtMC4yMi0wLjA4Yy0xLjI4LTAuNTItMi41OC0xLjA1LTMuODktMS41OCYjMTA7JiM5OyYjOTsmIzk7Yy0xLjQzLTAuNTctMi44OC0xLjE1LTQuMzYtMS43M2MtMC4xOS0wLjA4LTAuMzktMC4xNS0wLjU5LTAuMjFsLTE1LjI1LTUuMTdjLTAuNjktMC4yNC0xLjQtMC40MS0yLjExLTAuNTJsLTEzLjc1LTQuODQmIzEwOyYjOTsmIzk7JiM5O2wtMC4wOS0wLjQ3YzYuNDYsMC43MywxMi45NywxLjA5LDE5LjUsMS4wOWMxOC41NCwwLDM3LjAyLTIuOTksNTMuNDItOC42NWM1LjA1LTEuNzQsMTIuMTItNC45LDE1LjI2LTEyLjIzJiMxMDsmIzk7JiM5OyYjOTtjMy41LTguMTYsMC4xOC0xNS40Ni0zLjM0LTIzLjE5Yy01LjQ4LTEyLjA0LTE0LjY2LTMyLjItMTAuODEtNzMuMjVjMC4yOS0zLjA4LDAuNTgtNi4xNCwwLjg3LTkuMTcmIzEwOyYjOTsmIzk7JiM5O2MyLjc2LTI4Ljc5LDUuMzctNTUuOTgsMi4yNC04My41MmMtMy41NC0zMS4yMS0xMy45Ni01OC43OC0zMi43Ny04Ni43N2MtMTcuMzItMjUuNzctNDEuMjgtNDQuMjMtNzEuMjItNTQuODcmIzEwOyYjOTsmIzk7JiM5O0M0NDUuMTIsMTIyLjQ4LDQyNC42MSwxMjEuNTgsNDE2Ljg4LDEyMS41N0w0MTYuODgsMTIxLjU3eiIgY2xhc3M9InN0NiIvPiYjeGE7CTwvZz4mI3hhOwk8ZyBjbGFzcz0ic3QyIj4mI3hhOwkJPGNpcmNsZSByPSIxMS42NyIgY3k9IjMyMS43NiIgY3g9IjM3My44NSIgY2xhc3M9InN0NSIvPiYjeGE7CQk8Y2lyY2xlIHI9IjExLjY3IiBjeT0iMzIxLjc2IiBjeD0iNDU1LjcyIiBjbGFzcz0ic3Q1Ii8+JiN4YTsJCTxwYXRoIGQ9Ik00MTUsNDE4LjM5Yy0yMC42NywwLTMxLjEzLTE2LjgxLTMxLjU3LTE3LjUyYy0yLjAxLTMuMy0wLjk2LTcuNjEsMi4zNC05LjYyYzMuMy0yLjAxLDcuNjEtMC45Niw5LjYyLDIuMzQmIzEwOyYjOTsmIzk7JiM5O2MwLjI1LDAuNCw2Ljk0LDEwLjgsMTkuNjEsMTAuOGMxMi42NywwLDE5LjM2LTEwLjQsMTkuNjMtMTAuODRjMi4wMS0zLjMsNi4zLTQuMzMsOS42MS0yLjMyYzMuMywyLjAxLDQuMzQsNi4zNCwyLjMzLDkuNjQmIzEwOyYjOTsmIzk7JiM5O0M0NDYuMTMsNDAxLjU4LDQzNS42Nyw0MTguMzksNDE1LDQxOC4zOXoiIGNsYXNzPSJzdDUiLz4mI3hhOwkJPHBhdGggZD0iTTYyMi45NSw1NjQuMTNjLTAuNjctMC42Ny0xLjM0LTEuMzMtMi4wMi0xLjk5Yy0wLjIyLTAuMjItMC40NS0wLjQzLTAuNjctMC42NSYjMTA7JiM5OyYjOTsmIzk7Yy0wLjQ2LTAuNDQtMC45MS0wLjg4LTEuMzctMS4zMmMtMC4yOC0wLjI3LTAuNTctMC41My0wLjg1LTAuNzljLTAuNDEtMC4zOC0wLjgyLTAuNzYtMS4yMy0xLjE0Yy0wLjMxLTAuMjktMC42My0wLjU3LTAuOTQtMC44NSYjMTA7JiM5OyYjOTsmIzk7Yy0wLjM5LTAuMzYtMC43OC0wLjcxLTEuMTgtMS4wNmMtMC4zMy0wLjI5LTAuNjYtMC41OC0wLjk5LTAuODhjLTAuMzktMC4zNC0wLjc4LTAuNjgtMS4xNy0xLjAyYy0wLjM0LTAuMy0wLjY5LTAuNTktMS4wNC0wLjg5JiMxMDsmIzk7JiM5OyYjOTtjLTAuMzktMC4zMy0wLjc3LTAuNjYtMS4xNi0wLjk4Yy0wLjM2LTAuMy0wLjcyLTAuNi0xLjA5LTAuOWMtMC4zOC0wLjMyLTAuNzctMC42My0xLjE2LTAuOTVjLTAuMzgtMC4zLTAuNzUtMC42MS0xLjEzLTAuOTEmIzEwOyYjOTsmIzk7JiM5O2MtMC4zOS0wLjMxLTAuNzgtMC42Mi0xLjE3LTAuOTNjLTAuMzktMC4zMS0wLjc4LTAuNjEtMS4xOC0wLjkyYy0wLjM5LTAuMy0wLjc4LTAuNi0xLjE3LTAuOWMtMC40MS0wLjMxLTAuODEtMC42Mi0xLjIyLTAuOTImIzEwOyYjOTsmIzk7JiM5O2MtMC4zOS0wLjI5LTAuNzgtMC41OC0xLjE4LTAuODdjLTAuNDItMC4zMS0wLjg1LTAuNjMtMS4yOC0wLjk0Yy0wLjM5LTAuMjgtMC43OC0wLjU2LTEuMTgtMC44NWMtMC40NC0wLjMyLTAuODgtMC42My0xLjMzLTAuOTUmIzEwOyYjOTsmIzk7JiM5O2MtMC4zOS0wLjI3LTAuNzktMC41NS0xLjE4LTAuODJjLTAuNDYtMC4zMi0wLjkzLTAuNjQtMS40LTAuOTZjLTAuMzgtMC4yNi0wLjc4LTAuNTItMS4xNi0wLjc4Yy0wLjQ5LTAuMzMtMC45OC0wLjY2LTEuNDgtMC45OSYjMTA7JiM5OyYjOTsmIzk7Yy0wLjM3LTAuMjQtMC43NS0wLjQ5LTEuMTItMC43M2MtMC41My0wLjM1LTEuMDYtMC42OS0xLjYtMS4wNGMtMC4zMS0wLjItMC42Mi0wLjM5LTAuOTMtMC41OWMtMi4zMi0xLjQ2LTQuNzEtMi45Mi03LjE5LTQuMzgmIzEwOyYjOTsmIzk7JiM5O2MtMC4xLTAuMDYtMC4xOS0wLjExLTAuMjktMC4xN2MtMC42OS0wLjQtMS40LTAuODEtMi4xMS0xLjIxYy0wLjMtMC4xNy0wLjYtMC4zNS0wLjktMC41MmMtMC42Ni0wLjM4LTEuMzQtMC43NS0yLjAyLTEuMTMmIzEwOyYjOTsmIzk7JiM5O2MtMC4zNi0wLjItMC43Mi0wLjQtMS4wOC0wLjZjLTAuNjYtMC4zNi0xLjM0LTAuNzMtMi4wMS0xLjA5Yy0wLjM5LTAuMjEtMC43OC0wLjQyLTEuMTctMC42M2MtMC42Ny0wLjM2LTEuMzYtMC43Mi0yLjA0LTEuMDgmIzEwOyYjOTsmIzk7JiM5O2MtMC40MS0wLjIyLTAuODItMC40My0xLjIzLTAuNjVjLTAuNjktMC4zNi0xLjM4LTAuNzEtMi4wOC0xLjA3Yy0wLjQzLTAuMjItMC44Ni0wLjQ0LTEuMjktMC42NmMtMC43LTAuMzUtMS40MS0wLjcxLTIuMTMtMS4wNiYjMTA7JiM5OyYjOTsmIzk7Yy0wLjQ0LTAuMjItMC44OS0wLjQ0LTEuMzQtMC42NmMtMC43My0wLjM2LTEuNDYtMC43MS0yLjItMS4wN2MtMC40NS0wLjIyLTAuOTEtMC40NC0xLjM2LTAuNjZjLTAuNzUtMC4zNi0xLjUtMC43Mi0yLjI3LTEuMDgmIzEwOyYjOTsmIzk7JiM5O2MtMC40Ni0wLjIyLTAuOTMtMC40NC0xLjQtMC42NmMtMC43OC0wLjM2LTEuNTYtMC43My0yLjM1LTEuMDljLTAuNDYtMC4yMS0wLjkzLTAuNDItMS4zOS0wLjY0Yy0wLjgyLTAuMzctMS42NC0wLjc0LTIuNDctMS4xMiYjMTA7JiM5OyYjOTsmIzk7Yy0wLjQ1LTAuMi0wLjkxLTAuNDEtMS4zNy0wLjYxYy0wLjg2LTAuMzgtMS43My0wLjc3LTIuNjEtMS4xNWMtMC40NC0wLjE5LTAuODgtMC4zOC0xLjMyLTAuNTdjLTAuOTItMC40LTEuODQtMC44LTIuNzctMS4yJiMxMDsmIzk7JiM5OyYjOTtjLTAuNC0wLjE3LTAuODEtMC4zNC0xLjIxLTAuNTFjLTAuOTktMC40Mi0xLjk4LTAuODQtMi45OS0xLjI3Yy0wLjMyLTAuMTMtMC42NS0wLjI3LTAuOTctMC40Yy0xLjExLTAuNDYtMi4yMy0wLjkzLTMuMzctMS40JiMxMDsmIzk7JiM5OyYjOTtjMCwwLDAsMCwwLDBsMC4wMS0wLjAybC0wLjUyLTAuMThjLTAuMDEsMC0wLjAyLTAuMDEtMC4wMi0wLjAxYy0xLjM1LTAuNTUtMi43MS0xLjEtNC4wOS0xLjY2Yy0xLjQxLTAuNTctMi44My0xLjEzLTQuMjgtMS43JiMxMDsmIzk7JiM5OyYjOTtsLTE1LjI1LTUuMTdjMCwwLDAsMC4wOCwwLjAxLDAuMjJsLTIzLjE0LTguMTRsLTQuNzQtMjYuMTJjMzAuNDcsNi45NSw2MC45LDQuMjgsODQuNzgtMy45NWMyNC4xNy04LjMzLTE1LjA5LTE3LjU5LTcuNTktOTcuNTkmIzEwOyYjOTsmIzk7JiM5O2M1LjcyLTYxLjA1LDEyLjk2LTExMC43OS0yNy41LTE3MWMtNDAtNTkuNTEtMTA4LjE1LTU4LjU4LTExNC41Ny01OC4zNWMtNi40Mi0wLjIzLTc0LjU4LTEuMTYtMTE0LjU3LDU4LjM1JiMxMDsmIzk7JiM5OyYjOTtjLTMyLjIzLDQ3Ljk2LTM0LjE5LDg5LjI4LTMwLjc3LDEzNC45NmMwLjA0LDAuNywwLjEsMS40MSwwLjE2LDIuMTNjMC44NiwxMC45OSwyLjAxLDIyLjI0LDMuMSwzMy45MSYjMTA7JiM5OyYjOTsmIzk7YzcuNSw4MC00MS41Nyw4OS4yNi0xNy40MSw5Ny41OWMyNC41OSw4LjQ4LDU5LjU0LDExLjA4LDkzLjcyLDMuMzJsLTQuODUsMjYuNzRsLTIzLjE0LDguMTRjMC0wLjE0LDAuMDEtMC4yMiwwLjAxLTAuMjImIzEwOyYjOTsmIzk7JiM5O2wtMTUuMjUsNS4xN2MtMS40NSwwLjU3LTIuODcsMS4xNC00LjI4LDEuN2MtMS4zOSwwLjU2LTIuNzUsMS4xMS00LjExLDEuNjZjMCwwLDAsMC0wLjAxLDBsLTAuNTIsMC4xOGwwLjAxLDAuMDNjMCwwLDAsMCwwLDAmIzEwOyYjOTsmIzk7JiM5O2MtMS4xNSwwLjQ3LTIuMjcsMC45NC0zLjQsMS40MWMtMC4zMSwwLjEzLTAuNjMsMC4yNi0wLjk0LDAuMzljLTEuMDEsMC40Mi0yLjAxLDAuODUtMywxLjI3Yy0wLjQsMC4xNy0wLjgxLDAuMzQtMS4yMSwwLjUxJiMxMDsmIzk7JiM5OyYjOTtjLTAuOTQsMC40LTEuODYsMC44LTIuNzgsMS4yYy0wLjQ0LDAuMTktMC44OCwwLjM4LTEuMzEsMC41N2MtMC44OCwwLjM5LTEuNzUsMC43Ny0yLjYyLDEuMTZjLTAuNDUsMC4yLTAuOTEsMC40LTEuMzYsMC42MSYjMTA7JiM5OyYjOTsmIzk7Yy0wLjgzLDAuMzctMS42NiwwLjc1LTIuNDgsMS4xMmMtMC40NiwwLjIxLTAuOTMsMC40Mi0xLjM5LDAuNjNjLTAuNzksMC4zNi0xLjU4LDAuNzMtMi4zNiwxLjA5Yy0wLjQ3LDAuMjItMC45MywwLjQ0LTEuMzksMC42NSYjMTA7JiM5OyYjOTsmIzk7Yy0wLjc3LDAuMzYtMS41MiwwLjcyLTIuMjcsMS4wOGMtMC40NSwwLjIyLTAuOSwwLjQzLTEuMzUsMC42NWMtMC43NCwwLjM2LTEuNDgsMC43Mi0yLjIxLDEuMDhjLTAuNDQsMC4yMi0wLjg4LDAuNDQtMS4zMiwwLjY1JiMxMDsmIzk7JiM5OyYjOTtjLTAuNzIsMC4zNi0xLjQ0LDAuNzItMi4xNCwxLjA3Yy0wLjQzLDAuMjItMC44NSwwLjQzLTEuMjgsMC42NWMtMC43LDAuMzYtMS40LDAuNzItMi4wOSwxLjA3Yy0wLjQxLDAuMjEtMC44MiwwLjQzLTEuMjMsMC42NCYjMTA7JiM5OyYjOTsmIzk7Yy0wLjY5LDAuMzYtMS4zNywwLjcyLTIuMDUsMS4wOGMtMC4zOSwwLjIxLTAuNzcsMC40Mi0xLjE2LDAuNjJjLTAuNjgsMC4zNy0xLjM2LDAuNzMtMi4wMywxLjFjLTAuMzYsMC4yLTAuNzEsMC4zOS0xLjA2LDAuNTkmIzEwOyYjOTsmIzk7JiM5O2MtMC42OCwwLjM4LTEuMzYsMC43Ni0yLjAzLDEuMTNjLTAuMywwLjE3LTAuNTksMC4zNC0wLjg5LDAuNTFjLTAuNzEsMC40MS0xLjQyLDAuODEtMi4xMiwxLjIyYy0wLjA5LDAuMDUtMC4xOCwwLjExLTAuMjcsMC4xNiYjMTA7JiM5OyYjOTsmIzk7Yy0yLjQ4LDEuNDUtNC44NywyLjktNy4xOCw0LjM3Yy0wLjMyLDAuMi0wLjY1LDAuNDEtMC45NywwLjYxYy0wLjU0LDAuMzQtMS4wNywwLjY5LTEuNiwxLjA0Yy0wLjM3LDAuMjQtMC43NSwwLjQ4LTEuMTEsMC43MiYjMTA7JiM5OyYjOTsmIzk7Yy0wLjUsMC4zMy0wLjk5LDAuNjYtMS40OCwwLjk5Yy0wLjM5LDAuMjYtMC43OCwwLjUyLTEuMTYsMC43OGMtMC40NywwLjMyLTAuOTMsMC42NC0xLjQsMC45NmMtMC4zOSwwLjI3LTAuNzksMC41NC0xLjE4LDAuODImIzEwOyYjOTsmIzk7JiM5O2MtMC40NSwwLjMyLTAuODksMC42My0xLjMzLDAuOTVjLTAuNCwwLjI4LTAuNzksMC41Ni0xLjE4LDAuODVjLTAuNDMsMC4zMS0wLjg1LDAuNjItMS4yOCwwLjk0Yy0wLjM5LDAuMjktMC43OSwwLjU4LTEuMTgsMC44NyYjMTA7JiM5OyYjOTsmIzk7Yy0wLjQxLDAuMzEtMC44MiwwLjYyLTEuMjIsMC45MmMtMC4zOSwwLjMtMC43OSwwLjYtMS4xOCwwLjljLTAuMzksMC4zLTAuNzgsMC42MS0xLjE3LDAuOTJjLTAuMzksMC4zMS0wLjc4LDAuNjItMS4xNywwLjkyJiMxMDsmIzk7JiM5OyYjOTtjLTAuMzgsMC4zLTAuNzYsMC42MS0xLjEzLDAuOTFjLTAuMzksMC4zMi0wLjc3LDAuNjMtMS4xNiwwLjk1Yy0wLjM2LDAuMy0wLjczLDAuNi0xLjA5LDAuOWMtMC4zOSwwLjMzLTAuNzgsMC42Ni0xLjE2LDAuOTgmIzEwOyYjOTsmIzk7JiM5O2MtMC4zNSwwLjMtMC43LDAuNTktMS4wNCwwLjg5Yy0wLjM5LDAuMzQtMC43OCwwLjY4LTEuMTcsMS4wMmMtMC4zMywwLjI5LTAuNjYsMC41OC0wLjk5LDAuODdjLTAuNCwwLjM2LTAuOCwwLjcyLTEuMTksMS4wNyYjMTA7JiM5OyYjOTsmIzk7Yy0wLjMxLDAuMjgtMC42MiwwLjU2LTAuOTMsMC44NGMtMC40MiwwLjM4LTAuODMsMC43Ny0xLjI0LDEuMTVjLTAuMjgsMC4yNi0wLjU2LDAuNTItMC44NCwwLjc5Yy0wLjQ2LDAuNDQtMC45MiwwLjg4LTEuMzcsMS4zMiYjMTA7JiM5OyYjOTsmIzk7Yy0wLjIyLDAuMjItMC40NSwwLjQzLTAuNjcsMC42NWMtMC42OCwwLjY2LTEuMzUsMS4zMi0yLjAyLDEuOTljLTMwLjQ2LDMwLjQ0LTM0LjA0LDExOC42OS0zNC40LDEzMy42MmgxNjguOTFoMjEuODR2LTgwLjE4JiMxMDsmIzk7JiM5OyYjOTtjMTMuNjksMi43LDMxLjQ4LDQuOTcsNTIuNTgsNC45N2MyMS4xLDAsMzguODktMi4yNyw1Mi41OC00Ljk3djgwLjE4aDIxLjY3aDE2OS4wOEM2NTYuOTksNjgyLjgyLDY1My40MSw1OTQuNTcsNjIyLjk1LDU2NC4xM3omIzEwOyYjOTsmIzk7JiM5OyBNMzM4LjI3LDU5Ny41NGMtNC40MiwwLTgtMy41OC04LThzMy41OC04LDgtOHM4LDMuNTgsOCw4UzM0Mi42OSw1OTcuNTQsMzM4LjI3LDU5Ny41NHogTTQ2Ni42LDU3MS40NnYyNS42NSYjMTA7JiM5OyYjOTsmIzk7Yy0xMywyLjgxLTMwLjkxLDUuNDMtNTIuNTgsNS40M2MtMjEuNjcsMC0zOS41OS0yLjYyLTUyLjU4LTUuNDN2LTI1LjY1Yy0yNS4yNC0xMi4wOC0zNC44Ni0zNC42Mi0zOC41LTUxLjI2bDM4LjU4LTEzLjU3JiMxMDsmIzk7JiM5OyYjOTtsMTAuMDEtNTUuMmwtNC40My0zLjczYy0yMy44Ny0yMC4wOS0zNS43MS00NS45OS0zOC44My02My41MmwtMS4wMi01Ljc1bC01LjUxLTEuOTNjLTkuMDMtMy4xNy0yMS40LTcuNS0zMC45Mi00MC40OCYjMTA7JiM5OyYjOTsmIzk7Yy0xLjY3LTUuODctMi45NS0xMy43OCwwLjQtMTguMTZjMy4zOS00LjQ0LDEwLjk4LTQuNTEsMTEuMTEtNC41MWMwLDAsMCwwLDAsMGwxMS43OCwwLjIzbC0xLjY5LTExLjY2JiMxMDsmIzk7JiM5OyYjOTtjLTAuNzItNC45Ni0xLjMyLTkuNzctMS44Mi0xNC40M2MxOC4yNi0yLjI3LDcyLjQ2LTguNTEsMTE0Ljc5LTguNTFjMTYuMTMsMCwzMy4wNy0zNC4xNSwzOS4wMi00Ny4zNiYjMTA7JiM5OyYjOTsmIzk7YzEyLjE0LDI1Ljc5LDEwLjU2LDQ4LjE5LDEwLjU2LDQ4LjE5czE1LjIyLDEuMzksNDIuNjMsNi43OWMtMC41Miw0Ljk0LTEuMTUsMTAuMDUtMS45MiwxNS4zMmwtMS42LDExLjU1bDExLjY3LTAuMTImIzEwOyYjOTsmIzk7JiM5O2MwLjA1LTAuMDIsNy43MiwwLjA1LDExLjEzLDQuNTFjMy4zNSw0LjM4LDIuMDYsMTIuMywwLjQxLDE4LjEyYy05LjU0LDMzLjAyLTIxLjksMzcuMzUtMzAuOTQsNDAuNTJsLTUuNTEsMS45M2wtMS4wMiw1Ljc1JiMxMDsmIzk7JiM5OyYjOTtjLTMuMTIsMTcuNTMtMTQuOTYsNDMuNDMtMzguODMsNjMuNTJsLTQuNDMsMy43M2wxMC4wMSw1NS4ybDM4LjU4LDEzLjU3QzUwMS40Niw1MzYuODQsNDkxLjg0LDU1OS4zOCw0NjYuNiw1NzEuNDZ6IiBjbGFzcz0ic3Q1Ii8+JiN4YTsJPC9nPiYjeGE7PC9nPiYjeGE7PGcgY2xhc3M9InN0MCIgaWQ9Il94MzRfOV94NUZf44OG44Os44Ov44O844KvIj4mI3hhOwk8ZyBjbGFzcz0ic3QyIj4mI3hhOwkJPHBhdGggZD0iTTMxMi40LDQ5LjQ0Yy04Ljg2LDAtMTcuMywyLjczLTIzLjc4LDcuNjhMMjcuMTcsMjU3LjAxYy0xMi4xNSw5LjI5LTExLjMzLDE4LjQ0LTkuNzYsMjMuMDcmIzEwOyYjOTsmIzk7JiM5O2MxLjU3LDQuNjMsNi40OCwxMi40LDIxLjc3LDEyLjRsNTIuODQsMHYyNjkuMzhjMCwxOC4yLDE0LjgsMzMsMzMsMzNoMjYyLjU0Yy0wLjA1LDYuMjgsMC4xOCwxMi41NSwwLjY5LDE4Ljc1JiMxMDsmIzk7JiM5OyYjOTtjNC4wNSw0OS4yMSwyNS41NCw5NS41Niw2MC41LDEzMC41MmMzOS40OCwzOS40OCw5MS45Niw2MS4yMiwxNDcuNzksNjEuMjJjNTUuODMsMCwxMDguMzEtMjEuNzQsMTQ3Ljc5LTYxLjIxJiMxMDsmIzk7JiM5OyYjOTtjMzkuNDctMzkuNDcsNjEuMjEtOTEuOTYsNjEuMjEtMTQ3Ljc5YzAtNTUuODMtMjEuNzQtMTA4LjMxLTYxLjIxLTE0Ny43OWMtMzUtMzUtODEuNC01Ni40OS0xMzAuNjctNjAuNTEmIzEwOyYjOTsmIzk7JiM5O2MtNS42NC0wLjQ2LTExLjM4LTAuNjktMTcuMDQtMC42OWMtMjEuODQsMC00My4yMywzLjMzLTYzLjgxLDkuOTNWMjkyLjQ5bDUyLjg0LDBjMTUuMjksMCwyMC4yLTcuNzcsMjEuNzctMTIuNCYjMTA7JiM5OyYjOTsmIzk7YzEuNTctNC42MywyLjM4LTEzLjc5LTkuNzYtMjMuMDdMMzM2LjE5LDU3LjEzQzMyOS43MSw1Mi4xNywzMjEuMjYsNDkuNDQsMzEyLjQsNDkuNDRMMzEyLjQsNDkuNDR6IiBjbGFzcz0ic3Q2Ii8+JiN4YTsJPC9nPiYjeGE7CTxnIGNsYXNzPSJzdDIiPiYjeGE7CQk8cGF0aCBkPSJNNzM1LjEzLDQ1Ny43NmMtMzIuODItMzIuODItNzYuMzQtNTIuOTctMTIyLjUzLTU2Ljc1Yy0zMS44OC0yLjYtNjMuNzcsMi42NC05Mi44LDE0Ljk2VjI3OS40OWw2NS44NCwwJiMxMDsmIzk7JiM5OyYjOTtjMTEsMCwxMi44NS01LjQ3LDQuMTEtMTIuMTVMMzI4LjI5LDY3LjQ2Yy04Ljc0LTYuNjgtMjMuMDQtNi42OC0zMS43OCwwTDM1LjA3LDI2Ny4zNGMtOC43NCw2LjY4LTYuODksMTIuMTUsNC4xMSwxMi4xNWw2NS44NCwwJiMxMDsmIzk7JiM5OyYjOTt2MjgyLjM4YzAsMTEsOSwyMCwyMCwyMGgyNzYuMDdjLTAuNzYsMTAuMTctMC43MywyMC40MywwLjExLDMwLjY5YzMuOCw0Ni4xNCwyMy45NSw4OS42MSw1Ni43NCwxMjIuNCYjMTA7JiM5OyYjOTsmIzk7YzM3LjAyLDM3LjAyLDg2LjI0LDU3LjQxLDEzOC41OSw1Ny40MWM1Mi4zNSwwLDEwMS41Ny0yMC4zOSwxMzguNTktNTcuNDFzNTcuNDEtODYuMjQsNTcuNDEtMTM4LjU5JiMxMDsmIzk7JiM5OyYjOTtDNzkyLjUzLDU0NCw3NzIuMTUsNDk0Ljc4LDczNS4xMyw0NTcuNzZ6IE0yOTguNDEsNDc1LjY0aC03My40OHYtNzMuNDhoNzMuNDhWNDc1LjY0eiBNMjk4LjQxLDM3NC4xNmgtNzMuNDh2LTczLjQ4aDczLjQ4VjM3NC4xNiYjMTA7JiM5OyYjOTsmIzk7eiBNMzk5Ljg5LDQ3NS42NGgtNzMuNDh2LTczLjQ4aDczLjQ4VjQ3NS42NHogTTM5OS44OSwzNzQuMTZoLTczLjQ4di03My40OGg3My40OFYzNzQuMTZ6IE03MjUuMjMsNzI1LjA1JiMxMDsmIzk7JiM5OyYjOTtjLTM0LjM4LDM0LjM4LTgwLjA4LDUzLjMxLTEyOC42OSw1My4zMWMtNDguNjEsMC05NC4zMi0xOC45My0xMjguNjktNTMuMzFjLTYyLjYxLTYyLjYxLTcxLjIzLTE2MC41OS0yMC41LTIzMi45OCYjMTA7JiM5OyYjOTsmIzk7YzEuMzctMS45NiwxLjY1LTQuNDcsMC43NC02LjY4bC0yNi4xLTYzLjQxbDYzLjM2LDI2LjA4YzIuMjEsMC45MSw0LjczLDAuNjMsNi42OS0wLjc1YzcyLjQyLTUwLjkxLDE3MC40OS00Mi4zNSwyMzMuMTksMjAuMzUmIzEwOyYjOTsmIzk7JiM5O2MzNC4zOCwzNC4zOCw1My4zMSw4MC4wOCw1My4zMSwxMjguNjlDNzc4LjUzLDY0NC45Nyw3NTkuNiw2OTAuNjcsNzI1LjIzLDcyNS4wNXoiIGNsYXNzPSJzdDUiLz4mI3hhOwkJPGc+JiN4YTsJCQk8Y2lyY2xlIHI9IjQwLjk5IiBjeT0iNTE5LjgyIiBjeD0iNjM1LjUiIGNsYXNzPSJzdDUiLz4mI3hhOwkJCTxwYXRoIGQ9Ik03MTUuNzQsNjkxLjdsLTIyLjYxLTkzLjQ4Yy0zLjYyLTE0Ljk3LTE5LjE4LTI3LjIyLTM0LjU4LTI3LjIyaC0xOS42OWMtMTAuMTQsMC0xOS44Miw0LjIyLTI1LjYxLDEwLjYyJiMxMDsmIzk7JiM5OyYjOTsmIzk7Yy0wLjI3LDAuMjctMC41MiwwLjU0LTAuNzQsMC44MmwtMzguMjUsNDUuMTdjMCwwLTM4LjM5LDUuNzMtNDcuMDIsNy4xNGMtOC42MywxLjQxLTEzLjc5LDguNTUtMTMuNzksMTQuODImIzEwOyYjOTsmIzk7JiM5OyYjOTtjMCw2Ljc1LDUuOTUsMTQuMDUsMTQuNDIsMTQuMDVzNTcuOTYsMCw1Ny45NiwwYzkuMzgsMCwxNi43MS01LjI2LDIwLTkuNWwxMi40Mi0xMy42M2wxMi4zMiw1MS4ySDcxNS43NHoiIGNsYXNzPSJzdDUiLz4mI3hhOwkJCTxwYXRoIGQ9Ik01NjguMTMsNjkxLjcxaC04My4yNGMtNC4zMSwwLTguMDEtMy4wNS04LjgzLTcuMjhsLTE2LjItODMuMjRjLTAuOTUtNC44OCwyLjI0LTkuNiw3LjEyLTEwLjU1JiMxMDsmIzk7JiM5OyYjOTsmIzk7YzQuODgtMC45NSw5LjYsMi4yNCwxMC41NSw3LjExbDE0Ljc4LDc1Ljk2aDc1LjgyYzQuOTcsMCw5LDQuMDMsOSw5UzU3My4xLDY5MS43MSw1NjguMTMsNjkxLjcxeiIgY2xhc3M9InN0NSIvPiYjeGE7CQk8L2c+JiN4YTsJPC9nPiYjeGE7PC9nPiYjeGE7PGcgY2xhc3M9InN0MCIgaWQ9Il94MzVfMF94NUZf44Kq44OV44Kj44K544Ov44O844KvIj4mI3hhOwk8ZyBjbGFzcz0ic3QyIj4mI3hhOwkJPHBhdGggZD0iTTQ3My42Nyw1Mi4xNUgxMDMuMTJjLTE4LjIsMC0zMywxNC44LTMzLDMzdjQ3Ni43MWMwLDE4LjIsMTQuOCwzMywzMywzM2gyODQuMjYmIzEwOyYjOTsmIzk7JiM5O2MtMC4wNSw2LjI1LDAuMTgsMTIuNDgsMC42OCwxOC42NWM0LjAzLDQ5LjI1LDI1LjUyLDk1LjY0LDYwLjUxLDEzMC42MmMzOS40NywzOS40OCw5MS45Niw2MS4yMiwxNDcuNzksNjEuMjImIzEwOyYjOTsmIzk7JiM5O2M1NS44MywwLDEwOC4zMS0yMS43NCwxNDcuNzktNjEuMjFjMzkuNDctMzkuNDcsNjEuMjEtOTEuOTYsNjEuMjEtMTQ3Ljc5YzAtNTUuODMtMjEuNzQtMTA4LjMxLTYxLjIxLTE0Ny43OSYjMTA7JiM5OyYjOTsmIzk7Yy0zNC45OS0zNC45OS04MS4zOC01Ni40OC0xMzAuNjItNjAuNTFjLTUuNjUtMC40Ni0xMS40LTAuNy0xNy4wOC0wLjdjLTMxLjIyLDAtNjEuODUsNi45My04OS43NywyMC4xOFY4NS4xNSYjMTA7JiM5OyYjOTsmIzk7QzUwNi42Nyw2Ni45NSw0OTEuODYsNTIuMTUsNDczLjY3LDUyLjE1TDQ3My42Nyw1Mi4xNXoiIGNsYXNzPSJzdDYiLz4mI3hhOwk8L2c+JiN4YTsJPGcgY2xhc3M9InN0MiI+JiN4YTsJCTxwYXRoIGQ9Ik03MzQuOTUsNDU3Ljc2Yy0zMi44MS0zMi44MS03Ni4zMS01Mi45Ni0xMjIuNDktNTYuNzVjLTQxLjczLTMuNDItODMuNDYsNi42Mi0xMTguNzksMjguMzZWODUuMTUmIzEwOyYjOTsmIzk7JiM5O2MwLTExLTktMjAtMjAtMjBIMTAzLjEyYy0xMSwwLTIwLDktMjAsMjB2NDc2LjcxYzAsMTEsOSwyMCwyMCwyMGgxMjQuOWwwLTg2Ljk0aDUzLjM3djg2Ljk0aDE0di04Ni45NGg1My4zOGwwLDg2Ljk0aDUyLjE1JiMxMDsmIzk7JiM5OyYjOTtjLTAuNzUsMTAuMTQtMC43MywyMC4zNiwwLjEsMzAuNTljMy43OCw0Ni4xOCwyMy45NCw4OS42OCw1Ni43NSwxMjIuNDljMzcuMDIsMzcuMDIsODYuMjQsNTcuNDEsMTM4LjU5LDU3LjQxJiMxMDsmIzk7JiM5OyYjOTtzMTAxLjU3LTIwLjM5LDEzOC41OS01Ny40MXM1Ny40MS04Ni4yNCw1Ny40MS0xMzguNTlDNzkyLjM2LDU0NCw3NzEuOTcsNDk0Ljc4LDczNC45NSw0NTcuNzZ6IE0yMjAuNjIsNDAwLjQxaC03OS41NXYtNDcuOWg3OS41NSYjMTA7JiM5OyYjOTsmIzk7VjQwMC40MXogTTIyMC42MiwzMjQuNTFoLTc5LjU1di00Ny45aDc5LjU1VjMyNC41MXogTTIyMC42MiwyNDguNjFoLTc5LjU1di00Ny45aDc5LjU1VjI0OC42MXogTTIyMC42MiwxNzIuNzJoLTc5LjU1di00Ny45JiMxMDsmIzk7JiM5OyYjOTtoNzkuNTVWMTcyLjcyeiBNMzI4LjE2LDQwMC40MWgtNzkuNTV2LTQ3LjloNzkuNTVWNDAwLjQxeiBNMzI4LjE2LDMyNC41MWgtNzkuNTV2LTQ3LjloNzkuNTVWMzI0LjUxeiBNMzI4LjE2LDI0OC42MWgtNzkuNTUmIzEwOyYjOTsmIzk7JiM5O3YtNDcuOWg3OS41NVYyNDguNjF6IE0zMjguMTYsMTcyLjcyaC03OS41NXYtNDcuOWg3OS41NVYxNzIuNzJ6IE0zNTYuMTYsMTI0LjgyaDc5LjU1djQ3LjloLTc5LjU1VjEyNC44MnogTTM1Ni4xNiwyMDAuNzJoNzkuNTUmIzEwOyYjOTsmIzk7JiM5O3Y0Ny45aC03OS41NVYyMDAuNzJ6IE0zNTYuMTYsMjc2LjYxaDc5LjU1djQ3LjloLTc5LjU1VjI3Ni42MXogTTM1Ni4xNiw0MDAuNDF2LTQ3LjloNzkuNTV2NDcuOUgzNTYuMTZ6IE03MjUuMDUsNzI1LjA1JiMxMDsmIzk7JiM5OyYjOTtjLTM0LjM4LDM0LjM4LTgwLjA4LDUzLjMxLTEyOC42OSw1My4zMXMtOTQuMzItMTguOTMtMTI4LjY5LTUzLjMxYy02Mi42Ny02Mi42Ny03MS4yNS0xNjAuNzItMjAuMzktMjMzLjEzJiMxMDsmIzk7JiM5OyYjOTtjMS4zNy0xLjk2LDEuNjUtNC40OCwwLjc0LTYuNjlsLTI2LjAzLTYzLjI1bDYzLjI1LDI2LjAzYzIuMjEsMC45MSw0LjczLDAuNjMsNi42OS0wLjc0YzcyLjQxLTUwLjg2LDE3MC40Ni00Mi4yOCwyMzMuMTMsMjAuMzkmIzEwOyYjOTsmIzk7JiM5O2MzNC4zOCwzNC4zOCw1My4zMSw4MC4wOCw1My4zMSwxMjguNjlDNzc4LjM2LDY0NC45Nyw3NTkuNDMsNjkwLjY3LDcyNS4wNSw3MjUuMDV6IiBjbGFzcz0ic3Q1Ii8+JiN4YTsJCTxnPiYjeGE7CQkJPGNpcmNsZSByPSI0MC45OSIgY3k9IjUyMy44MiIgY3g9IjY0My41OCIgY2xhc3M9InN0NSIvPiYjeGE7CQkJPHBhdGggZD0iTTY1Ni4wOCw1NzVoLTI1Yy0yNi40MiwwLTQ4Ljk4LDE3LjMyLTU2LjkzLDQxLjE2bDEwLjcxLDQ2LjM5YzAuMTUsMC4zOSwwLjkyLDEuMDEsMS4yOSwxLjA2aDQ0LjU0JiMxMDsmIzk7JiM5OyYjOTsmIzk7YzEwLjQ4LDAsMTksOC41MiwxOSwxOS4wMWMwLDMuMjUtMC44Miw2LjMyLTIuMjcsOWg2OC42NlY2MzVDNzE2LjA4LDYwMiw2ODkuMDgsNTc1LDY1Ni4wOCw1NzV6IiBjbGFzcz0ic3Q1Ii8+JiN4YTsJCQk8cGF0aCBkPSJNNTQ5LjAzLDU5MC43OWM0Ljk1LDAsOS45MSwzLjk1LDExLjAyLDguNzdsMTUuMDcsNjUuMjljMS4xMSw0LjgyLDYuMDcsOC43NywxMS4wMiw4Ljc3aDQ0LjU0JiMxMDsmIzk7JiM5OyYjOTsmIzk7YzQuOTUsMCw5LDQuMDUsOSw5djAuMDFjMCw0Ljk1LTQuMDUsOS05LDlINDgxLjE5Yy00Ljk1LDAtOS45Mi0zLjk0LTExLjA0LTguNzdsLTE5LjM2LTgzLjNjLTEuMTItNC44MiwyLjAxLTguNzcsNi45Ni04Ljc3JiMxMDsmIzk7JiM5OyYjOTsmIzk7SDU0OS4wMyIgY2xhc3M9InN0NSIvPiYjeGE7CQk8L2c+JiN4YTsJPC9nPiYjeGE7PC9nPiYjeGE7PGcgY2xhc3M9InN0MCIgaWQ9Il94MzVfMV94NUZfUE9T44Os44K4Ij4mI3hhOwk8cGF0aCBkPSJNNjUyLjU0LDkwLjQ5SDQyMS4yYy0xOC4yLDAtMzMsMTQuOC0zMywzM3Y2MGMwLDE4LjIsMTQuOCwzMywzMywzM2g3OS45N3YxMi42M0g0MjEuMmMtMTguMiwwLTMzLDE0LjgtMzMsMzMmIzEwOyYjOTsmIzk7djExLjMzSDE3Ny40NmMtMTguMiwwLTMzLDE0LjgtMzMsMzN2MTU4LjcybC0zOS4wNCw2NC4xMmMtNy4wMSwxMS41MS0xMi4zLDMwLjM2LTEyLjMsNDMuODR2MzN2MTR2MTkuNTJjMCwwLjAyLDAsMC4wNSwwLDAuMDcmIzEwOyYjOTsmIzk7djY1LjA1YzAsMTguMiwxNC44LDMzLDMzLDMzaDU3Ny43NmMxOC4yLDAsMzMtMTQuOCwzMy0zM2wwLTg0LjY1di0xNGwwLTMzYzAtMTMuNDgtNS4yOS0zMi4zMy0xMi4zLTQzLjg0bC0zOS4wNS02NC4xMlYyNjIuMTMmIzEwOyYjOTsmIzk7YzAtMTguMi0xNC44LTMzLTMzLTMzaC03OS45N3YtMTIuNjNoNzkuOTdjMTguMiwwLDMzLTE0LjgsMzMtMzN2LTYwQzY4NS41NCwxMDUuMyw2NzAuNzMsOTAuNDksNjUyLjU0LDkwLjQ5TDY1Mi41NCw5MC40OXoiIGNsYXNzPSJzdDQiLz4mI3hhOwk8ZyBjbGFzcz0ic3QyIj4mI3hhOwkJPHBhdGggZD0iTTcyMy44OCw1NzMuMTVjMC0xMS00LjY4LTI3LjY5LTEwLjQtMzcuMDhsLTQwLjk0LTY3LjI0di0yMDYuN2MwLTExLTktMjAtMjAtMjBoLTkyLjk3di0zOC42M2g5Mi45NyYjMTA7JiM5OyYjOTsmIzk7YzExLDAsMjAtOSwyMC0yMHYtNjBjMC0xMS05LTIwLTIwLTIwSDQyMS4yYy0xMSwwLTIwLDktMjAsMjB2NjBjMCwxMSw5LDIwLDIwLDIwaDkyLjk3djM4LjYzSDQyMS4yYy0xMSwwLTIwLDktMjAsMjB2MjQuMzMmIzEwOyYjOTsmIzk7JiM5O0gxNzcuNDZjLTExLDAtMjAsOS0yMCwyMHYxNjIuMzZsLTQwLjk0LDY3LjI0Yy01LjcyLDkuNC0xMC40LDI2LjA4LTEwLjQsMzcuMDh2MzMuNWg2MTcuNzZMNzIzLjg4LDU3My4xNXogTTM3My42LDQwMi44NGgtOTB2LTIwJiMxMDsmIzk7JiM5OyYjOTtoOTBWNDAyLjg0eiBNMzczLjYsMzYyLjg0aC05MHYtMjBoOTBWMzYyLjg0eiBNNDI0LjM0LDE3OS44OVYxMjcuMUg2NDkuNHY1Mi43OUg0MjQuMzR6IE00MjQuMzQsMjY1LjI2SDY0OS40djEzNy41OCYjMTA7JiM5OyYjOTsmIzk7bC0yMjUuMDctMC4wM1YyNjUuMjZ6IE02MzUuODYsNDg2LjQ4aC01Mi4yM2wtNi40Mi0xNi44NWg0OS43NEw2MzUuODYsNDg2LjQ4eiBNNTcyLjkzLDQ4Ni40OGgtNDcuMDhsLTQuMTUtMTYuODVoNDQuODImIzEwOyYjOTsmIzk7JiM5O0w1NzIuOTMsNDg2LjQ4eiBNNDY5LjUyLDQ2OS42M2g0MS44OGw0LjE1LDE2Ljg1aC00NC4wMUw0NjkuNTIsNDY5LjYzeiBNNDcyLjc0LDQ5Ni40OGg0NS4yOGw0LjE1LDE2Ljg1aC00Ny40MUw0NzIuNzQsNDk2LjQ4eiYjMTA7JiM5OyYjOTsmIzk7IE00NzcuOTksNTQwLjE4bC0yLjAyLTE2Ljg1aDQ4LjY3bDQuMTUsMTYuODVINDc3Ljk5eiBNNTI4LjMyLDQ5Ni40OGg0OC40Mmw2LjQyLDE2Ljg1aC01MC42OUw1MjguMzIsNDk2LjQ4eiBNNTM5LjA5LDU0MC4xOCYjMTA7JiM5OyYjOTsmIzk7bC00LjE1LTE2Ljg1aDUyLjAzbDYuNDIsMTYuODVINTM5LjA5eiBNNTg3LjQ0LDQ5Ni40OGg1My43bDguOSwxNi44NWgtNTYuMTlMNTg3LjQ0LDQ5Ni40OHogTTYwNC4wOSw1NDAuMThsLTYuNDItMTYuODVoNTcuNjYmIzEwOyYjOTsmIzk7JiM5O2w4LjksMTYuODVINjA0LjA5eiIgY2xhc3M9InN0NSIvPiYjeGE7CQk8cGF0aCBkPSJNNzIzLjg4LDYxOS42NUgxMDYuMTJ2NDAuMDljMCwwLDAsMCwwLDB2NDUuMDVjMCwxMSw5LDIwLDIwLDIwaDU3Ny43NmMxMSwwLDIwLTksMjAtMjBMNzIzLjg4LDYxOS42NXomIzEwOyYjOTsmIzk7JiM5OyBNNDI2LDY4My4yN2gtMjJ2LTIyaDIyVjY4My4yN3oiIGNsYXNzPSJzdDUiLz4mI3hhOwk8L2c+JiN4YTs8L2c+JiN4YTs8ZyBjbGFzcz0ic3QwIiBpZD0iX3gzNV8yX3g1Rl/msbroo4Hnq6/mnKtfeEZGMDhf44OP44Oz44OH44Kj44O8UE9TX3gzMDAxX1dpLUZp56uv5pyrX3hGRjA5XyI+JiN4YTsJPHBhdGggZD0iTTU3OS41LDEwNi4zMWgtMzI5Yy0xOC4yLDAtMzMsMTQuOC0zMywzM3YyNDhjMCwxMyw0LjcsMzIuMjEsMTAuNyw0My43NGwzNS41Myw2OC4yNCYjMTA7JiM5OyYjOTtjNC4xNCw3Ljk1LDcuNzcsMjIuNzgsNy43NywzMS43NHYxNzZjMCwxOC4yLDE0LjgsMzMsMzMsMzNoMjIxYzE4LjIsMCwzMy0xNC44LDMzLTMzdi0xNzZjMC04Ljk2LDMuNjMtMjMuNzksNy43Ny0zMS43NCYjMTA7JiM5OyYjOTtsMzUuNTMtNjguMjRjNi0xMS41MywxMC43LTMwLjc0LDEwLjctNDMuNzR2LTI0OEM2MTIuNSwxMjEuMTEsNTk3LjY5LDEwNi4zMSw1NzkuNSwxMDYuMzFMNTc5LjUsMTA2LjMxeiIgY2xhc3M9InN0NCIvPiYjeGE7CTxwYXRoIGQ9Ik01NzkuNSwxMTkuMzFoLTMyOWMtMTEsMC0yMCw5LTIwLDIwdjI0OGMwLDExLDQuMTYsMjcuOTgsOS4yNCwzNy43NGwzNS41Myw2OC4yNCYjMTA7JiM5OyYjOTtjNS4wOCw5Ljc2LDkuMjQsMjYuNzQsOS4yNCwzNy43NHYxNzZjMCwxMSw5LDIwLDIwLDIwaDIyMWMxMSwwLDIwLTksMjAtMjB2LTE3NmMwLTExLDQuMTYtMjcuOTgsOS4yNC0zNy43NGwzNS41My02OC4yNCYjMTA7JiM5OyYjOTtjNS4wOC05Ljc2LDkuMjQtMjYuNzQsOS4yNC0zNy43NHYtMjQ4QzU5OS41LDEyOC4zMSw1OTAuNSwxMTkuMzEsNTc5LjUsMTE5LjMxeiBNNDk2Ljc3LDY4MC43MkgzMzMuMjN2MGg1LjQ5di0zMy44N2g0My41MnYzMy44NyYjMTA7JiM5OyYjOTtoMTAuOTl2LTMzLjg3aDQzLjUydjMzLjg3aDEwLjk5di0zMy44N2g0My41MnYzMy44N0w0OTYuNzcsNjgwLjcyTDQ5Ni43Nyw2ODAuNzJ6IE0zMzMuMjMsNTIzLjI4TDMzMy4yMyw1MjMuMjhMMzMzLjIzLDUyMy4yOCYjMTA7JiM5OyYjOTtMMzMzLjIzLDUyMy4yOEwzMzMuMjMsNTIzLjI4eiBNNDQ3Ljc1LDU5Ni41di0yOC4zN2g0My41MnYyOC4zN0g0NDcuNzV6IE00OTEuMjcsNjA3LjQ5djI4LjM3aC00My41MnYtMjguMzdINDkxLjI3eiYjMTA7JiM5OyYjOTsgTTQ0Ny43NSw1NTcuMTR2LTI4LjM3aDQzLjUydjI4LjM3SDQ0Ny43NXogTTQ0OC4zLDQ3My40OGwtNjYuNiwwdi0zNC43NGw2Ni42LDBWNDczLjQ4eiBNMzkzLjI0LDU5Ni41di0yOC4zN2g0My41MnYyOC4zN0gzOTMuMjQmIzEwOyYjOTsmIzk7eiBNNDM2Ljc2LDYwNy40OXYyOC4zN2gtNDMuNTJ2LTI4LjM3SDQzNi43NnogTTM5My4yNCw1NTcuMTR2LTI4LjM3aDQzLjUydjI4LjM3SDM5My4yNHogTTM4Mi4yNSw1MjguNzd2MjguMzdoLTQzLjUydi0yOC4zNyYjMTA7JiM5OyYjOTtIMzgyLjI1eiBNMzgyLjI1LDU2OC4xM3YyOC4zN2gtNDMuNTJ2LTI4LjM3SDM4Mi4yNXogTTM4Mi4yNSw2MDcuNDl2MjguMzdoLTQzLjUydi0yOC4zN0gzODIuMjV6IE00OTYuNzcsNTIzLjI4TDQ5Ni43Nyw1MjMuMjgmIzEwOyYjOTsmIzk7TDQ5Ni43Nyw1MjMuMjhMNDk2Ljc3LDUyMy4yOEw0OTYuNzcsNTIzLjI4eiBNNTQ1LjUsMzg5LjMxaC0yNjF2LTIxNmgyNjFWMzg5LjMxeiIgY2xhc3M9InN0NyIvPiYjeGE7PC9nPiYjeGE7PGcgY2xhc3M9InN0MCIgaWQ9Il94MzVfM194NUZf44OV44Kh44Kk44Or44K144O844OQ44O8X3hGRjA4X05BU194RkYwOV8iPiYjeGE7CTxwYXRoIGQ9Ik00MTUsNjkuODVjLTY4Ljc5LDAtMTMxLjU5LDkuNTEtMTc2LjgxLDI2Ljc4Yy0yMy4zNCw4LjkyLTQxLjc0LDE5LjcxLTU0LjY3LDMyLjEmIzEwOyYjOTsmIzk7Yy0xNC43MSwxNC4wOC0yMi4xNywyOS44Ny0yMi4xNyw0Ni45MmMwLDE0LjU2LDAuMDYsNTAxLjY2LDAuMDYsNTAxLjY2YzAsMy4yMSwxLjE5LDYuMzEsMy4zNCw4LjcmIzEwOyYjOTsmIzk7YzYuMTgsNi44NiwyNC43NiwyNC41Niw2My44NSw0MC43NGM0OS4yLDIwLjM2LDExMS44NywzMC43LDE4Ni4yNywzMC43MmMwLjAxLDAsMC4wMiwwLDAuMDMsMGgwLjFoMGgwLjFjMC4wMSwwLDAuMDIsMCwwLjAzLDAmIzEwOyYjOTsmIzk7Yzc0LjQtMC4wMiwxMzcuMDctMTAuMzYsMTg2LjI3LTMwLjcyYzM5LjA5LTE2LjE4LDU3LjY4LTMzLjg4LDYzLjg1LTQwLjc0YzIuMTUtMi4zOSwzLjM0LTUuNDgsMy4zNC04LjcmIzEwOyYjOTsmIzk7YzAsMCwwLjA2LTQ4Ny4xLDAuMDYtNTAxLjY2YzAtMTcuMDUtNy40Ni0zMi44NC0yMi4xNy00Ni45MmMtMTIuOTMtMTIuMzgtMzEuMzItMjMuMTgtNTQuNjctMzIuMSYjMTA7JiM5OyYjOTtDNTQ2LjU5LDc5LjM2LDQ4My43OSw2OS44NSw0MTUsNjkuODVMNDE1LDY5Ljg1eiIgY2xhc3M9InN0NCIvPiYjeGE7CTxnIGNsYXNzPSJzdDIiPiYjeGE7CQk8ZWxsaXBzZSByeT0iNzUuNTMiIHJ4PSIyMzEuMTUiIGN5PSIxNTguMzgiIGN4PSI0MTUiIGNsYXNzPSJzdDUiLz4mI3hhOwkJPGc+JiN4YTsJCQk8cmVjdCBoZWlnaHQ9IjE0IiB3aWR0aD0iMTI2LjEzIiBjbGFzcz0ic3Q1IiB5PSI0NzAuNDkiIHg9IjM1MS45NCIvPiYjeGE7CQkJPHJlY3QgaGVpZ2h0PSIxNCIgd2lkdGg9IjEyNi4xMyIgY2xhc3M9InN0NSIgeT0iNTEyLjExIiB4PSIzNTEuOTQiLz4mI3hhOwkJCTxwYXRoIGQ9Ik00MTUsMjQ3LjkxYy0xMjEuMjMsMC0yMTkuMTctMzAuNi0yNDAuNjQtNzIuMjZsMC4wNiw1MDEuNjVjOS4yNiwxMC4yOCw2OC4zNCw2Ny4xNiwyNDAuNjgsNjcuMTYmIzEwOyYjOTsmIzk7JiM5OyYjOTtjMTcyLjIzLDAsMjMxLjM3LTU2LjgsMjQwLjcyLTY3LjE2VjE3NS4yMkM2MzQuOCwyMTcuMDksNTM2LjY0LDI0Ny45MSw0MTUsMjQ3LjkxeiBNNDM4LjE1LDM1MS42Mmw2Ni45MSw2Ni45MWgtNjYuOTFWMzUxLjYyeiYjMTA7JiM5OyYjOTsmIzk7JiM5OyBNNTE0Ljk3LDU4NC41NUgzMTUuMDNWMzQxLjcyaDEwOS4xMnY5MC44MWg5MC44MVY1ODQuNTV6IiBjbGFzcz0ic3Q1Ii8+JiN4YTsJCTwvZz4mI3hhOwk8L2c+JiN4YTs8L2c+JiN4YTs8ZyBjbGFzcz0ic3QwIiBpZD0iX3gzNV80X3g1Rl/jgqTjg7Pjgr/jg7zjg43jg4Pjg4jntrIiPiYjeGE7CTxwYXRoIGQ9Ik00MTUsMTE4LjVjLTQwLjAyLDAtNzguODUsNy44NC0xMTUuNDIsMjMuMzFjLTM1LjMxLDE0LjkzLTY3LjAyLDM2LjMxLTk0LjI0LDYzLjU0JiMxMDsmIzk7JiM5O2MtMjcuMjMsMjcuMjMtNDguNiw1OC45My02My41NCw5NC4yNEMxMjYuMzQsMzM2LjE1LDExOC41LDM3NC45OCwxMTguNSw0MTVzNy44NCw3OC44NSwyMy4zMSwxMTUuNDImIzEwOyYjOTsmIzk7YzE0LjkzLDM1LjMxLDM2LjMxLDY3LjAyLDYzLjU0LDk0LjI0YzI3LjIzLDI3LjIzLDU4LjkzLDQ4LjYsOTQuMjQsNjMuNTRjMzYuNTYsMTUuNDYsNzUuMzksMjMuMzEsMTE1LjQyLDIzLjMxJiMxMDsmIzk7JiM5O3M3OC44NS03Ljg0LDExNS40Mi0yMy4zMWMzNS4zMS0xNC45Myw2Ny4wMi0zNi4zMSw5NC4yNC02My41NGMyNy4yMy0yNy4yMyw0OC42LTU4LjkzLDYzLjU0LTk0LjI0JiMxMDsmIzk7JiM5O2MxNS40Ni0zNi41NiwyMy4zMS03NS4zOSwyMy4zMS0xMTUuNDJzLTcuODQtNzguODUtMjMuMzEtMTE1LjQyYy0xNC45My0zNS4zMS0zNi4zMS02Ny4wMi02My41NC05NC4yNCYjMTA7JiM5OyYjOTtjLTI3LjIzLTI3LjIzLTU4LjkzLTQ4LjYtOTQuMjQtNjMuNTRDNDkzLjg1LDEyNi4zNCw0NTUuMDIsMTE4LjUsNDE1LDExOC41TDQxNSwxMTguNXoiIGNsYXNzPSJzdDQiLz4mI3hhOwk8ZyBjbGFzcz0ic3QyIj4mI3hhOwkJPHBhdGggZD0iTTI2NC4yMiw0MDguNUg0MDguNVYyODUuMThjLTM4LjIyLTAuNTItNzUuNzEtNS42Ny0xMTIuMDgtMTUuMzZDMjc2LjUyLDMxMi42LDI2NS4xNSwzNTkuNDIsMjY0LjIyLDQwOC41eiIgY2xhc3M9InN0NSIvPiYjeGE7CQk8cGF0aCBkPSJNMjk2LjQyLDU2MC4xOGMzNi4zNy05LjY5LDczLjg2LTE0LjgzLDExMi4wOC0xNS4zNlY0MjEuNUgyNjQuMjJDMjY1LjE1LDQ3MC41OCwyNzYuNTIsNTE3LjQsMjk2LjQyLDU2MC4xOHoiIGNsYXNzPSJzdDUiLz4mI3hhOwkJPHBhdGggZD0iTTQwNy4zLDY5OC4zOWMwLjQsMC4wMSwwLjgsMC4wMiwxLjIsMC4wMlY1NTcuODJjLTM2LjYzLDAuNTItNzIuMjEsNS40OC0xMDYuMjMsMTQuMzUmIzEwOyYjOTsmIzk7JiM5O0MzMjcuMTMsNjIwLjc3LDM2My4xNCw2NjMuNzUsNDA3LjMsNjk4LjM5eiIgY2xhc3M9InN0NSIvPiYjeGE7CQk8cGF0aCBkPSJNNTQwLjYxLDI1NC4yNmMyOC40LTguMzMsNTUuNjMtMTkuNDIsODEuNC0zMi45M2MtNDUuMjYtNDguMzUtMTA3LjI1LTgwLjg0LTE3Ni43NC04OC4yMiYjMTA7JiM5OyYjOTsmIzk7YzIuOTMsMi41MSw1Ljg0LDUuMDYsOC43LDcuNjZDNDkwLjM0LDE3My44Myw1MTkuNDQsMjExLjk4LDU0MC42MSwyNTQuMjZ6IiBjbGFzcz0ic3Q1Ii8+JiN4YTsJCTxwYXRoIGQ9Ik0zMDIuMjcsMjU3LjgzYzM0LjAyLDguODcsNjkuNiwxMy44MiwxMDYuMjMsMTQuMzVWMTMxLjU4Yy0wLjQsMC4wMS0wLjgsMC4wMS0xLjIsMC4wMiYjMTA7JiM5OyYjOTsmIzk7QzM2My4xNCwxNjYuMjUsMzI3LjEzLDIwOS4yMywzMDIuMjcsMjU3LjgzeiIgY2xhc3M9InN0NSIvPiYjeGE7CQk8cGF0aCBkPSJNNTY1Ljc4LDQyMS41SDQyMS41djEyMy4zMmMzOC4yMiwwLjUyLDc1LjcxLDUuNjcsMTEyLjA4LDE1LjM2QzU1My40OCw1MTcuNCw1NjQuODUsNDcwLjU4LDU2NS43OCw0MjEuNXoiIGNsYXNzPSJzdDUiLz4mI3hhOwkJPHBhdGggZD0iTTY5OC41LDQxNWMwLDAsMC0wLjAxLDAtMC4wMXYwLjAzQzY5OC41LDQxNS4wMSw2OTguNSw0MTUsNjk4LjUsNDE1eiIgY2xhc3M9InN0NSIvPiYjeGE7CQk8cGF0aCBkPSJNNTQ2LjM0LDI2Ni4yMmMyMC42Niw0NS4xOSwzMS41Niw5My4wMSwzMi40NCwxNDIuMjhoMTE5LjYzYy0xLjUyLTY3LjQ3LTI2LjYxLTEyOS4xMi02Ny4zNy0xNzcuMDQmIzEwOyYjOTsmIzk7JiM5O2MtMTIuMDEsNi4zOS0yNC4zNCwxMi4yNy0zNi45NiwxNy42QzU3OC40MywyNTUuNjksNTYyLjUxLDI2MS40MSw1NDYuMzQsMjY2LjIyeiIgY2xhc3M9InN0NSIvPiYjeGE7CQk8cGF0aCBkPSJNMjg5LjM5LDI1NC4yNmMyMS4xNy00Mi4yOCw1MC4yOC04MC40Miw4Ni42NS0xMTMuNDljMi44Ni0yLjYsNS43Ny01LjE0LDguNy03LjY2JiMxMDsmIzk7JiM5OyYjOTtjLTY5LjUsNy4zOC0xMzEuNDksMzkuODYtMTc2Ljc1LDg4LjIyQzIzMy43NiwyMzQuODQsMjYwLjk5LDI0NS45MywyODkuMzksMjU0LjI2eiIgY2xhc3M9InN0NSIvPiYjeGE7CQk8cGF0aCBkPSJNNTQwLjYxLDU3NS43NGMtMjEuMTcsNDIuMjgtNTAuMjgsODAuNDItODYuNjUsMTEzLjQ5Yy0yLjg2LDIuNi01Ljc3LDUuMTQtOC43LDcuNjYmIzEwOyYjOTsmIzk7JiM5O2M2OS41LTcuMzgsMTMxLjQ5LTM5Ljg2LDE3Ni43NS04OC4yMkM1OTYuMjQsNTk1LjE2LDU2OS4wMSw1ODQuMDcsNTQwLjYxLDU3NS43NHoiIGNsYXNzPSJzdDUiLz4mI3hhOwkJPHBhdGggZD0iTTUyNy43Myw1NzIuMTdjLTM0LjAyLTguODctNjkuNi0xMy44Mi0xMDYuMjMtMTQuMzV2MTQwLjU5YzAuNC0wLjAxLDAuOC0wLjAxLDEuMi0wLjAyJiMxMDsmIzk7JiM5OyYjOTtDNDY2Ljg2LDY2My43NSw1MDIuODcsNjIwLjc3LDUyNy43Myw1NzIuMTd6IiBjbGFzcz0ic3Q1Ii8+JiN4YTsJCTxwYXRoIGQ9Ik01NzguNzgsNDIxLjVjLTAuODgsNDkuMjctMTEuNzgsOTcuMDktMzIuNDQsMTQyLjI4YzE2LjE2LDQuODEsMzIuMDksMTAuNTMsNDcuNzUsMTcuMTUmIzEwOyYjOTsmIzk7JiM5O2MxMi42Miw1LjM0LDI0Ljk0LDExLjIyLDM2Ljk2LDE3LjZjNDAuNzUtNDcuOTIsNjUuODUtMTA5LjU3LDY3LjM3LTE3Ny4wNEg1NzguNzh6IiBjbGFzcz0ic3Q1Ii8+JiN4YTsJCTxwYXRoIGQ9Ik0zODQuNzQsNjk2Ljg5Yy0yLjkzLTIuNTEtNS44NC01LjA2LTguNy03LjY2Yy0zNi4zOC0zMy4wNy02NS40OC03MS4yMS04Ni42NS0xMTMuNDkmIzEwOyYjOTsmIzk7JiM5O2MtMjguNCw4LjMzLTU1LjYzLDE5LjQyLTgxLjQsMzIuOTNDMjUzLjI1LDY1Ny4wMywzMTUuMjQsNjg5LjUxLDM4NC43NCw2OTYuODl6IiBjbGFzcz0ic3Q1Ii8+JiN4YTsJCTxwYXRoIGQ9Ik00MjEuNSwyNzIuMTdjMzYuNjMtMC41Miw3Mi4yMS01LjQ4LDEwNi4yMy0xNC4zNWMtMjQuODYtNDguNi02MC44Ny05MS41OC0xMDUuMDMtMTI2LjIyJiMxMDsmIzk7JiM5OyYjOTtjLTAuNC0wLjAxLTAuOC0wLjAyLTEuMi0wLjAyVjI3Mi4xN3oiIGNsYXNzPSJzdDUiLz4mI3hhOwkJPHBhdGggZD0iTTI4My42Niw1NjMuNzhDMjYzLDUxOC41OSwyNTIuMSw0NzAuNzcsMjUxLjIyLDQyMS41SDEzMS41OGMxLjUyLDY3LjQ3LDI2LjYxLDEyOS4xMiw2Ny4zNywxNzcuMDQmIzEwOyYjOTsmIzk7JiM5O2MxMi4wMS02LjM5LDI0LjMzLTEyLjI3LDM2Ljk2LTE3LjZDMjUxLjU3LDU3NC4zMSwyNjcuNDksNTY4LjU5LDI4My42Niw1NjMuNzh6IiBjbGFzcz0ic3Q1Ii8+JiN4YTsJCTxwYXRoIGQ9Ik01MzMuNTgsMjY5LjgyYy0zNi4zNyw5LjY5LTczLjg2LDE0LjgzLTExMi4wOCwxNS4zNlY0MDguNWgxNDQuMjhDNTY0Ljg1LDM1OS40Miw1NTMuNDgsMzEyLjYsNTMzLjU4LDI2OS44MiYjMTA7JiM5OyYjOTsmIzk7eiIgY2xhc3M9InN0NSIvPiYjeGE7CQk8cGF0aCBkPSJNMjUxLjIyLDQwOC41YzAuODgtNDkuMjcsMTEuNzgtOTcuMDksMzIuNDQtMTQyLjI4Yy0xNi4xNi00LjgxLTMyLjA5LTEwLjUzLTQ3Ljc1LTE3LjE1JiMxMDsmIzk7JiM5OyYjOTtjLTEyLjYyLTUuMzQtMjQuOTQtMTEuMjItMzYuOTYtMTcuNmMtNDAuNzUsNDcuOTItNjUuODUsMTA5LjU3LTY3LjM3LDE3Ny4wNEgyNTEuMjJ6IiBjbGFzcz0ic3Q1Ii8+JiN4YTsJPC9nPiYjeGE7PC9nPiYjeGE7PGcgY2xhc3M9InN0MCIgaWQ9Il94MzVfNV94NUZf5LiA6Iis44Or44O844K/44O8Ij4mI3hhOwk8cGF0aCBkPSJNNDE1LDEzNi40OGMtNTkuNTMsMC0xMTYuNjEsMTEuMzctMTY1LjA4LDMyLjg4Yy0yMy42LDEwLjQ3LTQ0LjUsMjMuMDktNjIuMTQsMzcuNDkmIzEwOyYjOTsmIzk7Yy0xOC4xNSwxNC44Mi0zMi40OSwzMS4yNy00Mi42Miw0OC44OGMtOC4yOCwxNC4zOC0yNy42NSw0OC4wNS0yNy42NSw5Mi41djE4MC41YzAsMC43LDAuMDYsMS40LDAuMTcsMi4xJiMxMDsmIzk7JiM5O2MyLjUzLDE1LjQ3LDcuOTcsMjcuMjEsMTIuNDIsMzUuNzFsMCwwYzAuOTgsMS43LDE5LjY1LDMzLjEsNjUuMTcsNjQuMjZjMjUuOTcsMTcuNzgsNTUuNTEsMzEuOTIsODcuOCw0Mi4wNCYjMTA7JiM5OyYjOTtjNDAuMDIsMTIuNTQsODQuNDEsMTguOSwxMzEuOTMsMTguOWM0Ny41LDAsOTEuODgtNi4zNiwxMzEuOS0xOC45YzMyLjI4LTEwLjEyLDYxLjgzLTI0LjI2LDg3LjgtNDIuMDQmIzEwOyYjOTsmIzk7YzQ2LjQ0LTMxLjc4LDY1LjA3LTYzLjk4LDY1LjIzLTY0LjI4YzQuNDEtOC40MSw5LjgtMjAuMDQsMTIuMzUtMzUuMzZjMC4xNS0wLjc5LDAuMjMtMS42LDAuMjMtMi40MWwtMC4wMS0xODAuNSYjMTA7JiM5OyYjOTtjMC00NC40NS0xOS4zOC03OC4xMi0yNy42NS05Mi41Yy0xMC4xNC0xNy42MS0yNC40OC0zNC4wNi00Mi42Mi00OC44OGMtMTcuNjMtMTQuNDEtMzguNTQtMjcuMDItNjIuMTQtMzcuNDkmIzEwOyYjOTsmIzk7QzUzMS42MSwxNDcuODUsNDc0LjUyLDEzNi40OCw0MTUsMTM2LjQ4TDQxNSwxMzYuNDh6IiBjbGFzcz0ic3Q0Ii8+JiN4YTsJPGcgY2xhc3M9InN0MiI+JiN4YTsJCTxwYXRoIGQ9Ik00MTUsNTAxLjkzYy0xNDMuNzksMC0yNjIuOTgtNjcuMzMtMjg0LjQ5LTE1NC45NHYxODEuNzdjMi4yMywxMy42Miw3LjA5LDI0LjExLDExLjEsMzEuNzcmIzEwOyYjOTsmIzk7JiM5O2MwLjYyLDEuMTksNzAuOTQsMTE4LjIzLDI3My4zOSwxMTguMjNjMjAyLjM3LDAsMjcyLjc4LTExNy4wNSwyNzMuNC0xMTguMjNjNC4wMS03LjY2LDguODgtMTguMTQsMTEuMS0zMS43N1YzNDYuOTUmIzEwOyYjOTsmIzk7JiM5O0M2NzguMDEsNDM0LjU5LDU1OC44MSw1MDEuOTMsNDE1LDUwMS45M3oiIGNsYXNzPSJzdDgiLz4mI3hhOwkJPHBhdGggZD0iTTQxNSwxNDkuNDdjLTE1MS4yNCwwLTI3NC4yOSw3NS45Mi0yNzQuMjksMTY5LjIzUzI2My43Niw0ODcuOTMsNDE1LDQ4Ny45M3MyNzQuMjktNzUuOTIsMjc0LjI5LTE2OS4yMyYjMTA7JiM5OyYjOTsmIzk7UzU2Ni4yNCwxNDkuNDcsNDE1LDE0OS40N3ogTTIxNi42MywyODUuMjlsOS43NS0yNS40M2w4OC4yNSwxNi41M2wxMS4yOC0yOS40Mmw2Mi4zOCw1Ny4xM2wtOTQuODksMjcuNjdsMTEuNDgtMjkuOTUmIzEwOyYjOTsmIzk7JiM5O0wyMTYuNjMsMjg1LjI5eiBNNDgxLjIyLDQzOS45N2wtMzYuMzgsNi44MWwtMjMuNjUtNjEuNjlsLTQyLjg1LDguMDJsMzkuNTktNjYuMzJsODEuNzMsNDMuNmwtNDIuMDksNy44OEw0ODEuMjIsNDM5Ljk3eiYjMTA7JiM5OyYjOTsmIzk7IE01NDQuNjcsMjc5LjU3bC0zMS4wOS0yMS43M2wtNjUuMzEsNDUuNjVsLTI2LjYzLTE4LjYxbDY1LjMxLTQ1LjY1bC0zMS4wOS0yMS43M2wxMDEuOTctOS4yTDU0NC42NywyNzkuNTd6IiBjbGFzcz0ic3Q4Ii8+JiN4YTsJPC9nPiYjeGE7PC9nPiYjeGE7PGcgY2xhc3M9InN0MCIgaWQ9Il94MzVfNl94NUZf5LiA6IisTDPjgrnjgqTjg4Pjg4EiPiYjeGE7CTxwYXRoIGQ9Ik00MDAuOTQsODEuMDdjLTIuNjEsMC01LjIxLDAuNzgtNy40NSwyLjM0TDcxLjgyLDMwOC4yNWMtMy40OCwyLjQzLTUuNTUsNi40MS01LjU1LDEwLjY2djE3OS40MiYjMTA7JiM5OyYjOTtjMCw0LjI0LDIuMDcsOC4yMiw1LjU1LDEwLjY1bDMyMiwyMjUuMjNjMi4yNCwxLjU2LDQuODQsMi4zNSw3LjQ1LDIuMzVjMi42MiwwLDUuMjMtMC43OSw3LjQ3LTIuMzZsMTQyLjY0LTEwMC4xOCYjMTA7JiM5OyYjOTtjMTkuNDcsNTYuNiw3My4yNCw5NS45NSwxMzQuNDMsOTUuOTVjNzguNCwwLDE0Mi4xOS02My43OSwxNDIuMTktMTQyLjE5YzAtMzEuMi05Ljk3LTYwLjg0LTI4LjgyLTg1LjY5JiMxMDsmIzk7JiM5O2MtMTYuMjQtMjEuNC0zOC41NC0zNy45OS02My41NC00Ny40MVYzMTguOTNjMC00LjI1LTIuMDctOC4yMi01LjU1LTEwLjY2TDQwOC4zOSw4My40MkM0MDYuMTUsODEuODYsNDAzLjU1LDgxLjA3LDQwMC45NCw4MS4wNyYjMTA7JiM5OyYjOTtMNDAwLjk0LDgxLjA3eiIgY2xhc3M9InN0NCIvPiYjeGE7CTxnIGNsYXNzPSJzdDIiPiYjeGE7CQk8cG9seWdvbiBwb2ludHM9Ijc5LjI3LDQ5OC4zMiAzOTMuOTgsNzE4LjQ1IDM5My45OCw1NDguNjMgNzkuMjcsMzI4LjUxIiBjbGFzcz0ic3Q4Ii8+JiN4YTsJCTxwYXRoIGQ9Ik00MDAuOTQsOTQuMDdMODQuNDUsMzE1LjI4bDMxNi41LDIyMS4yMmwzMTYuNDgtMjIxLjIxTDQwMC45NCw5NC4wN3ogTTIwMi44NCwzMjAuNzJsMTUyLjM5LTEwNi41MSYjMTA7JiM5OyYjOTsmIzk7bC0yOC4yOC0xOS43Nmw5NC43OC04LjU1bC0xMi4yMyw2Ni4yNGwtMjguMjgtMTkuNzdMMjI4LjgzLDMzOC44OUwyMDIuODQsMzIwLjcyeiBNMzEwLjIzLDMyMC45OWwyOC4yOCwxOS43NmwxNTIuMzgtMTA2LjUxJiMxMDsmIzk7JiM5OyYjOTtsMjUuOTksMTguMTdMMzY0LjUsMzU4LjkybDI4LjI4LDE5Ljc3TDI5OCwzODcuMjRMMzEwLjIzLDMyMC45OXogTTU0NS41NCwzNDcuMjRMMzkzLjE2LDQ1My43NWwtMjUuOTktMTguMTdsMTUyLjM5LTEwNi41MSYjMTA7JiM5OyYjOTsmIzk7bC0yOC4yOC0xOS43Nmw5NC43Ny04LjU1TDU3My44MiwzNjdMNTQ1LjU0LDM0Ny4yNHoiIGNsYXNzPSJzdDgiLz4mI3hhOwkJPGc+JiN4YTsJCQk8Zz4mI3hhOwkJCQk8cGF0aCBkPSJNNjMxLjg0LDUzOS45M2gxOS4zOHY4Mi4wM2gyNC40MXYxNy4wMmgtNDMuOFY1MzkuOTN6IiBjbGFzcz0ic3Q4Ii8+JiN4YTsJCQkJPHBhdGggZD0iTTY4OS44NCw2MTMuODZ2LTQuNDZsMTguODMtMi4yM3Y1Ljg2YzAsOS45LDIuNjYsMTMuMzksOC4wOSwxMy4zOWM1LjE2LDAsNy42Ny0zLjc2LDcuNjctMTIuMjd2LTQuMzMmIzEwOyYjOTsmIzk7JiM5OyYjOTsmIzk7YzAtOS40OC0yLjkzLTEzLjUzLTkuOS0xMy41M2gtMy4zNnYtMTQuNjVoMy4zNmM2LjQyLDAsOS4zNS00LjQ2LDkuMzUtMTMuMzl2LTMuNDljMC03LjUzLTIuNjYtMTAuMzItNy40LTEwLjMyJiMxMDsmIzk7JiM5OyYjOTsmIzk7JiM5O2MtNS4xNSwwLTcuNTMsMy4zNS03LjUzLDEyLjI3djYuOTdsLTE4Ljk4LTIuNTF2LTQuODhjMC0xNy45OSw5LjkxLTI2LjM3LDI2Ljc5LTI2LjM3YzE2LjQ3LDAsMjYuMDgsNy4zOSwyNi4wOCwyMy44NnYzLjYzJiMxMDsmIzk7JiM5OyYjOTsmIzk7JiM5O2MwLDEwLjMyLTQuNiwxOC42OS0xNC4yMywyMS4wN2MxMC4zMywxLjM5LDE0LjkzLDkuNjIsMTQuOTMsMjAuNXY1LjNjMCwxNy41Ny05LjQ4LDI2Ljc5LTI2LjUsMjYuNzkmIzEwOyYjOTsmIzk7JiM5OyYjOTsmIzk7QzY5OS4wNSw2NDEuMDcsNjg5Ljg0LDYzMy4yNiw2ODkuODQsNjEzLjg2eiIgY2xhc3M9InN0OCIvPiYjeGE7CQkJPC9nPiYjeGE7CQk8L2c+JiN4YTsJCTxwYXRoIGQ9Ik03MjIuNjMsNDY0LjAxdi0xMzUuNUw0MDcuOTIsNTQ4LjYzdjE2OS44MWwxNTEuMTYtMTA1LjczYzExLjY2LDU5LjM0LDY0LjAyLDEwNC4yNSwxMjYuNzIsMTA0LjI1JiMxMDsmIzk7JiM5OyYjOTtjNzEuMjMsMCwxMjkuMTktNTcuOTUsMTI5LjE5LTEyOS4xOUM4MTUsNTI5LjM0LDc3NS45Nyw0NzkuOTEsNzIyLjYzLDQ2NC4wMXogTTY4NS44MSw2OTUuMDYmIzEwOyYjOTsmIzk7JiM5O2MtNTkuMjUsMC0xMDcuMjgtNDguMDMtMTA3LjI4LTEwNy4yOGMwLTU5LjI1LDQ4LjAzLTEwNy4yOCwxMDcuMjgtMTA3LjI4YzU5LjI1LDAsMTA3LjI4LDQ4LjAzLDEwNy4yOCwxMDcuMjgmIzEwOyYjOTsmIzk7JiM5O0M3OTMuMDksNjQ3LjAzLDc0NS4wNiw2OTUuMDYsNjg1LjgxLDY5NS4wNnoiIGNsYXNzPSJzdDgiLz4mI3hhOwk8L2c+JiN4YTs8L2c+JiN4YTs8ZyBjbGFzcz0ic3QwIiBpZD0iX3gzNV83X3g1Rl/kuIDoiKxMMuOCueOCpOODg+ODgSI+JiN4YTsJPHBhdGggZD0iTTQwMC45NCw4MS4wN2MtMi42MSwwLTUuMjEsMC43OC03LjQ1LDIuMzRMNzEuODIsMzA4LjI1Yy0zLjQ4LDIuNDMtNS41NSw2LjQxLTUuNTUsMTAuNjZ2MTc5LjQyJiMxMDsmIzk7JiM5O2MwLDQuMjQsMi4wNyw4LjIyLDUuNTUsMTAuNjVsMzIyLDIyNS4yM2MyLjI0LDEuNTYsNC44NCwyLjM1LDcuNDUsMi4zNWMyLjYyLDAsNS4yMy0wLjc5LDcuNDctMi4zNmwxNDIuNjQtMTAwLjE4JiMxMDsmIzk7JiM5O2MxOS40Nyw1Ni42LDczLjI0LDk1Ljk1LDEzNC40Myw5NS45NWM3OC40LDAsMTQyLjE5LTYzLjc5LDE0Mi4xOS0xNDIuMTljMC0zMS4yLTkuOTctNjAuODQtMjguODItODUuNjkmIzEwOyYjOTsmIzk7Yy0xNi4yNC0yMS40LTM4LjU0LTM3Ljk5LTYzLjU0LTQ3LjQxVjMxOC45M2MwLTQuMjUtMi4wNy04LjIyLTUuNTUtMTAuNjZMNDA4LjM5LDgzLjQyQzQwNi4xNSw4MS44Niw0MDMuNTUsODEuMDcsNDAwLjk0LDgxLjA3JiMxMDsmIzk7JiM5O0w0MDAuOTQsODEuMDd6IiBjbGFzcz0ic3Q0Ii8+JiN4YTsJPGcgY2xhc3M9InN0MiI+JiN4YTsJCTxwYXRoIGQ9Ik00MDAuOTQsOTQuMDdMODQuNDUsMzE1LjI4bDMxNi41LDIyMS4yMmwzMTYuNDgtMjIxLjIxTDQwMC45NCw5NC4wN3ogTTIzNC4xMSwzNDIuNjdsMTUyLjM4LTEwNi41MSYjMTA7JiM5OyYjOTsmIzk7bC0yOC4yOC0xOS43Nmw5NC43OC04LjU1bC0xMi4yMyw2Ni4yNWwtMjguMjgtMTkuNzdMMjYwLjEsMzYwLjgzTDIzNC4xMSwzNDIuNjd6IE0zNDQuNzQsNDIwLjJsMTIuMjMtNjYuMjRsMjguMjgsMTkuNzYmIzEwOyYjOTsmIzk7JiM5O2wxNTIuMzktMTA2LjUxbDI1Ljk5LDE4LjE3TDQxMS4yMywzOTEuODhsMjguMjgsMTkuNzdMMzQ0Ljc0LDQyMC4yeiIgY2xhc3M9InN0OCIvPiYjeGE7CQk8Zz4mI3hhOwkJCTxnPiYjeGE7CQkJCTxwYXRoIGQ9Ik02MzEuNjksNTM5LjkzaDE5LjM4djgyLjAzaDI0LjQxdjE3LjAyaC00My44VjUzOS45M3oiIGNsYXNzPSJzdDgiLz4mI3hhOwkJCQk8cGF0aCBkPSJNNjg5Ljk3LDYyNS4wM2MxMi4yNy0xNC4zNywxOS42Ny0yMy41OCwyNS41Mi0zMi42NWM1LjczLTguNzgsOC4yNC0xNi4xOCw4LjI0LTI0Ljk3di0yLjk0JiMxMDsmIzk7JiM5OyYjOTsmIzk7JiM5O2MwLTYuODMtMi41MS05Ljc2LTcuNC05Ljc2Yy00Ljc0LDAtNy4zOSwzLjQ5LTcuMzksMTAuNjF2OS43NmwtMTguOTctMi4zN3YtNy4xMmMwLTE2LjE4LDEwLjE4LTI1LjY3LDI3LjA2LTI1LjY3JiMxMDsmIzk7JiM5OyYjOTsmIzk7JiM5O2MxNy40NCwwLDI2LjM3LDYuOTcsMjYuMzcsMjQuMTN2My43N2MwLDkuMi0zLjQ4LDE4LjI3LTEwLjA1LDI4LjMxYy01LjE1LDguMjQtMTEuMTYsMTUuMzUtMjEuOSwyNy42M2gzMi4yM3YxNS4yaC01My43MSYjMTA7JiM5OyYjOTsmIzk7JiM5OyYjOTtWNjI1LjAzeiIgY2xhc3M9InN0OCIvPiYjeGE7CQkJPC9nPiYjeGE7CQk8L2c+JiN4YTsJCTxwb2x5Z29uIHBvaW50cz0iNzkuMjcsNDk4LjMyIDM5My45OCw3MTguNDUgMzkzLjk4LDU0OC42MyA3OS4yNywzMjguNTEiIGNsYXNzPSJzdDgiLz4mI3hhOwkJPHBhdGggZD0iTTcyMi42Myw0NjQuMDF2LTEzNS41TDQwNy45Miw1NDguNjN2MTY5LjgxbDE1MS4xNi0xMDUuNzNjMTEuNjYsNTkuMzQsNjQuMDIsMTA0LjI1LDEyNi43MiwxMDQuMjUmIzEwOyYjOTsmIzk7JiM5O2M3MS4yMywwLDEyOS4xOS01Ny45NSwxMjkuMTktMTI5LjE5QzgxNSw1MjkuMzQsNzc1Ljk3LDQ3OS45MSw3MjIuNjMsNDY0LjAxeiBNNjg1LjgxLDY5NS4wNiYjMTA7JiM5OyYjOTsmIzk7Yy01OS4yNSwwLTEwNy4yOC00OC4wMy0xMDcuMjgtMTA3LjI4YzAtNTkuMjUsNDguMDMtMTA3LjI4LDEwNy4yOC0xMDcuMjhjNTkuMjUsMCwxMDcuMjgsNDguMDMsMTA3LjI4LDEwNy4yOCYjMTA7JiM5OyYjOTsmIzk7Qzc5My4wOSw2NDcuMDMsNzQ1LjA2LDY5NS4wNiw2ODUuODEsNjk1LjA2eiIgY2xhc3M9InN0OCIvPiYjeGE7CTwvZz4mI3hhOzwvZz4mI3hhOzxnIGNsYXNzPSJzdDAiIGlkPSJfeDM1XzRfeDVGX+S4gOiIrEFQIj4mI3hhOwk8cGF0aCBkPSJNNDE3LjMzLDc5LjkyYy0yLjYxLDAtNS4yMSwwLjc4LTcuNDUsMi4zNEw4Ni45MiwzMDcuOTljLTMuNDgsMi40My01LjU1LDYuNDEtNS41NSwxMC42NnYxODAuMTQmIzEwOyYjOTsmIzk7YzAsNC4yNCwyLjA3LDguMjIsNS41NSwxMC42NUw0MDcuMiw3MzMuNDZjMi40MiwyLjc3LDUuOTUsNC40NSw5Ljc5LDQuNDVoMC42NmMzLjg0LDAsNy4zOC0xLjY4LDkuNzktNC40NWwzMjAuMjktMjI0LjAzJiMxMDsmIzk7JiM5O2MzLjQ4LTIuNDMsNS41NS02LjQxLDUuNTUtMTAuNjVWMzE4LjY1YzAtNC4yNS0yLjA3LTguMjItNS41NS0xMC42Nkw0MjQuNzgsODIuMjZDNDIyLjU0LDgwLjcsNDE5LjkzLDc5LjkyLDQxNy4zMyw3OS45MiYjMTA7JiM5OyYjOTtMNDE3LjMzLDc5LjkyeiIgY2xhc3M9InN0NCIvPiYjeGE7CTxnIGNsYXNzPSJzdDIiPiYjeGE7CQk8cG9seWdvbiBwb2ludHM9Ijk0LjM0LDQ5OC44MiA0MTAuMzQsNzE5Ljg0IDQxMC4zNCw1NDkuMzQgOTQuMzQsMzI4LjMyIiBjbGFzcz0ic3Q4Ii8+JiN4YTsJCTxwb2x5Z29uIHBvaW50cz0iNDI0LjM0LDU0OS4zNCA0MjQuMzQsNzE5Ljg0IDc0MC4zNCw0OTguODIgNzQwLjM0LDMyOC4zMiIgY2xhc3M9InN0OCIvPiYjeGE7CQk8cGF0aCBkPSJNNDE3LjMzLDkyLjkyTDk5LjU0LDMxNS4wM2wzMTcuNzksMjIyLjEybDMxNy43Ny0yMjIuMTFMNDE3LjMzLDkyLjkyeiBNMzUwLjQ1LDM4Ni42JiMxMDsmIzk7JiM5OyYjOTtjLTE0Ljg3LDAtMjYuODktOC40MS0yNi44OS0xOC44MWMwLTEwLjM4LDEyLjAyLTE4LjgxLDI2Ljg5LTE4LjgxYzE0Ljg5LDAsMjYuOTMsOC40MywyNi45MywxOC44MSYjMTA7JiM5OyYjOTsmIzk7QzM3Ny4zNywzNzguMTgsMzY1LjM0LDM4Ni42LDM1MC40NSwzODYuNnogTTQxNC40MiwzNjcuNzhjMC0xMS45My02LjY0LTIzLjE0LTE4LjcxLTMxLjU4Yy0wLjAxLTAuMDEtMC4wMS0wLjAxLTAuMDItMC4wMSYjMTA7JiM5OyYjOTsmIzk7Yy0wLjAxLTAuMDEtMC4wMS0wLjAxLTAuMDItMC4wMWMtMTIuMDctOC40NC0yOC4xMi0xMy4wOS00NS4yLTEzLjA5YzAsMC0wLjAxLDAtMC4wMSwwbDAtMjEuMjRjMC4wMSwwLDAuMDEsMCwwLjAyLDAmIzEwOyYjOTsmIzk7JiM5O2MyNS4xOCwwLjAxLDQ4Ljg3LDYuODcsNjYuNjgsMTkuMzJjMC4wMiwwLjAxLDAuMDIsMC4wMSwwLjA0LDAuMDNjMTcuODEsMTIuNDUsMjcuNjEsMjguOTksMjcuNjEsNDYuNkw0MTQuNDIsMzY3Ljc4eiYjMTA7JiM5OyYjOTsmIzk7IE00NzcuNzEsMzY3Ljc4YzAtMjMuNzYtMTMuMjMtNDYuMDktMzcuMjYtNjIuODljLTI0LjgxLTE3LjM0LTU3LjQxLTI2LjAxLTkwLTI2LjAxdi0yMS4yM2M0MC4zNywwLDgwLjc1LDEwLjc0LDExMS40OSwzMi4yMiYjMTA7JiM5OyYjOTsmIzk7YzI5Ljc3LDIwLjgyLDQ2LjE2LDQ4LjQ4LDQ2LjE3LDc3LjkxTDQ3Ny43MSwzNjcuNzh6IE00ODQuNzksMjczLjk1Yy0wLjAyLTAuMDEtMC4wMi0wLjAxLTAuMDQtMC4wMyYjMTA7JiM5OyYjOTsmIzk7Yy0wLjAxLTAuMDEtMC4wMy0wLjAyLTAuMDQtMC4wM2MtMzUuODctMjUuMDctODMuNTQtMzguODgtMTM0LjI2LTM4Ljg5di0yMS4yM2M1OC44MywwLDExNC4xNCwxNi4wMiwxNTUuNzUsNDUuMSYjMTA7JiM5OyYjOTsmIzk7YzAuMDQsMC4wMywwLjA0LDAuMDMsMC4wOCwwLjA2YzQxLjU5LDI5LjA3LDY0LjUsNjcuNzMsNjQuNTIsMTA4Ljg1bC0zMC4zOSwwQzU0MC40LDMzMi4zMyw1MjAuNjQsMjk5LjAxLDQ4NC43OSwyNzMuOTV6IiBjbGFzcz0ic3Q4Ii8+JiN4YTsJPC9nPiYjeGE7PC9nPiYjeGE7PGcgY2xhc3M9InN0MCIgaWQ9Il94MzVfNV94NUZf5qiq572u44GNT05VIj4mI3hhOwk8cGF0aCBkPSJNMzgwLjIsMTA3LjA2Yy0yLjYxLDAtNS4yMSwwLjc4LTcuNDUsMi4zNEw4Ny4wOSwzMDkuMDVjLTMuNzgsMi42NC01LjcyLDYuOTMtNS41NCwxMS4yMnYxNDguNjUmIzEwOyYjOTsmIzk7YzAsNC4yNSwyLjA4LDguMjMsNS41NywxMC42NmwzNTEuMjYsMjQ0LjljMi4yMywxLjU2LDQuODMsMi4zNCw3LjQzLDIuMzRjMi42MSwwLDUuMjEtMC43OCw3LjQ1LTIuMzRsMjg1LjY2LTE5OS42NSYjMTA7JiM5OyYjOTtjMi44My0xLjk4LDQuNzUtNSw1LjM1LTguMzljMC4xNi0wLjkzLDAuMjMtMS44NiwwLjE5LTIuNzlWMzY0Ljk1YzAtNC4yNS0yLjA4LTguMjMtNS41Ny0xMC42NmwtMzUxLjI2LTI0NC45JiMxMDsmIzk7JiM5O0MzODUuNCwxMDcuODQsMzgyLjgsMTA3LjA2LDM4MC4yLDEwNy4wNkwzODAuMiwxMDcuMDZ6IiBjbGFzcz0ic3Q0Ii8+JiN4YTsJPGcgY2xhc3M9InN0MiI+JiN4YTsJCTxwb2x5Z29uIHBvaW50cz0iOTkuNCwzMTYuMzEgNDQ2LjAyLDU1Ny44MiA3MjYuODIsMzYxLjU3IDM4MC4yLDEyMC4wNiIgY2xhc3M9InN0NSIvPiYjeGE7CQk8cG9seWdvbiBwb2ludHM9IjQ1Mi41Myw1NjkuMTMgNDUyLjUzLDcwOS40MiA3MzEuNjgsNTE0LjE3IDczMS42OCwzNzMuODgiIGNsYXNzPSJzdDUiLz4mI3hhOwkJPHBhdGggZD0iTTk0LjU1LDMyOC42MnYxNDAuMzFsMzQ0Ljk4LDI0MC41MlY1NjkuMTRMOTQuNTUsMzI4LjYyeiBNMTYyLjUzLDQ3NS4wM2wtMTcuOC0xMi40MnYtNTguMTRoMC40MiYjMTA7JiM5OyYjOTsmIzk7bDE3LjM4LDEyLjEyVjQ3NS4wM3ogTTIwNS4zLDUwNC44NmwtMTcuOC0xMi40MnYtNTguMTJoMC40NGwxNy4zNiwxMi4xMVY1MDQuODZ6IE0yMzYuMzgsNTEyLjI1bC0wLjI0LTI5LjU3bDI2LjA1LDE4LjI0JiMxMDsmIzk7JiM5OyYjOTtsMC4yNCwyOS41N0wyMzYuMzgsNTEyLjI1eiIgY2xhc3M9InN0NSIvPiYjeGE7CTwvZz4mI3hhOzwvZz4mI3hhOzwvc3ZnPg==;" vertex="1" parent="1">
          <mxGeometry x="610" y="365" width="30" height="30" as="geometry" />
        </mxCell>
        <mxCell id="edahv0hC9N-l4Pk8auLt-2" value="" style="ellipse;shape=cloud;whiteSpace=wrap;html=1;" parent="1" vertex="1">
          <mxGeometry x="-20" y="240" width="120" height="80" as="geometry" />
        </mxCell>
        <mxCell id="edahv0hC9N-l4Pk8auLt-16" value="Internet" style="text;html=1;align=center;verticalAlign=middle;whiteSpace=wrap;rounded=0;fontSize=10;" parent="1" vertex="1">
          <mxGeometry x="10" y="265" width="60" height="30" as="geometry" />
        </mxCell>
        <mxCell id="edahv0hC9N-l4Pk8auLt-35" value="2024年04月01日&lt;div&gt;&lt;br&gt;&lt;/div&gt;" style="text;html=1;align=left;verticalAlign=top;whiteSpace=wrap;rounded=0;fontSize=9;" parent="1" vertex="1">
          <mxGeometry x="650" y="490" width="70" height="20" as="geometry" />
        </mxCell>
        <mxCell id="UD9n3Zsf1xc9a69C6OiD-42" value="" style="rounded=0;whiteSpace=wrap;html=1;fontSize=10;" vertex="1" parent="1">
          <mxGeometry x="70" y="400" width="40" height="50" as="geometry" />
        </mxCell>
        <mxCell id="UD9n3Zsf1xc9a69C6OiD-43" value="" style="rounded=0;whiteSpace=wrap;html=1;fontSize=10;" vertex="1" parent="1">
          <mxGeometry x="20" y="400" width="40" height="50" as="geometry" />
        </mxCell>
        <mxCell id="UD9n3Zsf1xc9a69C6OiD-44" value="&lt;p style=&quot;line-height: 80%;&quot;&gt;&lt;span style=&quot;font-size: 8px;&quot;&gt;DNS&lt;/span&gt;&lt;/p&gt;" style="text;html=1;align=center;verticalAlign=middle;whiteSpace=wrap;rounded=0;horizontal=0;rotation=90;spacingLeft=0;direction=east;flipH=1;flipV=1;fontSize=10;" vertex="1" parent="1">
          <mxGeometry x="80" y="400" width="20" height="50" as="geometry" />
        </mxCell>
        <mxCell id="UD9n3Zsf1xc9a69C6OiD-45" value="&lt;p style=&quot;line-height: 80%;&quot;&gt;&lt;span style=&quot;font-size: 8px;&quot;&gt;メール&lt;br&gt;サーバー&lt;/span&gt;&lt;/p&gt;" style="text;html=1;align=center;verticalAlign=middle;whiteSpace=wrap;rounded=0;horizontal=0;rotation=90;spacingLeft=0;direction=east;flipH=1;flipV=1;fontSize=10;" vertex="1" parent="1">
          <mxGeometry x="30" y="405" width="20" height="40" as="geometry" />
        </mxCell>
        <mxCell id="UD9n3Zsf1xc9a69C6OiD-48" value="&lt;span style=&quot;font-size: 8px; background-color: rgb(102, 102, 255);&quot;&gt;お名前.com&lt;/span&gt;" style="text;html=1;align=center;verticalAlign=middle;whiteSpace=wrap;rounded=0;fontSize=9;labelPosition=center;verticalLabelPosition=middle;" vertex="1" parent="1">
          <mxGeometry x="10" y="380" width="50" height="10" as="geometry" />
        </mxCell>
        <mxCell id="UD9n3Zsf1xc9a69C6OiD-49" value="" style="rounded=0;whiteSpace=wrap;html=1;fillColor=none;strokeWidth=2;strokeColor=#f70202;" vertex="1" parent="1">
          <mxGeometry x="10" y="130" width="100" height="80" as="geometry" />
        </mxCell>
        <mxCell id="UD9n3Zsf1xc9a69C6OiD-50" value="" style="rounded=0;whiteSpace=wrap;html=1;fontSize=10;" vertex="1" parent="1">
          <mxGeometry x="60" y="150" width="40" height="50" as="geometry" />
        </mxCell>
        <mxCell id="UD9n3Zsf1xc9a69C6OiD-51" value="" style="rounded=0;whiteSpace=wrap;html=1;fontSize=10;" vertex="1" parent="1">
          <mxGeometry x="15" y="150" width="40" height="50" as="geometry" />
        </mxCell>
        <mxCell id="UD9n3Zsf1xc9a69C6OiD-52" value="&lt;p style=&quot;line-height: 80%;&quot;&gt;&lt;span style=&quot;font-size: 8px;&quot;&gt;AWS&lt;/span&gt;&lt;/p&gt;" style="text;html=1;align=center;verticalAlign=middle;whiteSpace=wrap;rounded=0;horizontal=0;rotation=90;spacingLeft=0;direction=east;flipH=1;flipV=1;fontSize=10;" vertex="1" parent="1">
          <mxGeometry x="70" y="165" width="20" height="20" as="geometry" />
        </mxCell>
        <mxCell id="UD9n3Zsf1xc9a69C6OiD-53" value="&lt;p style=&quot;line-height: 80%;&quot;&gt;&lt;span style=&quot;font-size: 8px;&quot;&gt;ConoHa&lt;/span&gt;&lt;/p&gt;" style="text;html=1;align=center;verticalAlign=middle;whiteSpace=wrap;rounded=0;horizontal=0;rotation=90;spacingLeft=0;direction=east;flipH=1;flipV=1;fontSize=10;" vertex="1" parent="1">
          <mxGeometry x="25" y="157.5" width="20" height="35" as="geometry" />
        </mxCell>
        <mxCell id="UD9n3Zsf1xc9a69C6OiD-55" value="&lt;span style=&quot;font-size: 8px; background-color: rgb(102, 102, 255);&quot;&gt;VPS&lt;/span&gt;" style="text;html=1;align=center;verticalAlign=middle;whiteSpace=wrap;rounded=0;fontSize=9;labelPosition=center;verticalLabelPosition=middle;" vertex="1" parent="1">
          <mxGeometry x="10" y="130" width="20" height="10" as="geometry" />
        </mxCell>
      </root>
    </mxGraphModel>
  </diagram>
</mxfile>
